STARTFONT 2.1
FONT -FontForge-DejaVu Sans Mono-Book-R-Normal-SansMono-14-100-100-100-P-79-ISO10646-1
SIZE 10 100 100
FONTBOUNDINGBOX 18 28 -8 -13
COMMENT "Generated by fontforge, http://fontforge.sourceforge.net"
COMMENT "Copyright (c) 2003 by Bitstream, Inc. All Rights Reserved."
COMMENT "DejaVu changes are in public domain"
STARTPROPERTIES 40
FOUNDRY "FontForge"
FAMILY_NAME "DejaVu Sans Mono"
WEIGHT_NAME "Book"
SLANT "R"
SETWIDTH_NAME "Normal"
ADD_STYLE_NAME "SansMono"
PIXEL_SIZE 14
POINT_SIZE 100
RESOLUTION_X 100
RESOLUTION_Y 100
SPACING "P"
AVERAGE_WIDTH 79
CHARSET_REGISTRY "ISO10646"
CHARSET_ENCODING "1"
FONTNAME_REGISTRY ""
CHARSET_COLLECTIONS "ASCII ISOLatin1Encoding ISO8859-2 ISO8859-5 ISO8859-7 ISO8859-9 ISO8859-6 ISO8859-4 ISO10646-1"
FONT_NAME "DejaVuSansMono"
FACE_NAME "DejaVu Sans Mono"
COPYRIGHT "Copyright (c) 2003 by Bitstream, Inc. All Rights Reserved."
FONT_VERSION "2.34"
FONT_ASCENT 11
FONT_DESCENT 3
UNDERLINE_POSITION -1
UNDERLINE_THICKNESS 1
X_HEIGHT 7
CAP_HEIGHT 9
RAW_ASCENT 759
RAW_DESCENT 240
NORM_SPACE 8
RELATIVE_WEIGHT 40
RELATIVE_SETWIDTH 50
SUPERSCRIPT_X 0
SUPERSCRIPT_Y 6
SUPERSCRIPT_SIZE 9
SUBSCRIPT_X 0
SUBSCRIPT_Y 1
SUBSCRIPT_SIZE 9
FIGURE_WIDTH 8
AVG_LOWERCASE_WIDTH 80
AVG_UPPERCASE_WIDTH 80
ENDPROPERTIES
CHARS 3310
STARTCHAR space
ENCODING 32
SWIDTH 602 0
DWIDTH 8 0
BBX 1 1 0 0
BITMAP
00
ENDCHAR
STARTCHAR exclam
ENCODING 33
SWIDTH 602 0
DWIDTH 8 0
BBX 1 10 4 0
BITMAP
80
80
80
80
80
80
00
00
80
80
ENDCHAR
STARTCHAR quotedbl
ENCODING 34
SWIDTH 602 0
DWIDTH 8 0
BBX 3 4 3 6
BITMAP
A0
A0
A0
A0
ENDCHAR
STARTCHAR numbersign
ENCODING 35
SWIDTH 602 0
DWIDTH 8 0
BBX 8 10 0 0
BITMAP
12
12
16
7F
24
24
FE
28
48
48
ENDCHAR
STARTCHAR dollar
ENCODING 36
SWIDTH 602 0
DWIDTH 8 0
BBX 7 13 1 -2
BITMAP
10
10
7C
92
90
D0
7C
16
12
92
7C
10
10
ENDCHAR
STARTCHAR percent
ENCODING 37
SWIDTH 602 0
DWIDTH 8 0
BBX 8 10 0 0
BITMAP
60
90
90
62
0C
30
46
09
09
06
ENDCHAR
STARTCHAR ampersand
ENCODING 38
SWIDTH 602 0
DWIDTH 8 0
BBX 7 10 1 0
BITMAP
38
40
40
60
60
92
8A
8A
C4
7A
ENDCHAR
STARTCHAR quotesingle
ENCODING 39
SWIDTH 602 0
DWIDTH 8 0
BBX 1 4 4 6
BITMAP
80
80
80
80
ENDCHAR
STARTCHAR parenleft
ENCODING 40
SWIDTH 602 0
DWIDTH 8 0
BBX 3 12 3 -1
BITMAP
60
40
40
80
80
80
80
80
80
40
40
20
ENDCHAR
STARTCHAR parenright
ENCODING 41
SWIDTH 602 0
DWIDTH 8 0
BBX 3 12 2 -1
BITMAP
80
40
40
20
20
20
20
20
20
40
40
C0
ENDCHAR
STARTCHAR asterisk
ENCODING 42
SWIDTH 602 0
DWIDTH 8 0
BBX 7 6 1 4
BITMAP
10
92
7C
38
D6
10
ENDCHAR
STARTCHAR plus
ENCODING 43
SWIDTH 602 0
DWIDTH 8 0
BBX 7 7 1 1
BITMAP
10
10
10
FE
10
10
10
ENDCHAR
STARTCHAR comma
ENCODING 44
SWIDTH 602 0
DWIDTH 8 0
BBX 3 4 2 -2
BITMAP
60
60
40
80
ENDCHAR
STARTCHAR hyphen
ENCODING 45
SWIDTH 602 0
DWIDTH 8 0
BBX 4 1 2 3
BITMAP
F0
ENDCHAR
STARTCHAR period
ENCODING 46
SWIDTH 602 0
DWIDTH 8 0
BBX 2 2 3 0
BITMAP
C0
C0
ENDCHAR
STARTCHAR slash
ENCODING 47
SWIDTH 602 0
DWIDTH 8 0
BBX 6 12 1 -2
BITMAP
04
08
08
08
10
10
20
20
40
40
40
80
ENDCHAR
STARTCHAR zero
ENCODING 48
SWIDTH 602 0
DWIDTH 8 0
BBX 7 10 1 0
BITMAP
38
44
82
82
92
82
82
82
44
38
ENDCHAR
STARTCHAR one
ENCODING 49
SWIDTH 602 0
DWIDTH 8 0
BBX 5 10 2 0
BITMAP
60
A0
20
20
20
20
20
20
20
F8
ENDCHAR
STARTCHAR two
ENCODING 50
SWIDTH 602 0
DWIDTH 8 0
BBX 7 10 1 0
BITMAP
7C
86
02
02
04
0C
18
20
40
FE
ENDCHAR
STARTCHAR three
ENCODING 51
SWIDTH 602 0
DWIDTH 8 0
BBX 7 10 1 0
BITMAP
7C
82
02
06
38
06
02
02
86
7C
ENDCHAR
STARTCHAR four
ENCODING 52
SWIDTH 602 0
DWIDTH 8 0
BBX 7 10 1 0
BITMAP
0C
14
34
24
44
84
FE
04
04
04
ENDCHAR
STARTCHAR five
ENCODING 53
SWIDTH 602 0
DWIDTH 8 0
BBX 7 10 1 0
BITMAP
FC
80
80
F8
84
02
02
02
84
78
ENDCHAR
STARTCHAR six
ENCODING 54
SWIDTH 602 0
DWIDTH 8 0
BBX 7 10 1 0
BITMAP
3C
62
C0
80
BC
C6
82
82
46
3C
ENDCHAR
STARTCHAR seven
ENCODING 55
SWIDTH 602 0
DWIDTH 8 0
BBX 7 10 1 0
BITMAP
FE
06
04
08
08
10
10
20
20
40
ENDCHAR
STARTCHAR eight
ENCODING 56
SWIDTH 602 0
DWIDTH 8 0
BBX 7 10 1 0
BITMAP
7C
82
82
82
7C
C6
82
82
C6
7C
ENDCHAR
STARTCHAR nine
ENCODING 57
SWIDTH 602 0
DWIDTH 8 0
BBX 7 10 1 0
BITMAP
78
C4
82
82
C6
7A
02
06
8C
78
ENDCHAR
STARTCHAR colon
ENCODING 58
SWIDTH 602 0
DWIDTH 8 0
BBX 2 7 3 0
BITMAP
C0
C0
00
00
00
C0
C0
ENDCHAR
STARTCHAR semicolon
ENCODING 59
SWIDTH 602 0
DWIDTH 8 0
BBX 3 9 2 -2
BITMAP
60
60
00
00
00
60
60
40
80
ENDCHAR
STARTCHAR less
ENCODING 60
SWIDTH 602 0
DWIDTH 8 0
BBX 7 7 1 1
BITMAP
02
1C
70
80
70
1C
02
ENDCHAR
STARTCHAR equal
ENCODING 61
SWIDTH 602 0
DWIDTH 8 0
BBX 7 4 1 3
BITMAP
FE
00
00
FE
ENDCHAR
STARTCHAR greater
ENCODING 62
SWIDTH 602 0
DWIDTH 8 0
BBX 7 7 1 1
BITMAP
80
70
1C
02
1C
70
80
ENDCHAR
STARTCHAR question
ENCODING 63
SWIDTH 602 0
DWIDTH 8 0
BBX 5 10 1 0
BITMAP
70
88
08
18
30
20
20
00
20
20
ENDCHAR
STARTCHAR at
ENCODING 64
SWIDTH 602 0
DWIDTH 8 0
BBX 7 12 1 -2
BITMAP
3C
66
42
8E
92
92
92
92
8E
40
60
1C
ENDCHAR
STARTCHAR A
ENCODING 65
SWIDTH 602 0
DWIDTH 8 0
BBX 7 10 1 0
BITMAP
10
28
28
28
28
44
7C
44
82
82
ENDCHAR
STARTCHAR B
ENCODING 66
SWIDTH 602 0
DWIDTH 8 0
BBX 7 10 1 0
BITMAP
FC
82
82
82
FC
86
82
82
86
FC
ENDCHAR
STARTCHAR C
ENCODING 67
SWIDTH 602 0
DWIDTH 8 0
BBX 7 10 1 0
BITMAP
3C
42
80
80
80
80
80
80
42
3C
ENDCHAR
STARTCHAR D
ENCODING 68
SWIDTH 602 0
DWIDTH 8 0
BBX 7 10 1 0
BITMAP
F8
84
82
82
82
82
82
82
84
F8
ENDCHAR
STARTCHAR E
ENCODING 69
SWIDTH 602 0
DWIDTH 8 0
BBX 7 10 1 0
BITMAP
FE
80
80
80
FE
80
80
80
80
FE
ENDCHAR
STARTCHAR F
ENCODING 70
SWIDTH 602 0
DWIDTH 8 0
BBX 7 10 1 0
BITMAP
FE
80
80
80
FE
80
80
80
80
80
ENDCHAR
STARTCHAR G
ENCODING 71
SWIDTH 602 0
DWIDTH 8 0
BBX 7 10 1 0
BITMAP
3C
42
80
80
80
86
82
82
42
3C
ENDCHAR
STARTCHAR H
ENCODING 72
SWIDTH 602 0
DWIDTH 8 0
BBX 7 10 1 0
BITMAP
82
82
82
82
FE
82
82
82
82
82
ENDCHAR
STARTCHAR I
ENCODING 73
SWIDTH 602 0
DWIDTH 8 0
BBX 5 10 2 0
BITMAP
F8
20
20
20
20
20
20
20
20
F8
ENDCHAR
STARTCHAR J
ENCODING 74
SWIDTH 602 0
DWIDTH 8 0
BBX 6 10 1 0
BITMAP
3C
04
04
04
04
04
04
04
8C
78
ENDCHAR
STARTCHAR K
ENCODING 75
SWIDTH 602 0
DWIDTH 8 0
BBX 7 10 1 0
BITMAP
84
88
90
A0
E0
90
98
88
84
82
ENDCHAR
STARTCHAR L
ENCODING 76
SWIDTH 602 0
DWIDTH 8 0
BBX 7 10 1 0
BITMAP
80
80
80
80
80
80
80
80
80
FE
ENDCHAR
STARTCHAR M
ENCODING 77
SWIDTH 602 0
DWIDTH 8 0
BBX 7 10 1 0
BITMAP
C6
C6
AA
AA
AA
92
82
82
82
82
ENDCHAR
STARTCHAR N
ENCODING 78
SWIDTH 602 0
DWIDTH 8 0
BBX 7 10 1 0
BITMAP
C2
C2
A2
A2
92
92
8A
8A
86
86
ENDCHAR
STARTCHAR O
ENCODING 79
SWIDTH 602 0
DWIDTH 8 0
BBX 7 10 1 0
BITMAP
38
44
82
82
82
82
82
82
44
38
ENDCHAR
STARTCHAR P
ENCODING 80
SWIDTH 602 0
DWIDTH 8 0
BBX 7 10 1 0
BITMAP
FC
86
82
82
86
FC
80
80
80
80
ENDCHAR
STARTCHAR Q
ENCODING 81
SWIDTH 602 0
DWIDTH 8 0
BBX 7 12 1 -2
BITMAP
38
44
82
82
82
82
82
82
44
3C
0C
04
ENDCHAR
STARTCHAR R
ENCODING 82
SWIDTH 602 0
DWIDTH 8 0
BBX 8 10 1 0
BITMAP
FC
86
82
82
86
F8
84
82
82
81
ENDCHAR
STARTCHAR S
ENCODING 83
SWIDTH 602 0
DWIDTH 8 0
BBX 7 10 1 0
BITMAP
3C
C2
80
80
60
1C
02
02
86
7C
ENDCHAR
STARTCHAR T
ENCODING 84
SWIDTH 602 0
DWIDTH 8 0
BBX 7 10 1 0
BITMAP
FE
10
10
10
10
10
10
10
10
10
ENDCHAR
STARTCHAR U
ENCODING 85
SWIDTH 602 0
DWIDTH 8 0
BBX 7 10 1 0
BITMAP
82
82
82
82
82
82
82
82
C6
7C
ENDCHAR
STARTCHAR V
ENCODING 86
SWIDTH 602 0
DWIDTH 8 0
BBX 7 10 1 0
BITMAP
82
82
44
44
44
28
28
28
28
10
ENDCHAR
STARTCHAR W
ENCODING 87
SWIDTH 602 0
DWIDTH 8 0
BBX 8 10 0 0
BITMAP
81
81
81
99
5A
5A
5A
24
24
24
ENDCHAR
STARTCHAR X
ENCODING 88
SWIDTH 602 0
DWIDTH 8 0
BBX 7 10 1 0
BITMAP
82
44
28
28
10
28
28
44
44
82
ENDCHAR
STARTCHAR Y
ENCODING 89
SWIDTH 602 0
DWIDTH 8 0
BBX 7 10 1 0
BITMAP
82
44
44
28
38
10
10
10
10
10
ENDCHAR
STARTCHAR Z
ENCODING 90
SWIDTH 602 0
DWIDTH 8 0
BBX 7 10 1 0
BITMAP
FE
06
04
08
10
10
20
40
C0
FE
ENDCHAR
STARTCHAR bracketleft
ENCODING 91
SWIDTH 602 0
DWIDTH 8 0
BBX 3 12 3 -1
BITMAP
E0
80
80
80
80
80
80
80
80
80
80
E0
ENDCHAR
STARTCHAR backslash
ENCODING 92
SWIDTH 602 0
DWIDTH 8 0
BBX 6 12 1 -2
BITMAP
80
40
40
40
20
20
10
10
08
08
08
04
ENDCHAR
STARTCHAR bracketright
ENCODING 93
SWIDTH 602 0
DWIDTH 8 0
BBX 3 12 2 -1
BITMAP
E0
20
20
20
20
20
20
20
20
20
20
E0
ENDCHAR
STARTCHAR asciicircum
ENCODING 94
SWIDTH 602 0
DWIDTH 8 0
BBX 7 4 1 6
BITMAP
10
28
44
C6
ENDCHAR
STARTCHAR underscore
ENCODING 95
SWIDTH 602 0
DWIDTH 8 0
BBX 8 1 0 -3
BITMAP
FF
ENDCHAR
STARTCHAR grave
ENCODING 96
SWIDTH 602 0
DWIDTH 8 0
BBX 3 3 2 9
BITMAP
C0
40
20
ENDCHAR
STARTCHAR a
ENCODING 97
SWIDTH 602 0
DWIDTH 8 0
BBX 6 8 1 0
BITMAP
38
44
04
7C
84
84
8C
74
ENDCHAR
STARTCHAR b
ENCODING 98
SWIDTH 602 0
DWIDTH 8 0
BBX 6 11 1 0
BITMAP
80
80
80
F8
C8
84
84
84
84
C8
B8
ENDCHAR
STARTCHAR c
ENCODING 99
SWIDTH 602 0
DWIDTH 8 0
BBX 6 8 1 0
BITMAP
38
44
80
80
80
80
44
38
ENDCHAR
STARTCHAR d
ENCODING 100
SWIDTH 602 0
DWIDTH 8 0
BBX 6 11 1 0
BITMAP
04
04
04
7C
4C
84
84
84
84
4C
74
ENDCHAR
STARTCHAR e
ENCODING 101
SWIDTH 602 0
DWIDTH 8 0
BBX 6 8 1 0
BITMAP
78
4C
84
FC
80
80
44
38
ENDCHAR
STARTCHAR f
ENCODING 102
SWIDTH 602 0
DWIDTH 8 0
BBX 6 11 1 0
BITMAP
1C
20
20
FC
20
20
20
20
20
20
20
ENDCHAR
STARTCHAR g
ENCODING 103
SWIDTH 602 0
DWIDTH 8 0
BBX 6 11 1 -3
BITMAP
74
4C
84
84
84
84
4C
74
04
44
38
ENDCHAR
STARTCHAR h
ENCODING 104
SWIDTH 602 0
DWIDTH 8 0
BBX 6 11 1 0
BITMAP
80
80
80
B8
C4
84
84
84
84
84
84
ENDCHAR
STARTCHAR i
ENCODING 105
SWIDTH 602 0
DWIDTH 8 0
BBX 7 11 1 0
BITMAP
10
10
00
70
10
10
10
10
10
10
FE
ENDCHAR
STARTCHAR j
ENCODING 106
SWIDTH 602 0
DWIDTH 8 0
BBX 4 14 1 -3
BITMAP
10
10
00
70
10
10
10
10
10
10
10
10
10
E0
ENDCHAR
STARTCHAR k
ENCODING 107
SWIDTH 602 0
DWIDTH 8 0
BBX 6 11 1 0
BITMAP
80
80
80
88
90
A0
E0
90
90
88
84
ENDCHAR
STARTCHAR l
ENCODING 108
SWIDTH 602 0
DWIDTH 8 0
BBX 7 11 0 0
BITMAP
F0
10
10
10
10
10
10
10
10
10
0E
ENDCHAR
STARTCHAR m
ENCODING 109
SWIDTH 602 0
DWIDTH 8 0
BBX 7 8 1 0
BITMAP
FC
92
92
92
92
92
92
92
ENDCHAR
STARTCHAR n
ENCODING 110
SWIDTH 602 0
DWIDTH 8 0
BBX 6 8 1 0
BITMAP
B8
C4
84
84
84
84
84
84
ENDCHAR
STARTCHAR o
ENCODING 111
SWIDTH 602 0
DWIDTH 8 0
BBX 6 8 1 0
BITMAP
78
CC
84
84
84
84
CC
78
ENDCHAR
STARTCHAR p
ENCODING 112
SWIDTH 602 0
DWIDTH 8 0
BBX 6 11 1 -3
BITMAP
B8
C8
84
84
84
84
C8
F8
80
80
80
ENDCHAR
STARTCHAR q
ENCODING 113
SWIDTH 602 0
DWIDTH 8 0
BBX 6 11 1 -3
BITMAP
74
4C
84
84
84
84
4C
74
04
04
04
ENDCHAR
STARTCHAR r
ENCODING 114
SWIDTH 602 0
DWIDTH 8 0
BBX 5 8 2 0
BITMAP
F0
C8
80
80
80
80
80
80
ENDCHAR
STARTCHAR s
ENCODING 115
SWIDTH 602 0
DWIDTH 8 0
BBX 6 8 1 0
BITMAP
78
84
80
E0
1C
04
84
78
ENDCHAR
STARTCHAR t
ENCODING 116
SWIDTH 602 0
DWIDTH 8 0
BBX 6 10 1 0
BITMAP
20
20
FC
20
20
20
20
20
20
1C
ENDCHAR
STARTCHAR u
ENCODING 117
SWIDTH 602 0
DWIDTH 8 0
BBX 6 8 1 0
BITMAP
84
84
84
84
84
84
8C
74
ENDCHAR
STARTCHAR v
ENCODING 118
SWIDTH 602 0
DWIDTH 8 0
BBX 6 8 1 0
BITMAP
84
84
48
48
48
30
30
30
ENDCHAR
STARTCHAR w
ENCODING 119
SWIDTH 602 0
DWIDTH 8 0
BBX 8 8 0 0
BITMAP
81
81
5A
5A
5A
5A
24
24
ENDCHAR
STARTCHAR x
ENCODING 120
SWIDTH 602 0
DWIDTH 8 0
BBX 6 8 1 0
BITMAP
84
48
30
30
30
48
48
84
ENDCHAR
STARTCHAR y
ENCODING 121
SWIDTH 602 0
DWIDTH 8 0
BBX 6 11 1 -3
BITMAP
84
44
48
48
28
30
10
10
10
20
60
ENDCHAR
STARTCHAR z
ENCODING 122
SWIDTH 602 0
DWIDTH 8 0
BBX 6 8 1 0
BITMAP
FC
04
08
10
20
40
80
FC
ENDCHAR
STARTCHAR braceleft
ENCODING 123
SWIDTH 602 0
DWIDTH 8 0
BBX 5 13 2 -2
BITMAP
18
20
20
20
20
20
C0
20
20
20
20
20
18
ENDCHAR
STARTCHAR bar
ENCODING 124
SWIDTH 602 0
DWIDTH 8 0
BBX 1 14 4 -3
BITMAP
80
80
80
80
80
80
80
80
80
80
80
80
80
80
ENDCHAR
STARTCHAR braceright
ENCODING 125
SWIDTH 602 0
DWIDTH 8 0
BBX 5 13 2 -2
BITMAP
C0
20
20
20
20
20
18
20
20
20
20
20
C0
ENDCHAR
STARTCHAR asciitilde
ENCODING 126
SWIDTH 602 0
DWIDTH 8 0
BBX 7 2 1 3
BITMAP
72
8C
ENDCHAR
STARTCHAR nonbreakingspace
ENCODING 160
SWIDTH 602 0
DWIDTH 8 0
BBX 1 1 0 0
BITMAP
00
ENDCHAR
STARTCHAR exclamdown
ENCODING 161
SWIDTH 602 0
DWIDTH 8 0
BBX 1 10 4 0
BITMAP
80
80
00
00
80
80
80
80
80
80
ENDCHAR
STARTCHAR cent
ENCODING 162
SWIDTH 602 0
DWIDTH 8 0
BBX 6 12 1 -2
BITMAP
10
10
38
54
90
90
90
90
54
38
10
10
ENDCHAR
STARTCHAR sterling
ENCODING 163
SWIDTH 602 0
DWIDTH 8 0
BBX 7 10 1 0
BITMAP
1C
32
20
20
20
7C
20
20
20
FE
ENDCHAR
STARTCHAR currency
ENCODING 164
SWIDTH 602 0
DWIDTH 8 0
BBX 7 7 1 1
BITMAP
82
7C
44
44
44
7C
82
ENDCHAR
STARTCHAR yen
ENCODING 165
SWIDTH 602 0
DWIDTH 8 0
BBX 7 10 1 0
BITMAP
82
44
28
EE
10
FE
10
10
10
10
ENDCHAR
STARTCHAR brokenbar
ENCODING 166
SWIDTH 602 0
DWIDTH 8 0
BBX 1 12 4 -2
BITMAP
80
80
80
80
80
00
00
80
80
80
80
80
ENDCHAR
STARTCHAR section
ENCODING 167
SWIDTH 602 0
DWIDTH 8 0
BBX 6 11 1 -1
BITMAP
7C
80
C0
70
8C
84
64
38
0C
04
F8
ENDCHAR
STARTCHAR dieresis
ENCODING 168
SWIDTH 602 0
DWIDTH 8 0
BBX 3 1 2 10
BITMAP
A0
ENDCHAR
STARTCHAR copyright
ENCODING 169
SWIDTH 602 0
DWIDTH 8 0
BBX 8 8 0 1
BITMAP
3C
42
9D
A1
A1
9D
42
3C
ENDCHAR
STARTCHAR ordfeminine
ENCODING 170
SWIDTH 602 0
DWIDTH 8 0
BBX 5 8 2 2
BITMAP
F0
08
78
88
98
68
00
F8
ENDCHAR
STARTCHAR guillemotleft
ENCODING 171
SWIDTH 602 0
DWIDTH 8 0
BBX 6 6 1 1
BITMAP
24
6C
D8
D8
6C
24
ENDCHAR
STARTCHAR logicalnot
ENCODING 172
SWIDTH 602 0
DWIDTH 8 0
BBX 7 3 1 3
BITMAP
FE
02
02
ENDCHAR
STARTCHAR sfthyphen
ENCODING 173
SWIDTH 602 0
DWIDTH 8 0
BBX 4 1 2 3
BITMAP
F0
ENDCHAR
STARTCHAR registered
ENCODING 174
SWIDTH 602 0
DWIDTH 8 0
BBX 8 8 0 1
BITMAP
3C
42
BD
A5
B9
AD
42
3C
ENDCHAR
STARTCHAR macron
ENCODING 175
SWIDTH 602 0
DWIDTH 8 0
BBX 4 1 2 9
BITMAP
F0
ENDCHAR
STARTCHAR degree
ENCODING 176
SWIDTH 602 0
DWIDTH 8 0
BBX 4 4 2 6
BITMAP
60
90
90
60
ENDCHAR
STARTCHAR plusminus
ENCODING 177
SWIDTH 602 0
DWIDTH 8 0
BBX 7 8 1 0
BITMAP
10
10
FE
10
10
00
00
FE
ENDCHAR
STARTCHAR twosuperior
ENCODING 178
SWIDTH 602 0
DWIDTH 8 0
BBX 4 6 2 4
BITMAP
E0
10
10
20
40
F0
ENDCHAR
STARTCHAR threesuperior
ENCODING 179
SWIDTH 602 0
DWIDTH 8 0
BBX 4 6 2 4
BITMAP
F0
10
60
10
10
E0
ENDCHAR
STARTCHAR acute
ENCODING 180
SWIDTH 602 0
DWIDTH 8 0
BBX 3 3 3 9
BITMAP
60
40
80
ENDCHAR
STARTCHAR mu
ENCODING 181
SWIDTH 602 0
DWIDTH 8 0
BBX 7 11 1 -3
BITMAP
84
84
84
84
84
84
8C
FE
80
80
80
ENDCHAR
STARTCHAR paragraph
ENCODING 182
SWIDTH 602 0
DWIDTH 8 0
BBX 7 11 1 -1
BITMAP
3E
FA
FA
FA
FA
3A
0A
0A
0A
0A
0A
ENDCHAR
STARTCHAR periodcentered
ENCODING 183
SWIDTH 602 0
DWIDTH 8 0
BBX 2 2 3 4
BITMAP
C0
C0
ENDCHAR
STARTCHAR cedilla
ENCODING 184
SWIDTH 602 0
DWIDTH 8 0
BBX 3 3 3 -3
BITMAP
20
20
E0
ENDCHAR
STARTCHAR onesuperior
ENCODING 185
SWIDTH 602 0
DWIDTH 8 0
BBX 3 6 3 4
BITMAP
C0
40
40
40
40
E0
ENDCHAR
STARTCHAR ordmasculine
ENCODING 186
SWIDTH 602 0
DWIDTH 8 0
BBX 5 8 2 2
BITMAP
70
88
88
88
88
70
00
F8
ENDCHAR
STARTCHAR guillemotright
ENCODING 187
SWIDTH 602 0
DWIDTH 8 0
BBX 6 6 1 1
BITMAP
90
D8
6C
6C
D8
90
ENDCHAR
STARTCHAR onequarter
ENCODING 188
SWIDTH 602 0
DWIDTH 8 0
BBX 8 13 0 -2
BITMAP
60
20
20
20
20
76
38
C6
06
0A
12
1F
02
ENDCHAR
STARTCHAR onehalf
ENCODING 189
SWIDTH 602 0
DWIDTH 8 0
BBX 7 13 0 -2
BITMAP
60
20
20
20
20
76
38
DC
02
02
04
08
1E
ENDCHAR
STARTCHAR threequarters
ENCODING 190
SWIDTH 602 0
DWIDTH 8 0
BBX 8 13 0 -2
BITMAP
F0
10
60
10
10
E6
38
C6
06
0A
12
1F
02
ENDCHAR
STARTCHAR questiondown
ENCODING 191
SWIDTH 602 0
DWIDTH 8 0
BBX 5 10 2 0
BITMAP
20
20
00
20
20
60
C0
80
88
70
ENDCHAR
STARTCHAR Agrave
ENCODING 192
SWIDTH 602 0
DWIDTH 8 0
BBX 7 13 1 0
BITMAP
60
30
00
10
28
28
28
28
44
7C
44
82
82
ENDCHAR
STARTCHAR Aacute
ENCODING 193
SWIDTH 602 0
DWIDTH 8 0
BBX 7 13 1 0
BITMAP
18
30
00
10
28
28
28
28
44
7C
44
82
82
ENDCHAR
STARTCHAR Acircumflex
ENCODING 194
SWIDTH 602 0
DWIDTH 8 0
BBX 7 13 1 0
BITMAP
10
28
00
10
28
28
28
28
44
7C
44
82
82
ENDCHAR
STARTCHAR Atilde
ENCODING 195
SWIDTH 602 0
DWIDTH 8 0
BBX 7 13 1 0
BITMAP
74
5C
00
10
28
28
28
28
44
7C
44
82
82
ENDCHAR
STARTCHAR Adieresis
ENCODING 196
SWIDTH 602 0
DWIDTH 8 0
BBX 7 12 1 0
BITMAP
28
00
10
28
28
28
28
44
7C
44
82
82
ENDCHAR
STARTCHAR Aring
ENCODING 197
SWIDTH 602 0
DWIDTH 8 0
BBX 7 13 1 0
BITMAP
38
28
28
10
10
28
28
28
44
7C
44
C6
82
ENDCHAR
STARTCHAR AE
ENCODING 198
SWIDTH 602 0
DWIDTH 8 0
BBX 8 10 0 0
BITMAP
3F
28
28
28
4F
48
78
48
88
8F
ENDCHAR
STARTCHAR Ccedilla
ENCODING 199
SWIDTH 602 0
DWIDTH 8 0
BBX 7 13 1 -3
BITMAP
3C
42
80
80
80
80
80
80
42
3C
04
04
1C
ENDCHAR
STARTCHAR Egrave
ENCODING 200
SWIDTH 602 0
DWIDTH 8 0
BBX 7 13 1 0
BITMAP
60
30
00
FE
80
80
80
FE
80
80
80
80
FE
ENDCHAR
STARTCHAR Eacute
ENCODING 201
SWIDTH 602 0
DWIDTH 8 0
BBX 7 13 1 0
BITMAP
18
30
00
FE
80
80
80
FE
80
80
80
80
FE
ENDCHAR
STARTCHAR Ecircumflex
ENCODING 202
SWIDTH 602 0
DWIDTH 8 0
BBX 7 13 1 0
BITMAP
30
48
00
FE
80
80
80
FE
80
80
80
80
FE
ENDCHAR
STARTCHAR Edieresis
ENCODING 203
SWIDTH 602 0
DWIDTH 8 0
BBX 7 12 1 0
BITMAP
28
00
FE
80
80
80
FE
80
80
80
80
FE
ENDCHAR
STARTCHAR Igrave
ENCODING 204
SWIDTH 602 0
DWIDTH 8 0
BBX 5 13 2 0
BITMAP
C0
60
00
F8
20
20
20
20
20
20
20
20
F8
ENDCHAR
STARTCHAR Iacute
ENCODING 205
SWIDTH 602 0
DWIDTH 8 0
BBX 5 13 2 0
BITMAP
30
60
00
F8
20
20
20
20
20
20
20
20
F8
ENDCHAR
STARTCHAR Icircumflex
ENCODING 206
SWIDTH 602 0
DWIDTH 8 0
BBX 5 13 2 0
BITMAP
20
50
00
F8
20
20
20
20
20
20
20
20
F8
ENDCHAR
STARTCHAR Idieresis
ENCODING 207
SWIDTH 602 0
DWIDTH 8 0
BBX 5 12 2 0
BITMAP
50
00
F8
20
20
20
20
20
20
20
20
F8
ENDCHAR
STARTCHAR Eth
ENCODING 208
SWIDTH 602 0
DWIDTH 8 0
BBX 8 10 0 0
BITMAP
7C
42
41
41
F1
41
41
41
42
7C
ENDCHAR
STARTCHAR Ntilde
ENCODING 209
SWIDTH 602 0
DWIDTH 8 0
BBX 7 13 1 0
BITMAP
74
5C
00
C2
C2
A2
A2
92
92
8A
8A
86
86
ENDCHAR
STARTCHAR Ograve
ENCODING 210
SWIDTH 602 0
DWIDTH 8 0
BBX 7 13 1 0
BITMAP
60
30
00
38
44
82
82
82
82
82
82
44
38
ENDCHAR
STARTCHAR Oacute
ENCODING 211
SWIDTH 602 0
DWIDTH 8 0
BBX 7 13 1 0
BITMAP
18
30
00
38
44
82
82
82
82
82
82
44
38
ENDCHAR
STARTCHAR Ocircumflex
ENCODING 212
SWIDTH 602 0
DWIDTH 8 0
BBX 7 13 1 0
BITMAP
10
28
00
38
44
82
82
82
82
82
82
44
38
ENDCHAR
STARTCHAR Otilde
ENCODING 213
SWIDTH 602 0
DWIDTH 8 0
BBX 7 13 1 0
BITMAP
74
5C
00
38
44
82
82
82
82
82
82
44
38
ENDCHAR
STARTCHAR Odieresis
ENCODING 214
SWIDTH 602 0
DWIDTH 8 0
BBX 7 12 1 0
BITMAP
28
00
38
44
82
82
82
82
82
82
44
38
ENDCHAR
STARTCHAR multiply
ENCODING 215
SWIDTH 602 0
DWIDTH 8 0
BBX 6 6 1 2
BITMAP
84
48
30
30
48
84
ENDCHAR
STARTCHAR Oslash
ENCODING 216
SWIDTH 602 0
DWIDTH 8 0
BBX 8 10 0 0
BITMAP
1F
23
43
45
4D
59
71
61
62
BC
ENDCHAR
STARTCHAR Ugrave
ENCODING 217
SWIDTH 602 0
DWIDTH 8 0
BBX 7 13 1 0
BITMAP
60
30
00
82
82
82
82
82
82
82
82
C6
7C
ENDCHAR
STARTCHAR Uacute
ENCODING 218
SWIDTH 602 0
DWIDTH 8 0
BBX 7 13 1 0
BITMAP
18
30
00
82
82
82
82
82
82
82
82
C6
7C
ENDCHAR
STARTCHAR Ucircumflex
ENCODING 219
SWIDTH 602 0
DWIDTH 8 0
BBX 7 13 1 0
BITMAP
10
28
00
82
82
82
82
82
82
82
82
C6
7C
ENDCHAR
STARTCHAR Udieresis
ENCODING 220
SWIDTH 602 0
DWIDTH 8 0
BBX 7 12 1 0
BITMAP
28
00
82
82
82
82
82
82
82
82
C6
7C
ENDCHAR
STARTCHAR Yacute
ENCODING 221
SWIDTH 602 0
DWIDTH 8 0
BBX 7 13 1 0
BITMAP
18
30
00
82
44
44
28
38
10
10
10
10
10
ENDCHAR
STARTCHAR Thorn
ENCODING 222
SWIDTH 602 0
DWIDTH 8 0
BBX 7 10 1 0
BITMAP
80
FC
86
82
82
86
FC
80
80
80
ENDCHAR
STARTCHAR germandbls
ENCODING 223
SWIDTH 602 0
DWIDTH 8 0
BBX 6 11 1 0
BITMAP
70
88
88
90
A0
A0
B8
8C
84
84
B8
ENDCHAR
STARTCHAR agrave
ENCODING 224
SWIDTH 602 0
DWIDTH 8 0
BBX 6 12 1 0
BITMAP
60
20
10
00
38
44
04
7C
84
84
8C
74
ENDCHAR
STARTCHAR aacute
ENCODING 225
SWIDTH 602 0
DWIDTH 8 0
BBX 6 12 1 0
BITMAP
18
10
20
00
38
44
04
7C
84
84
8C
74
ENDCHAR
STARTCHAR acircumflex
ENCODING 226
SWIDTH 602 0
DWIDTH 8 0
BBX 6 12 1 0
BITMAP
30
30
48
00
38
44
04
7C
84
84
8C
74
ENDCHAR
STARTCHAR atilde
ENCODING 227
SWIDTH 602 0
DWIDTH 8 0
BBX 6 11 1 0
BITMAP
74
5C
00
38
44
04
7C
84
84
8C
74
ENDCHAR
STARTCHAR adieresis
ENCODING 228
SWIDTH 602 0
DWIDTH 8 0
BBX 6 11 1 0
BITMAP
50
00
00
38
44
04
7C
84
84
8C
74
ENDCHAR
STARTCHAR aring
ENCODING 229
SWIDTH 602 0
DWIDTH 8 0
BBX 6 13 1 0
BITMAP
30
48
48
30
00
38
44
04
7C
84
84
8C
74
ENDCHAR
STARTCHAR ae
ENCODING 230
SWIDTH 602 0
DWIDTH 8 0
BBX 6 8 1 0
BITMAP
D8
24
24
7C
A0
A0
A0
DC
ENDCHAR
STARTCHAR ccedilla
ENCODING 231
SWIDTH 602 0
DWIDTH 8 0
BBX 6 11 1 -3
BITMAP
38
44
80
80
80
80
44
38
04
04
1C
ENDCHAR
STARTCHAR egrave
ENCODING 232
SWIDTH 602 0
DWIDTH 8 0
BBX 6 12 1 0
BITMAP
60
20
10
00
78
4C
84
FC
80
80
44
38
ENDCHAR
STARTCHAR eacute
ENCODING 233
SWIDTH 602 0
DWIDTH 8 0
BBX 6 12 1 0
BITMAP
18
10
20
00
78
4C
84
FC
80
80
44
38
ENDCHAR
STARTCHAR ecircumflex
ENCODING 234
SWIDTH 602 0
DWIDTH 8 0
BBX 6 12 1 0
BITMAP
30
30
48
00
78
4C
84
FC
80
80
44
38
ENDCHAR
STARTCHAR edieresis
ENCODING 235
SWIDTH 602 0
DWIDTH 8 0
BBX 6 11 1 0
BITMAP
50
00
00
78
4C
84
FC
80
80
44
38
ENDCHAR
STARTCHAR igrave
ENCODING 236
SWIDTH 602 0
DWIDTH 8 0
BBX 7 12 1 0
BITMAP
60
20
10
00
70
10
10
10
10
10
10
FE
ENDCHAR
STARTCHAR iacute
ENCODING 237
SWIDTH 602 0
DWIDTH 8 0
BBX 7 12 1 0
BITMAP
18
10
20
00
70
10
10
10
10
10
10
FE
ENDCHAR
STARTCHAR icircumflex
ENCODING 238
SWIDTH 602 0
DWIDTH 8 0
BBX 7 12 1 0
BITMAP
30
30
48
00
70
10
10
10
10
10
10
FE
ENDCHAR
STARTCHAR idieresis
ENCODING 239
SWIDTH 602 0
DWIDTH 8 0
BBX 7 11 1 0
BITMAP
28
00
00
70
10
10
10
10
10
10
FE
ENDCHAR
STARTCHAR eth
ENCODING 240
SWIDTH 602 0
DWIDTH 8 0
BBX 6 11 1 0
BITMAP
60
78
10
78
4C
84
84
84
84
4C
78
ENDCHAR
STARTCHAR ntilde
ENCODING 241
SWIDTH 602 0
DWIDTH 8 0
BBX 6 11 1 0
BITMAP
74
5C
00
B8
C4
84
84
84
84
84
84
ENDCHAR
STARTCHAR ograve
ENCODING 242
SWIDTH 602 0
DWIDTH 8 0
BBX 6 12 1 0
BITMAP
60
20
10
00
78
CC
84
84
84
84
CC
78
ENDCHAR
STARTCHAR oacute
ENCODING 243
SWIDTH 602 0
DWIDTH 8 0
BBX 6 12 1 0
BITMAP
18
10
20
00
78
CC
84
84
84
84
CC
78
ENDCHAR
STARTCHAR ocircumflex
ENCODING 244
SWIDTH 602 0
DWIDTH 8 0
BBX 6 12 1 0
BITMAP
30
30
48
00
78
CC
84
84
84
84
CC
78
ENDCHAR
STARTCHAR otilde
ENCODING 245
SWIDTH 602 0
DWIDTH 8 0
BBX 6 11 1 0
BITMAP
68
58
00
78
CC
84
84
84
84
CC
78
ENDCHAR
STARTCHAR odieresis
ENCODING 246
SWIDTH 602 0
DWIDTH 8 0
BBX 6 11 1 0
BITMAP
48
00
00
78
CC
84
84
84
84
CC
78
ENDCHAR
STARTCHAR divide
ENCODING 247
SWIDTH 602 0
DWIDTH 8 0
BBX 8 7 0 1
BITMAP
18
18
00
FF
00
18
18
ENDCHAR
STARTCHAR oslash
ENCODING 248
SWIDTH 602 0
DWIDTH 8 0
BBX 6 8 1 0
BITMAP
7C
CC
8C
94
A4
C4
C8
F8
ENDCHAR
STARTCHAR ugrave
ENCODING 249
SWIDTH 602 0
DWIDTH 8 0
BBX 6 12 1 0
BITMAP
60
20
10
00
84
84
84
84
84
84
8C
74
ENDCHAR
STARTCHAR uacute
ENCODING 250
SWIDTH 602 0
DWIDTH 8 0
BBX 6 12 1 0
BITMAP
18
10
20
00
84
84
84
84
84
84
8C
74
ENDCHAR
STARTCHAR ucircumflex
ENCODING 251
SWIDTH 602 0
DWIDTH 8 0
BBX 6 12 1 0
BITMAP
30
30
48
00
84
84
84
84
84
84
8C
74
ENDCHAR
STARTCHAR udieresis
ENCODING 252
SWIDTH 602 0
DWIDTH 8 0
BBX 6 11 1 0
BITMAP
48
00
00
84
84
84
84
84
84
8C
74
ENDCHAR
STARTCHAR yacute
ENCODING 253
SWIDTH 602 0
DWIDTH 8 0
BBX 6 15 1 -3
BITMAP
18
10
20
00
84
44
48
48
28
30
10
10
10
20
60
ENDCHAR
STARTCHAR thorn
ENCODING 254
SWIDTH 602 0
DWIDTH 8 0
BBX 6 14 1 -3
BITMAP
80
80
80
B8
C8
84
84
84
84
C8
F8
80
80
80
ENDCHAR
STARTCHAR ydieresis
ENCODING 255
SWIDTH 602 0
DWIDTH 8 0
BBX 6 14 1 -3
BITMAP
50
00
00
84
44
48
48
28
30
10
10
10
20
60
ENDCHAR
STARTCHAR Amacron
ENCODING 256
SWIDTH 602 0
DWIDTH 8 0
BBX 7 13 1 0
BITMAP
38
00
00
10
28
28
28
28
44
7C
44
82
82
ENDCHAR
STARTCHAR amacron
ENCODING 257
SWIDTH 602 0
DWIDTH 8 0
BBX 6 10 1 0
BITMAP
78
00
38
44
04
7C
84
84
8C
74
ENDCHAR
STARTCHAR Abreve
ENCODING 258
SWIDTH 602 0
DWIDTH 8 0
BBX 7 13 1 0
BITMAP
44
38
00
10
28
28
28
28
44
7C
44
82
82
ENDCHAR
STARTCHAR abreve
ENCODING 259
SWIDTH 602 0
DWIDTH 8 0
BBX 6 11 1 0
BITMAP
48
30
00
38
44
04
7C
84
84
8C
74
ENDCHAR
STARTCHAR Aogonek
ENCODING 260
SWIDTH 602 0
DWIDTH 8 0
BBX 8 13 1 -3
BITMAP
10
28
28
28
28
44
7C
44
82
82
04
04
07
ENDCHAR
STARTCHAR aogonek
ENCODING 261
SWIDTH 602 0
DWIDTH 8 0
BBX 7 11 1 -3
BITMAP
38
44
04
7C
84
84
8C
74
08
08
0E
ENDCHAR
STARTCHAR Cacute
ENCODING 262
SWIDTH 602 0
DWIDTH 8 0
BBX 7 13 1 0
BITMAP
0C
18
00
3C
42
80
80
80
80
80
80
42
3C
ENDCHAR
STARTCHAR cacute
ENCODING 263
SWIDTH 602 0
DWIDTH 8 0
BBX 6 12 1 0
BITMAP
0C
08
10
00
38
44
80
80
80
80
44
38
ENDCHAR
STARTCHAR Ccircumflex
ENCODING 264
SWIDTH 602 0
DWIDTH 8 0
BBX 7 13 1 0
BITMAP
18
24
00
3C
42
80
80
80
80
80
80
42
3C
ENDCHAR
STARTCHAR ccircumflex
ENCODING 265
SWIDTH 602 0
DWIDTH 8 0
BBX 6 12 1 0
BITMAP
18
18
24
00
38
44
80
80
80
80
44
38
ENDCHAR
STARTCHAR Cdotaccent
ENCODING 266
SWIDTH 602 0
DWIDTH 8 0
BBX 7 12 1 0
BITMAP
08
00
3C
42
80
80
80
80
80
80
42
3C
ENDCHAR
STARTCHAR cdotaccent
ENCODING 267
SWIDTH 602 0
DWIDTH 8 0
BBX 6 11 1 0
BITMAP
08
00
00
38
44
80
80
80
80
44
38
ENDCHAR
STARTCHAR Ccaron
ENCODING 268
SWIDTH 602 0
DWIDTH 8 0
BBX 7 13 1 0
BITMAP
24
18
00
3C
42
80
80
80
80
80
80
42
3C
ENDCHAR
STARTCHAR ccaron
ENCODING 269
SWIDTH 602 0
DWIDTH 8 0
BBX 6 12 1 0
BITMAP
24
18
18
00
38
44
80
80
80
80
44
38
ENDCHAR
STARTCHAR Dcaron
ENCODING 270
SWIDTH 602 0
DWIDTH 8 0
BBX 7 13 1 0
BITMAP
90
60
00
F8
84
82
82
82
82
82
82
84
F8
ENDCHAR
STARTCHAR dcaron
ENCODING 271
SWIDTH 602 0
DWIDTH 8 0
BBX 9 11 1 0
BITMAP
0580
0580
0500
7C00
4C00
8400
8400
8400
8400
4C00
7400
ENDCHAR
STARTCHAR Dcroat
ENCODING 272
SWIDTH 602 0
DWIDTH 8 0
BBX 8 10 0 0
BITMAP
7C
42
41
41
F1
41
41
41
42
7C
ENDCHAR
STARTCHAR dcroat
ENCODING 273
SWIDTH 602 0
DWIDTH 8 0
BBX 7 11 1 0
BITMAP
04
1E
04
7C
4C
84
84
84
84
4C
74
ENDCHAR
STARTCHAR Emacron
ENCODING 274
SWIDTH 602 0
DWIDTH 8 0
BBX 7 13 1 0
BITMAP
78
00
00
FE
80
80
80
FE
80
80
80
80
FE
ENDCHAR
STARTCHAR emacron
ENCODING 275
SWIDTH 602 0
DWIDTH 8 0
BBX 6 10 1 0
BITMAP
78
00
78
4C
84
FC
80
80
44
38
ENDCHAR
STARTCHAR Ebreve
ENCODING 276
SWIDTH 602 0
DWIDTH 8 0
BBX 7 13 1 0
BITMAP
48
30
00
FE
80
80
80
FE
80
80
80
80
FE
ENDCHAR
STARTCHAR ebreve
ENCODING 277
SWIDTH 602 0
DWIDTH 8 0
BBX 6 11 1 0
BITMAP
48
30
00
78
4C
84
FC
80
80
44
38
ENDCHAR
STARTCHAR Edotaccent
ENCODING 278
SWIDTH 602 0
DWIDTH 8 0
BBX 7 12 1 0
BITMAP
10
00
FE
80
80
80
FE
80
80
80
80
FE
ENDCHAR
STARTCHAR edotaccent
ENCODING 279
SWIDTH 602 0
DWIDTH 8 0
BBX 6 11 1 0
BITMAP
10
00
00
78
4C
84
FC
80
80
44
38
ENDCHAR
STARTCHAR Eogonek
ENCODING 280
SWIDTH 602 0
DWIDTH 8 0
BBX 7 13 1 -3
BITMAP
FE
80
80
80
FE
80
80
80
80
FE
08
08
0E
ENDCHAR
STARTCHAR eogonek
ENCODING 281
SWIDTH 602 0
DWIDTH 8 0
BBX 7 11 1 -3
BITMAP
78
4C
84
FC
80
80
44
38
08
08
0E
ENDCHAR
STARTCHAR Ecaron
ENCODING 282
SWIDTH 602 0
DWIDTH 8 0
BBX 7 13 1 0
BITMAP
48
30
00
FE
80
80
80
FE
80
80
80
80
FE
ENDCHAR
STARTCHAR ecaron
ENCODING 283
SWIDTH 602 0
DWIDTH 8 0
BBX 6 12 1 0
BITMAP
48
30
30
00
78
4C
84
FC
80
80
44
38
ENDCHAR
STARTCHAR Gcircumflex
ENCODING 284
SWIDTH 602 0
DWIDTH 8 0
BBX 7 13 1 0
BITMAP
30
48
00
3C
42
80
80
80
86
82
82
42
3C
ENDCHAR
STARTCHAR gcircumflex
ENCODING 285
SWIDTH 602 0
DWIDTH 8 0
BBX 6 15 1 -3
BITMAP
30
30
48
00
74
4C
84
84
84
84
4C
74
04
44
38
ENDCHAR
STARTCHAR Gbreve
ENCODING 286
SWIDTH 602 0
DWIDTH 8 0
BBX 7 13 1 0
BITMAP
48
30
00
3C
42
80
80
80
86
82
82
42
3C
ENDCHAR
STARTCHAR gbreve
ENCODING 287
SWIDTH 602 0
DWIDTH 8 0
BBX 6 14 1 -3
BITMAP
48
30
00
74
4C
84
84
84
84
4C
74
04
44
38
ENDCHAR
STARTCHAR Gdotaccent
ENCODING 288
SWIDTH 602 0
DWIDTH 8 0
BBX 7 12 1 0
BITMAP
10
00
3C
42
80
80
80
86
82
82
42
3C
ENDCHAR
STARTCHAR gdotaccent
ENCODING 289
SWIDTH 602 0
DWIDTH 8 0
BBX 6 14 1 -3
BITMAP
10
00
00
74
4C
84
84
84
84
4C
74
04
44
38
ENDCHAR
STARTCHAR Gcommaaccent
ENCODING 290
SWIDTH 602 0
DWIDTH 8 0
BBX 7 14 1 -4
BITMAP
3C
42
80
80
80
86
82
82
42
3C
00
00
18
10
ENDCHAR
STARTCHAR gcommaaccent
ENCODING 291
SWIDTH 602 0
DWIDTH 8 0
BBX 6 14 1 -3
BITMAP
10
10
00
74
4C
84
84
84
84
4C
74
04
44
38
ENDCHAR
STARTCHAR Hcircumflex
ENCODING 292
SWIDTH 602 0
DWIDTH 8 0
BBX 7 13 1 0
BITMAP
10
28
00
82
82
82
82
FE
82
82
82
82
82
ENDCHAR
STARTCHAR hcircumflex
ENCODING 293
SWIDTH 602 0
DWIDTH 8 0
BBX 6 14 1 0
BITMAP
30
48
00
80
80
80
B8
C4
84
84
84
84
84
84
ENDCHAR
STARTCHAR Hbar
ENCODING 294
SWIDTH 602 0
DWIDTH 8 0
BBX 9 10 0 0
BITMAP
4100
FF80
4100
4100
7F00
4100
4100
4100
4100
4100
ENDCHAR
STARTCHAR hbar
ENCODING 295
SWIDTH 602 0
DWIDTH 8 0
BBX 7 11 0 0
BITMAP
40
F0
40
5C
62
42
42
42
42
42
42
ENDCHAR
STARTCHAR Itilde
ENCODING 296
SWIDTH 602 0
DWIDTH 8 0
BBX 5 13 2 0
BITMAP
E8
B8
00
F8
20
20
20
20
20
20
20
20
F8
ENDCHAR
STARTCHAR itilde
ENCODING 297
SWIDTH 602 0
DWIDTH 8 0
BBX 7 11 1 0
BITMAP
74
5C
00
70
10
10
10
10
10
10
FE
ENDCHAR
STARTCHAR Imacron
ENCODING 298
SWIDTH 602 0
DWIDTH 8 0
BBX 5 13 2 0
BITMAP
70
00
00
F8
20
20
20
20
20
20
20
20
F8
ENDCHAR
STARTCHAR imacron
ENCODING 299
SWIDTH 602 0
DWIDTH 8 0
BBX 7 10 1 0
BITMAP
78
00
70
10
10
10
10
10
10
FE
ENDCHAR
STARTCHAR Ibreve
ENCODING 300
SWIDTH 602 0
DWIDTH 8 0
BBX 5 13 2 0
BITMAP
50
70
00
F8
20
20
20
20
20
20
20
20
F8
ENDCHAR
STARTCHAR ibreve
ENCODING 301
SWIDTH 602 0
DWIDTH 8 0
BBX 7 11 1 0
BITMAP
48
30
00
70
10
10
10
10
10
10
FE
ENDCHAR
STARTCHAR Iogonek
ENCODING 302
SWIDTH 602 0
DWIDTH 8 0
BBX 5 13 2 -3
BITMAP
F8
20
20
20
20
20
20
20
20
F8
40
40
70
ENDCHAR
STARTCHAR iogonek
ENCODING 303
SWIDTH 602 0
DWIDTH 8 0
BBX 7 14 1 -3
BITMAP
10
10
00
70
10
10
10
10
10
10
FE
10
10
1C
ENDCHAR
STARTCHAR Idotaccent
ENCODING 304
SWIDTH 602 0
DWIDTH 8 0
BBX 5 12 2 0
BITMAP
20
00
F8
20
20
20
20
20
20
20
20
F8
ENDCHAR
STARTCHAR dotlessi
ENCODING 305
SWIDTH 602 0
DWIDTH 8 0
BBX 7 8 1 0
BITMAP
70
10
10
10
10
10
10
FE
ENDCHAR
STARTCHAR IJ
ENCODING 306
SWIDTH 602 0
DWIDTH 8 0
BBX 8 10 0 0
BITMAP
FF
21
21
21
21
21
21
21
29
FE
ENDCHAR
STARTCHAR ij
ENCODING 307
SWIDTH 602 0
DWIDTH 8 0
BBX 7 14 0 -3
BITMAP
22
22
00
EE
22
22
22
22
22
22
FA
02
02
1C
ENDCHAR
STARTCHAR Jcircumflex
ENCODING 308
SWIDTH 602 0
DWIDTH 8 0
BBX 6 13 1 0
BITMAP
30
48
00
3C
04
04
04
04
04
04
04
8C
78
ENDCHAR
STARTCHAR jcircumflex
ENCODING 309
SWIDTH 602 0
DWIDTH 8 0
BBX 5 15 1 -3
BITMAP
30
30
48
00
70
10
10
10
10
10
10
10
10
10
E0
ENDCHAR
STARTCHAR Kcommaaccent
ENCODING 310
SWIDTH 602 0
DWIDTH 8 0
BBX 7 14 1 -4
BITMAP
84
88
90
A0
E0
90
98
88
84
82
00
00
18
10
ENDCHAR
STARTCHAR kcommaaccent
ENCODING 311
SWIDTH 602 0
DWIDTH 8 0
BBX 6 15 1 -4
BITMAP
80
80
80
88
90
A0
E0
90
90
88
84
00
00
18
10
ENDCHAR
STARTCHAR kgreenlandic
ENCODING 312
SWIDTH 602 0
DWIDTH 8 0
BBX 6 8 1 0
BITMAP
88
90
A0
E0
90
90
88
84
ENDCHAR
STARTCHAR Lacute
ENCODING 313
SWIDTH 602 0
DWIDTH 8 0
BBX 7 13 1 0
BITMAP
60
C0
00
80
80
80
80
80
80
80
80
80
FE
ENDCHAR
STARTCHAR lacute
ENCODING 314
SWIDTH 602 0
DWIDTH 8 0
BBX 7 14 0 0
BITMAP
18
30
00
F0
10
10
10
10
10
10
10
10
10
0E
ENDCHAR
STARTCHAR Lcommaaccent
ENCODING 315
SWIDTH 602 0
DWIDTH 8 0
BBX 7 14 1 -4
BITMAP
80
80
80
80
80
80
80
80
80
FE
00
00
18
10
ENDCHAR
STARTCHAR lcommaaccent
ENCODING 316
SWIDTH 602 0
DWIDTH 8 0
BBX 7 15 0 -4
BITMAP
F0
10
10
10
10
10
10
10
10
10
0E
00
00
18
10
ENDCHAR
STARTCHAR Lcaron
ENCODING 317
SWIDTH 602 0
DWIDTH 8 0
BBX 7 11 1 0
BITMAP
18
98
90
80
80
80
80
80
80
80
FE
ENDCHAR
STARTCHAR lcaron
ENCODING 318
SWIDTH 602 0
DWIDTH 8 0
BBX 8 12 0 0
BITMAP
03
F3
12
10
10
10
10
10
10
10
10
0E
ENDCHAR
STARTCHAR Ldot
ENCODING 319
SWIDTH 602 0
DWIDTH 8 0
BBX 7 10 1 0
BITMAP
80
80
80
8C
8C
80
80
80
80
FE
ENDCHAR
STARTCHAR ldot
ENCODING 320
SWIDTH 602 0
DWIDTH 8 0
BBX 8 11 0 0
BITMAP
F0
10
10
10
13
13
10
10
10
10
0E
ENDCHAR
STARTCHAR Lslash
ENCODING 321
SWIDTH 602 0
DWIDTH 8 0
BBX 8 10 0 0
BITMAP
40
40
40
58
60
40
C0
40
40
7F
ENDCHAR
STARTCHAR lslash
ENCODING 322
SWIDTH 602 0
DWIDTH 8 0
BBX 6 11 1 0
BITMAP
E0
20
20
2C
30
60
E0
20
20
20
1C
ENDCHAR
STARTCHAR Nacute
ENCODING 323
SWIDTH 602 0
DWIDTH 8 0
BBX 7 13 1 0
BITMAP
18
30
00
C2
C2
A2
A2
92
92
8A
8A
86
86
ENDCHAR
STARTCHAR nacute
ENCODING 324
SWIDTH 602 0
DWIDTH 8 0
BBX 6 12 1 0
BITMAP
18
10
20
00
B8
C4
84
84
84
84
84
84
ENDCHAR
STARTCHAR Ncommaaccent
ENCODING 325
SWIDTH 602 0
DWIDTH 8 0
BBX 7 14 1 -4
BITMAP
C2
C2
A2
A2
92
92
8A
8A
86
86
00
00
30
20
ENDCHAR
STARTCHAR ncommaaccent
ENCODING 326
SWIDTH 602 0
DWIDTH 8 0
BBX 6 12 1 -4
BITMAP
B8
C4
84
84
84
84
84
84
00
00
30
20
ENDCHAR
STARTCHAR Ncaron
ENCODING 327
SWIDTH 602 0
DWIDTH 8 0
BBX 7 13 1 0
BITMAP
48
30
00
C2
C2
A2
A2
92
92
8A
8A
86
86
ENDCHAR
STARTCHAR ncaron
ENCODING 328
SWIDTH 602 0
DWIDTH 8 0
BBX 6 12 1 0
BITMAP
48
30
30
00
B8
C4
84
84
84
84
84
84
ENDCHAR
STARTCHAR napostrophe
ENCODING 329
SWIDTH 602 0
DWIDTH 8 0
BBX 8 11 0 0
BITMAP
60
60
40
AE
31
21
21
21
21
21
21
ENDCHAR
STARTCHAR Eng
ENCODING 330
SWIDTH 602 0
DWIDTH 8 0
BBX 7 13 1 -3
BITMAP
BC
C6
82
82
82
82
82
82
82
82
02
02
1C
ENDCHAR
STARTCHAR eng
ENCODING 331
SWIDTH 602 0
DWIDTH 8 0
BBX 6 11 1 -3
BITMAP
B8
C4
84
84
84
84
84
84
04
04
38
ENDCHAR
STARTCHAR Omacron
ENCODING 332
SWIDTH 602 0
DWIDTH 8 0
BBX 7 13 1 0
BITMAP
38
00
00
38
44
82
82
82
82
82
82
44
38
ENDCHAR
STARTCHAR omacron
ENCODING 333
SWIDTH 602 0
DWIDTH 8 0
BBX 6 10 1 0
BITMAP
78
00
78
CC
84
84
84
84
CC
78
ENDCHAR
STARTCHAR Obreve
ENCODING 334
SWIDTH 602 0
DWIDTH 8 0
BBX 7 13 1 0
BITMAP
28
38
00
38
44
82
82
82
82
82
82
44
38
ENDCHAR
STARTCHAR obreve
ENCODING 335
SWIDTH 602 0
DWIDTH 8 0
BBX 6 11 1 0
BITMAP
48
30
00
78
CC
84
84
84
84
CC
78
ENDCHAR
STARTCHAR Ohungarumlaut
ENCODING 336
SWIDTH 602 0
DWIDTH 8 0
BBX 7 13 1 0
BITMAP
3C
78
00
38
44
82
82
82
82
82
82
44
38
ENDCHAR
STARTCHAR ohungarumlaut
ENCODING 337
SWIDTH 602 0
DWIDTH 8 0
BBX 6 11 1 0
BITMAP
2C
48
50
78
CC
84
84
84
84
CC
78
ENDCHAR
STARTCHAR OE
ENCODING 338
SWIDTH 602 0
DWIDTH 8 0
BBX 7 10 1 0
BITMAP
7E
D0
90
90
9E
90
90
90
D0
7E
ENDCHAR
STARTCHAR oe
ENCODING 339
SWIDTH 602 0
DWIDTH 8 0
BBX 6 8 1 0
BITMAP
58
A4
A4
BC
A0
A0
A0
5C
ENDCHAR
STARTCHAR Racute
ENCODING 340
SWIDTH 602 0
DWIDTH 8 0
BBX 8 13 1 0
BITMAP
30
60
00
FC
86
82
82
86
F8
84
82
82
81
ENDCHAR
STARTCHAR racute
ENCODING 341
SWIDTH 602 0
DWIDTH 8 0
BBX 5 12 2 0
BITMAP
18
10
20
00
F0
C8
80
80
80
80
80
80
ENDCHAR
STARTCHAR Rcommaaccent
ENCODING 342
SWIDTH 602 0
DWIDTH 8 0
BBX 8 14 1 -4
BITMAP
FC
86
82
82
86
F8
84
82
82
81
00
00
18
10
ENDCHAR
STARTCHAR rcommaaccent
ENCODING 343
SWIDTH 602 0
DWIDTH 8 0
BBX 5 12 2 -4
BITMAP
F0
C8
80
80
80
80
80
80
00
00
C0
80
ENDCHAR
STARTCHAR Rcaron
ENCODING 344
SWIDTH 602 0
DWIDTH 8 0
BBX 8 13 1 0
BITMAP
48
30
00
FC
86
82
82
86
F8
84
82
82
81
ENDCHAR
STARTCHAR rcaron
ENCODING 345
SWIDTH 602 0
DWIDTH 8 0
BBX 5 12 2 0
BITMAP
48
30
30
00
F0
C8
80
80
80
80
80
80
ENDCHAR
STARTCHAR Sacute
ENCODING 346
SWIDTH 602 0
DWIDTH 8 0
BBX 7 13 1 0
BITMAP
18
30
00
3C
C2
80
80
60
1C
02
02
86
7C
ENDCHAR
STARTCHAR sacute
ENCODING 347
SWIDTH 602 0
DWIDTH 8 0
BBX 6 12 1 0
BITMAP
18
10
20
00
78
84
80
E0
1C
04
84
78
ENDCHAR
STARTCHAR Scircumflex
ENCODING 348
SWIDTH 602 0
DWIDTH 8 0
BBX 7 13 1 0
BITMAP
30
48
00
3C
C2
80
80
60
1C
02
02
86
7C
ENDCHAR
STARTCHAR scircumflex
ENCODING 349
SWIDTH 602 0
DWIDTH 8 0
BBX 6 12 1 0
BITMAP
30
30
48
00
78
84
80
E0
1C
04
84
78
ENDCHAR
STARTCHAR Scedilla
ENCODING 350
SWIDTH 602 0
DWIDTH 8 0
BBX 7 13 1 -3
BITMAP
3C
C2
80
80
60
1C
02
02
86
7C
08
08
38
ENDCHAR
STARTCHAR scedilla
ENCODING 351
SWIDTH 602 0
DWIDTH 8 0
BBX 6 11 1 -3
BITMAP
78
84
80
E0
1C
04
84
78
08
08
38
ENDCHAR
STARTCHAR Scaron
ENCODING 352
SWIDTH 602 0
DWIDTH 8 0
BBX 7 13 1 0
BITMAP
48
30
00
3C
C2
80
80
60
1C
02
02
86
7C
ENDCHAR
STARTCHAR scaron
ENCODING 353
SWIDTH 602 0
DWIDTH 8 0
BBX 6 12 1 0
BITMAP
48
30
30
00
78
84
80
E0
1C
04
84
78
ENDCHAR
STARTCHAR Tcommaaccent
ENCODING 354
SWIDTH 602 0
DWIDTH 8 0
BBX 7 13 1 -3
BITMAP
FE
10
10
10
10
10
10
10
10
10
08
08
38
ENDCHAR
STARTCHAR tcommaaccent
ENCODING 355
SWIDTH 602 0
DWIDTH 8 0
BBX 6 13 1 -3
BITMAP
20
20
FC
20
20
20
20
20
20
1C
04
04
1C
ENDCHAR
STARTCHAR Tcaron
ENCODING 356
SWIDTH 602 0
DWIDTH 8 0
BBX 7 13 1 0
BITMAP
28
10
00
FE
10
10
10
10
10
10
10
10
10
ENDCHAR
STARTCHAR tcaron
ENCODING 357
SWIDTH 602 0
DWIDTH 8 0
BBX 6 12 1 0
BITMAP
0C
0C
28
20
FC
20
20
20
20
20
20
1C
ENDCHAR
STARTCHAR Tbar
ENCODING 358
SWIDTH 602 0
DWIDTH 8 0
BBX 7 10 1 0
BITMAP
FE
10
10
10
10
7C
10
10
10
10
ENDCHAR
STARTCHAR tbar
ENCODING 359
SWIDTH 602 0
DWIDTH 8 0
BBX 6 10 1 0
BITMAP
20
20
FC
20
20
F8
20
20
20
1C
ENDCHAR
STARTCHAR Utilde
ENCODING 360
SWIDTH 602 0
DWIDTH 8 0
BBX 7 13 1 0
BITMAP
74
5C
00
82
82
82
82
82
82
82
82
C6
7C
ENDCHAR
STARTCHAR utilde
ENCODING 361
SWIDTH 602 0
DWIDTH 8 0
BBX 6 11 1 0
BITMAP
68
58
00
84
84
84
84
84
84
8C
74
ENDCHAR
STARTCHAR Umacron
ENCODING 362
SWIDTH 602 0
DWIDTH 8 0
BBX 7 13 1 0
BITMAP
38
00
00
82
82
82
82
82
82
82
82
C6
7C
ENDCHAR
STARTCHAR umacron
ENCODING 363
SWIDTH 602 0
DWIDTH 8 0
BBX 6 10 1 0
BITMAP
78
00
84
84
84
84
84
84
8C
74
ENDCHAR
STARTCHAR Ubreve
ENCODING 364
SWIDTH 602 0
DWIDTH 8 0
BBX 7 13 1 0
BITMAP
28
38
00
82
82
82
82
82
82
82
82
C6
7C
ENDCHAR
STARTCHAR ubreve
ENCODING 365
SWIDTH 602 0
DWIDTH 8 0
BBX 6 11 1 0
BITMAP
48
30
00
84
84
84
84
84
84
8C
74
ENDCHAR
STARTCHAR Uring
ENCODING 366
SWIDTH 602 0
DWIDTH 8 0
BBX 7 15 1 0
BITMAP
30
48
48
30
00
82
82
82
82
82
82
82
82
C6
7C
ENDCHAR
STARTCHAR uring
ENCODING 367
SWIDTH 602 0
DWIDTH 8 0
BBX 6 13 1 0
BITMAP
30
48
48
30
00
84
84
84
84
84
84
8C
74
ENDCHAR
STARTCHAR Uhungarumlaut
ENCODING 368
SWIDTH 602 0
DWIDTH 8 0
BBX 7 13 1 0
BITMAP
3C
78
00
82
82
82
82
82
82
82
82
C6
7C
ENDCHAR
STARTCHAR uhungarumlaut
ENCODING 369
SWIDTH 602 0
DWIDTH 8 0
BBX 6 11 1 0
BITMAP
2C
48
50
84
84
84
84
84
84
8C
74
ENDCHAR
STARTCHAR Uogonek
ENCODING 370
SWIDTH 602 0
DWIDTH 8 0
BBX 7 13 1 -3
BITMAP
82
82
82
82
82
82
82
82
C6
7C
20
20
38
ENDCHAR
STARTCHAR uogonek
ENCODING 371
SWIDTH 602 0
DWIDTH 8 0
BBX 8 11 1 -3
BITMAP
84
84
84
84
84
84
8C
74
04
04
07
ENDCHAR
STARTCHAR Wcircumflex
ENCODING 372
SWIDTH 602 0
DWIDTH 8 0
BBX 8 13 0 0
BITMAP
18
28
00
81
81
81
99
5A
5A
5A
24
24
24
ENDCHAR
STARTCHAR wcircumflex
ENCODING 373
SWIDTH 602 0
DWIDTH 8 0
BBX 8 12 0 0
BITMAP
18
18
24
00
81
81
5A
5A
5A
5A
24
24
ENDCHAR
STARTCHAR Ycircumflex
ENCODING 374
SWIDTH 602 0
DWIDTH 8 0
BBX 7 13 1 0
BITMAP
10
28
00
82
44
44
28
38
10
10
10
10
10
ENDCHAR
STARTCHAR ycircumflex
ENCODING 375
SWIDTH 602 0
DWIDTH 8 0
BBX 6 15 1 -3
BITMAP
30
30
48
00
84
44
48
48
28
30
10
10
10
20
60
ENDCHAR
STARTCHAR Ydieresis
ENCODING 376
SWIDTH 602 0
DWIDTH 8 0
BBX 7 12 1 0
BITMAP
28
00
82
44
44
28
38
10
10
10
10
10
ENDCHAR
STARTCHAR Zacute
ENCODING 377
SWIDTH 602 0
DWIDTH 8 0
BBX 7 13 1 0
BITMAP
18
30
00
FE
06
04
08
10
10
20
40
C0
FE
ENDCHAR
STARTCHAR zacute
ENCODING 378
SWIDTH 602 0
DWIDTH 8 0
BBX 6 12 1 0
BITMAP
0C
08
10
00
FC
04
08
10
20
40
80
FC
ENDCHAR
STARTCHAR Zdotaccent
ENCODING 379
SWIDTH 602 0
DWIDTH 8 0
BBX 7 12 1 0
BITMAP
10
00
FE
06
04
08
10
10
20
40
C0
FE
ENDCHAR
STARTCHAR zdotaccent
ENCODING 380
SWIDTH 602 0
DWIDTH 8 0
BBX 6 11 1 0
BITMAP
10
00
00
FC
04
08
10
20
40
80
FC
ENDCHAR
STARTCHAR Zcaron
ENCODING 381
SWIDTH 602 0
DWIDTH 8 0
BBX 7 13 1 0
BITMAP
48
30
00
FE
06
04
08
10
10
20
40
C0
FE
ENDCHAR
STARTCHAR zcaron
ENCODING 382
SWIDTH 602 0
DWIDTH 8 0
BBX 6 12 1 0
BITMAP
48
30
30
00
FC
04
08
10
20
40
80
FC
ENDCHAR
STARTCHAR longs
ENCODING 383
SWIDTH 602 0
DWIDTH 8 0
BBX 6 11 1 0
BITMAP
1C
20
20
E0
20
20
20
20
20
20
20
ENDCHAR
STARTCHAR uni0180
ENCODING 384
SWIDTH 602 0
DWIDTH 8 0
BBX 8 11 0 0
BITMAP
60
F8
60
7C
66
62
63
63
62
62
7C
ENDCHAR
STARTCHAR uni0181
ENCODING 385
SWIDTH 602 0
DWIDTH 8 0
BBX 8 10 0 0
BITMAP
7E
A1
A1
21
3E
23
21
21
23
3E
ENDCHAR
STARTCHAR uni0182
ENCODING 386
SWIDTH 602 0
DWIDTH 8 0
BBX 7 10 1 0
BITMAP
FE
80
80
80
FC
86
82
82
86
FC
ENDCHAR
STARTCHAR uni0183
ENCODING 387
SWIDTH 602 0
DWIDTH 8 0
BBX 7 11 1 0
BITMAP
F8
F8
C0
F8
CC
C4
C6
C6
C4
C4
F8
ENDCHAR
STARTCHAR uni0184
ENCODING 388
SWIDTH 602 0
DWIDTH 8 0
BBX 7 10 1 0
BITMAP
40
C0
C0
C0
FC
C6
C2
C2
C6
FC
ENDCHAR
STARTCHAR uni0185
ENCODING 389
SWIDTH 602 0
DWIDTH 8 0
BBX 7 10 1 0
BITMAP
40
C0
D8
64
46
42
42
42
66
7C
ENDCHAR
STARTCHAR uni0186
ENCODING 390
SWIDTH 602 0
DWIDTH 8 0
BBX 7 10 1 0
BITMAP
78
84
02
02
02
02
02
02
84
78
ENDCHAR
STARTCHAR uni0187
ENCODING 391
SWIDTH 602 0
DWIDTH 8 0
BBX 8 11 0 0
BITMAP
03
1E
62
40
40
C0
C0
40
40
62
3E
ENDCHAR
STARTCHAR uni0188
ENCODING 392
SWIDTH 602 0
DWIDTH 8 0
BBX 7 10 1 0
BITMAP
02
04
3C
C4
80
80
80
80
C4
7C
ENDCHAR
STARTCHAR uni0189
ENCODING 393
SWIDTH 602 0
DWIDTH 8 0
BBX 8 10 0 0
BITMAP
7C
42
41
41
F1
41
41
41
42
7C
ENDCHAR
STARTCHAR uni018A
ENCODING 394
SWIDTH 602 0
DWIDTH 8 0
BBX 8 10 0 0
BITMAP
7E
B3
B1
31
31
31
31
31
32
3C
ENDCHAR
STARTCHAR uni018B
ENCODING 395
SWIDTH 602 0
DWIDTH 8 0
BBX 7 10 1 0
BITMAP
FE
06
06
06
7E
C6
86
86
C6
7E
ENDCHAR
STARTCHAR uni018C
ENCODING 396
SWIDTH 602 0
DWIDTH 8 0
BBX 6 11 1 0
BITMAP
7C
7C
04
34
4C
C4
84
84
C4
44
7C
ENDCHAR
STARTCHAR uni018D
ENCODING 397
SWIDTH 602 0
DWIDTH 8 0
BBX 6 11 1 -3
BITMAP
38
4C
C4
84
84
84
C4
78
0C
0C
78
ENDCHAR
STARTCHAR uni018E
ENCODING 398
SWIDTH 602 0
DWIDTH 8 0
BBX 7 10 1 0
BITMAP
FE
02
02
02
FE
02
02
02
02
FE
ENDCHAR
STARTCHAR uni018F
ENCODING 399
SWIDTH 602 0
DWIDTH 8 0
BBX 7 10 1 0
BITMAP
38
44
02
02
FE
82
82
82
44
38
ENDCHAR
STARTCHAR uni0190
ENCODING 400
SWIDTH 602 0
DWIDTH 8 0
BBX 6 10 1 0
BITMAP
7C
80
80
80
70
C0
80
80
C4
78
ENDCHAR
STARTCHAR uni0191
ENCODING 401
SWIDTH 602 0
DWIDTH 8 0
BBX 8 13 0 -3
BITMAP
1F
10
10
10
1F
10
10
10
10
10
10
30
E0
ENDCHAR
STARTCHAR florin
ENCODING 402
SWIDTH 602 0
DWIDTH 8 0
BBX 6 14 1 -3
BITMAP
0C
10
30
FC
30
30
30
30
30
30
30
30
20
60
ENDCHAR
STARTCHAR uni0193
ENCODING 403
SWIDTH 602 0
DWIDTH 8 0
BBX 8 11 0 0
BITMAP
03
3E
60
40
C0
C0
CE
C2
42
62
3E
ENDCHAR
STARTCHAR uni0194
ENCODING 404
SWIDTH 602 0
DWIDTH 8 0
BBX 7 12 1 -3
BITMAP
86
C4
68
38
30
38
68
4C
4C
C4
CC
7C
ENDCHAR
STARTCHAR uni0195
ENCODING 405
SWIDTH 602 0
DWIDTH 8 0
BBX 8 11 0 0
BITMAP
C0
C0
C0
F0
C8
C9
C9
C9
C9
CB
C6
ENDCHAR
STARTCHAR uni0196
ENCODING 406
SWIDTH 602 0
DWIDTH 8 0
BBX 6 10 1 0
BITMAP
FC
10
10
10
10
10
10
10
10
1C
ENDCHAR
STARTCHAR uni0197
ENCODING 407
SWIDTH 602 0
DWIDTH 8 0
BBX 6 10 1 0
BITMAP
FC
10
10
10
10
7C
10
10
10
FC
ENDCHAR
STARTCHAR uni0198
ENCODING 408
SWIDTH 602 0
DWIDTH 8 0
BBX 7 10 1 0
BITMAP
80
8E
98
B0
E0
D0
98
88
84
86
ENDCHAR
STARTCHAR uni0199
ENCODING 409
SWIDTH 602 0
DWIDTH 8 0
BBX 6 11 2 0
BITMAP
60
C0
80
8C
98
B0
E0
B0
90
88
8C
ENDCHAR
STARTCHAR uni019A
ENCODING 410
SWIDTH 602 0
DWIDTH 8 0
BBX 6 11 1 0
BITMAP
E0
20
20
20
20
20
78
20
20
30
1C
ENDCHAR
STARTCHAR uni019B
ENCODING 411
SWIDTH 602 0
DWIDTH 8 0
BBX 7 10 1 0
BITMAP
44
38
20
F0
B0
38
68
4C
C4
86
ENDCHAR
STARTCHAR uni019C
ENCODING 412
SWIDTH 602 0
DWIDTH 8 0
BBX 7 10 1 0
BITMAP
92
92
92
92
92
92
92
92
96
FE
ENDCHAR
STARTCHAR uni019D
ENCODING 413
SWIDTH 602 0
DWIDTH 8 0
BBX 7 13 0 -3
BITMAP
62
72
72
72
6A
6A
6A
66
66
66
40
40
C0
ENDCHAR
STARTCHAR uni019E
ENCODING 414
SWIDTH 602 0
DWIDTH 8 0
BBX 6 11 1 -3
BITMAP
F8
CC
C4
C4
C4
C4
C4
C4
04
04
04
ENDCHAR
STARTCHAR uni019F
ENCODING 415
SWIDTH 602 0
DWIDTH 8 0
BBX 7 10 1 0
BITMAP
78
C4
84
86
FE
FE
86
84
CC
78
ENDCHAR
STARTCHAR Ohorn
ENCODING 416
SWIDTH 602 0
DWIDTH 8 0
BBX 9 10 0 0
BITMAP
3880
4700
8200
8200
8200
8200
8200
8200
4400
3800
ENDCHAR
STARTCHAR ohorn
ENCODING 417
SWIDTH 602 0
DWIDTH 8 0
BBX 9 8 0 0
BITMAP
7800
CC80
8700
8400
8400
8400
CC00
7800
ENDCHAR
STARTCHAR uni01A2
ENCODING 418
SWIDTH 602 0
DWIDTH 8 0
BBX 8 10 0 0
BITMAP
7B
47
45
C5
C5
C5
C5
45
45
39
ENDCHAR
STARTCHAR uni01A3
ENCODING 419
SWIDTH 602 0
DWIDTH 8 0
BBX 7 11 1 -3
BITMAP
70
DE
8E
8A
8A
8A
8A
72
02
02
02
ENDCHAR
STARTCHAR uni01A4
ENCODING 420
SWIDTH 602 0
DWIDTH 8 0
BBX 8 10 0 0
BITMAP
7E
D3
91
11
13
1E
10
10
10
10
ENDCHAR
STARTCHAR uni01A5
ENCODING 421
SWIDTH 602 0
DWIDTH 8 0
BBX 7 13 1 -3
BITMAP
70
40
F8
CC
C4
C6
C6
C4
C4
F8
C0
C0
C0
ENDCHAR
STARTCHAR uni01A6
ENCODING 422
SWIDTH 602 0
DWIDTH 8 0
BBX 7 12 1 -2
BITMAP
80
80
FC
84
84
84
F8
98
8C
84
06
02
ENDCHAR
STARTCHAR uni01A7
ENCODING 423
SWIDTH 602 0
DWIDTH 8 0
BBX 6 10 1 0
BITMAP
7C
04
04
04
3C
E0
80
80
C0
7C
ENDCHAR
STARTCHAR uni01A8
ENCODING 424
SWIDTH 602 0
DWIDTH 8 0
BBX 6 8 1 0
BITMAP
78
4C
04
1C
70
C0
40
7C
ENDCHAR
STARTCHAR uni01A9
ENCODING 425
SWIDTH 602 0
DWIDTH 8 0
BBX 7 10 1 0
BITMAP
FE
C0
40
20
10
10
20
40
C0
FE
ENDCHAR
STARTCHAR uni01AA
ENCODING 426
SWIDTH 602 0
DWIDTH 8 0
BBX 7 14 1 -3
BITMAP
60
B0
F8
10
10
10
10
10
10
10
10
10
10
0E
ENDCHAR
STARTCHAR uni01AB
ENCODING 427
SWIDTH 602 0
DWIDTH 8 0
BBX 6 13 1 -3
BITMAP
20
20
FC
20
20
20
20
20
20
1C
04
0C
38
ENDCHAR
STARTCHAR uni01AC
ENCODING 428
SWIDTH 602 0
DWIDTH 8 0
BBX 8 10 0 0
BITMAP
7F
C8
88
08
08
08
08
08
08
08
ENDCHAR
STARTCHAR uni01AD
ENCODING 429
SWIDTH 602 0
DWIDTH 8 0
BBX 6 11 1 0
BITMAP
1C
30
20
FC
20
20
20
20
20
20
1C
ENDCHAR
STARTCHAR uni01AE
ENCODING 430
SWIDTH 602 0
DWIDTH 8 0
BBX 8 13 0 -3
BITMAP
FF
08
08
08
08
08
08
08
08
08
08
08
0E
ENDCHAR
STARTCHAR Uhorn
ENCODING 431
SWIDTH 602 0
DWIDTH 8 0
BBX 9 10 0 0
BITMAP
8280
8300
8200
8200
8200
8200
8200
8200
C600
7C00
ENDCHAR
STARTCHAR uhorn
ENCODING 432
SWIDTH 602 0
DWIDTH 8 0
BBX 9 8 0 0
BITMAP
8400
8480
8700
8400
8400
8400
8C00
7400
ENDCHAR
STARTCHAR uni01B1
ENCODING 433
SWIDTH 602 0
DWIDTH 8 0
BBX 7 10 1 0
BITMAP
EE
4C
C4
86
86
86
86
86
CC
78
ENDCHAR
STARTCHAR uni01B2
ENCODING 434
SWIDTH 602 0
DWIDTH 8 0
BBX 6 10 1 0
BITMAP
80
88
8C
84
84
84
84
84
C8
70
ENDCHAR
STARTCHAR uni01B3
ENCODING 435
SWIDTH 602 0
DWIDTH 8 0
BBX 8 10 0 0
BITMAP
C3
44
24
28
18
10
10
10
10
10
ENDCHAR
STARTCHAR uni01B4
ENCODING 436
SWIDTH 602 0
DWIDTH 8 0
BBX 8 11 0 -3
BITMAP
C1
42
46
64
24
3C
18
18
10
10
60
ENDCHAR
STARTCHAR uni01B5
ENCODING 437
SWIDTH 602 0
DWIDTH 8 0
BBX 7 10 1 0
BITMAP
FE
04
0C
08
10
7C
20
40
C0
FE
ENDCHAR
STARTCHAR uni01B6
ENCODING 438
SWIDTH 602 0
DWIDTH 8 0
BBX 6 8 1 0
BITMAP
7C
04
08
10
FC
60
40
FC
ENDCHAR
STARTCHAR uni01B7
ENCODING 439
SWIDTH 602 0
DWIDTH 8 0
BBX 8 10 0 0
BITMAP
7E
06
04
08
1E
03
01
C1
C3
7E
ENDCHAR
STARTCHAR uni01B8
ENCODING 440
SWIDTH 602 0
DWIDTH 8 0
BBX 8 10 0 0
BITMAP
7F
20
30
18
38
40
C0
C1
C3
7E
ENDCHAR
STARTCHAR uni01B9
ENCODING 441
SWIDTH 602 0
DWIDTH 8 0
BBX 7 11 1 -3
BITMAP
FC
C0
60
30
18
78
C0
80
80
C2
7C
ENDCHAR
STARTCHAR uni01BA
ENCODING 442
SWIDTH 602 0
DWIDTH 8 0
BBX 6 11 1 -3
BITMAP
FC
04
08
10
38
04
04
78
C0
C0
7C
ENDCHAR
STARTCHAR uni01BB
ENCODING 443
SWIDTH 602 0
DWIDTH 8 0
BBX 6 10 1 0
BITMAP
F8
0C
04
04
08
7C
30
60
C0
FC
ENDCHAR
STARTCHAR uni01BC
ENCODING 444
SWIDTH 602 0
DWIDTH 8 0
BBX 8 10 0 0
BITMAP
7F
60
60
60
7E
03
01
C1
43
7E
ENDCHAR
STARTCHAR uni01BD
ENCODING 445
SWIDTH 602 0
DWIDTH 8 0
BBX 7 11 1 -3
BITMAP
7C
7C
40
40
40
78
04
06
06
8C
F8
ENDCHAR
STARTCHAR uni01BE
ENCODING 446
SWIDTH 602 0
DWIDTH 8 0
BBX 6 10 1 0
BITMAP
20
20
F8
20
38
0C
04
04
0C
F8
ENDCHAR
STARTCHAR uni01BF
ENCODING 447
SWIDTH 602 0
DWIDTH 8 0
BBX 7 11 1 -3
BITMAP
BC
E4
C6
86
84
88
98
E0
C0
80
80
ENDCHAR
STARTCHAR uni01C0
ENCODING 448
SWIDTH 602 0
DWIDTH 8 0
BBX 1 10 4 0
BITMAP
80
80
80
80
80
80
80
80
80
80
ENDCHAR
STARTCHAR uni01C1
ENCODING 449
SWIDTH 602 0
DWIDTH 8 0
BBX 3 10 3 0
BITMAP
A0
A0
A0
A0
A0
A0
A0
A0
A0
A0
ENDCHAR
STARTCHAR uni01C2
ENCODING 450
SWIDTH 602 0
DWIDTH 8 0
BBX 6 10 1 0
BITMAP
10
10
10
FC
10
FC
F0
10
10
10
ENDCHAR
STARTCHAR uni01C3
ENCODING 451
SWIDTH 602 0
DWIDTH 8 0
BBX 1 10 4 0
BITMAP
80
80
80
80
80
80
00
00
80
80
ENDCHAR
STARTCHAR uni01CD
ENCODING 461
SWIDTH 602 0
DWIDTH 8 0
BBX 7 13 1 0
BITMAP
48
30
00
10
28
28
28
28
44
7C
44
82
82
ENDCHAR
STARTCHAR uni01CE
ENCODING 462
SWIDTH 602 0
DWIDTH 8 0
BBX 6 12 1 0
BITMAP
48
30
30
00
38
44
04
7C
84
84
8C
74
ENDCHAR
STARTCHAR uni01CF
ENCODING 463
SWIDTH 602 0
DWIDTH 8 0
BBX 5 13 2 0
BITMAP
90
60
00
F8
20
20
20
20
20
20
20
20
F8
ENDCHAR
STARTCHAR uni01D0
ENCODING 464
SWIDTH 602 0
DWIDTH 8 0
BBX 7 12 1 0
BITMAP
48
30
30
00
70
10
10
10
10
10
10
FE
ENDCHAR
STARTCHAR uni01D1
ENCODING 465
SWIDTH 602 0
DWIDTH 8 0
BBX 7 13 1 0
BITMAP
48
30
00
38
44
82
82
82
82
82
82
44
38
ENDCHAR
STARTCHAR uni01D2
ENCODING 466
SWIDTH 602 0
DWIDTH 8 0
BBX 6 12 1 0
BITMAP
48
30
30
00
78
CC
84
84
84
84
CC
78
ENDCHAR
STARTCHAR uni01D3
ENCODING 467
SWIDTH 602 0
DWIDTH 8 0
BBX 7 13 1 0
BITMAP
28
10
00
82
82
82
82
82
82
82
82
C6
7C
ENDCHAR
STARTCHAR uni01D4
ENCODING 468
SWIDTH 602 0
DWIDTH 8 0
BBX 6 12 1 0
BITMAP
48
30
30
00
84
84
84
84
84
84
8C
74
ENDCHAR
STARTCHAR uni01D5
ENCODING 469
SWIDTH 602 0
DWIDTH 8 0
BBX 7 13 1 0
BITMAP
78
00
28
82
82
82
82
82
82
82
82
C6
7C
ENDCHAR
STARTCHAR uni01D6
ENCODING 470
SWIDTH 602 0
DWIDTH 8 0
BBX 6 12 1 0
BITMAP
78
50
00
00
84
84
84
84
84
84
8C
74
ENDCHAR
STARTCHAR uni01D7
ENCODING 471
SWIDTH 602 0
DWIDTH 8 0
BBX 7 14 1 0
BITMAP
18
30
00
28
82
82
82
82
82
82
82
82
C6
7C
ENDCHAR
STARTCHAR uni01D8
ENCODING 472
SWIDTH 602 0
DWIDTH 8 0
BBX 6 14 1 0
BITMAP
18
10
20
50
00
00
84
84
84
84
84
84
8C
74
ENDCHAR
STARTCHAR uni01D9
ENCODING 473
SWIDTH 602 0
DWIDTH 8 0
BBX 7 14 1 0
BITMAP
48
30
00
28
82
82
82
82
82
82
82
82
C6
7C
ENDCHAR
STARTCHAR uni01DA
ENCODING 474
SWIDTH 602 0
DWIDTH 8 0
BBX 6 14 1 0
BITMAP
48
30
30
50
00
00
84
84
84
84
84
84
8C
74
ENDCHAR
STARTCHAR uni01DB
ENCODING 475
SWIDTH 602 0
DWIDTH 8 0
BBX 7 14 1 0
BITMAP
60
30
00
28
82
82
82
82
82
82
82
82
C6
7C
ENDCHAR
STARTCHAR uni01DC
ENCODING 476
SWIDTH 602 0
DWIDTH 8 0
BBX 6 14 1 0
BITMAP
60
20
10
48
00
00
84
84
84
84
84
84
8C
74
ENDCHAR
STARTCHAR uni01DD
ENCODING 477
SWIDTH 602 0
DWIDTH 8 0
BBX 6 8 1 0
BITMAP
70
88
04
04
FC
84
C8
78
ENDCHAR
STARTCHAR uni01DE
ENCODING 478
SWIDTH 602 0
DWIDTH 8 0
BBX 7 13 1 0
BITMAP
78
00
28
10
28
28
28
28
44
7C
44
82
82
ENDCHAR
STARTCHAR uni01DF
ENCODING 479
SWIDTH 602 0
DWIDTH 8 0
BBX 6 12 1 0
BITMAP
78
50
00
00
38
44
04
7C
84
84
8C
74
ENDCHAR
STARTCHAR uni01E0
ENCODING 480
SWIDTH 602 0
DWIDTH 8 0
BBX 7 13 1 0
BITMAP
78
00
10
10
28
28
28
28
44
7C
44
82
82
ENDCHAR
STARTCHAR uni01E1
ENCODING 481
SWIDTH 602 0
DWIDTH 8 0
BBX 6 12 1 0
BITMAP
78
10
00
00
38
44
04
7C
84
84
8C
74
ENDCHAR
STARTCHAR uni01E2
ENCODING 482
SWIDTH 602 0
DWIDTH 8 0
BBX 8 13 0 0
BITMAP
1E
00
00
3F
28
28
28
4F
48
78
48
88
8F
ENDCHAR
STARTCHAR uni01E3
ENCODING 483
SWIDTH 602 0
DWIDTH 8 0
BBX 6 10 1 0
BITMAP
78
00
D8
24
24
7C
A0
A0
A0
DC
ENDCHAR
STARTCHAR Gcaron
ENCODING 486
SWIDTH 602 0
DWIDTH 8 0
BBX 7 13 1 0
BITMAP
48
30
00
3C
42
80
80
80
86
82
82
42
3C
ENDCHAR
STARTCHAR gcaron
ENCODING 487
SWIDTH 602 0
DWIDTH 8 0
BBX 6 15 1 -3
BITMAP
48
30
30
00
74
4C
84
84
84
84
4C
74
04
44
38
ENDCHAR
STARTCHAR uni01E8
ENCODING 488
SWIDTH 602 0
DWIDTH 8 0
BBX 7 13 1 0
BITMAP
48
30
00
84
88
90
A0
E0
90
98
88
84
82
ENDCHAR
STARTCHAR uni01E9
ENCODING 489
SWIDTH 602 0
DWIDTH 8 0
BBX 6 13 1 0
BITMAP
48
30
80
80
80
88
90
A0
E0
90
90
88
84
ENDCHAR
STARTCHAR uni01EA
ENCODING 490
SWIDTH 602 0
DWIDTH 8 0
BBX 7 13 1 -3
BITMAP
38
44
82
82
82
82
82
82
44
38
20
20
38
ENDCHAR
STARTCHAR uni01EB
ENCODING 491
SWIDTH 602 0
DWIDTH 8 0
BBX 6 11 1 -3
BITMAP
78
CC
84
84
84
84
CC
78
20
20
38
ENDCHAR
STARTCHAR uni01EC
ENCODING 492
SWIDTH 602 0
DWIDTH 8 0
BBX 7 16 1 -3
BITMAP
78
00
00
38
44
82
82
82
82
82
82
44
38
20
20
38
ENDCHAR
STARTCHAR uni01ED
ENCODING 493
SWIDTH 602 0
DWIDTH 8 0
BBX 6 13 1 -3
BITMAP
78
00
78
CC
84
84
84
84
CC
78
20
20
38
ENDCHAR
STARTCHAR uni01EE
ENCODING 494
SWIDTH 602 0
DWIDTH 8 0
BBX 8 13 0 0
BITMAP
24
18
00
7E
06
04
08
1E
03
01
C1
C3
7E
ENDCHAR
STARTCHAR uni01EF
ENCODING 495
SWIDTH 602 0
DWIDTH 8 0
BBX 7 15 1 -3
BITMAP
48
30
30
00
FC
0C
08
10
20
38
04
06
06
8C
F8
ENDCHAR
STARTCHAR uni01F0
ENCODING 496
SWIDTH 602 0
DWIDTH 8 0
BBX 5 15 1 -3
BITMAP
48
30
30
00
70
10
10
10
10
10
10
10
10
10
E0
ENDCHAR
STARTCHAR uni01F4
ENCODING 500
SWIDTH 602 0
DWIDTH 8 0
BBX 7 13 1 0
BITMAP
0C
18
00
3C
42
80
80
80
86
82
82
42
3C
ENDCHAR
STARTCHAR uni01F5
ENCODING 501
SWIDTH 602 0
DWIDTH 8 0
BBX 6 15 1 -3
BITMAP
18
10
20
00
74
4C
84
84
84
84
4C
74
04
44
38
ENDCHAR
STARTCHAR uni01F6
ENCODING 502
SWIDTH 602 0
DWIDTH 8 0
BBX 8 10 0 0
BITMAP
C8
C8
C8
C8
F9
C9
C9
C9
C9
C6
ENDCHAR
STARTCHAR uni01F8
ENCODING 504
SWIDTH 602 0
DWIDTH 8 0
BBX 7 13 1 0
BITMAP
60
30
00
C2
C2
A2
A2
92
92
8A
8A
86
86
ENDCHAR
STARTCHAR uni01F9
ENCODING 505
SWIDTH 602 0
DWIDTH 8 0
BBX 6 12 1 0
BITMAP
60
20
10
00
B8
C4
84
84
84
84
84
84
ENDCHAR
STARTCHAR AEacute
ENCODING 508
SWIDTH 602 0
DWIDTH 8 0
BBX 8 13 0 0
BITMAP
03
06
00
3F
28
28
28
4F
48
78
48
88
8F
ENDCHAR
STARTCHAR aeacute
ENCODING 509
SWIDTH 602 0
DWIDTH 8 0
BBX 6 12 1 0
BITMAP
18
10
20
00
D8
24
24
7C
A0
A0
A0
DC
ENDCHAR
STARTCHAR Oslashacute
ENCODING 510
SWIDTH 602 0
DWIDTH 8 0
BBX 8 13 0 0
BITMAP
0C
18
00
1F
23
43
45
4D
59
71
61
62
BC
ENDCHAR
STARTCHAR oslashacute
ENCODING 511
SWIDTH 602 0
DWIDTH 8 0
BBX 6 12 1 0
BITMAP
18
10
20
00
7C
CC
8C
94
A4
C4
C8
F8
ENDCHAR
STARTCHAR uni0200
ENCODING 512
SWIDTH 602 0
DWIDTH 8 0
BBX 7 13 1 0
BITMAP
50
28
00
10
28
28
28
28
44
7C
44
82
82
ENDCHAR
STARTCHAR uni0201
ENCODING 513
SWIDTH 602 0
DWIDTH 8 0
BBX 6 11 1 0
BITMAP
50
28
00
38
44
04
7C
84
84
8C
74
ENDCHAR
STARTCHAR uni0202
ENCODING 514
SWIDTH 602 0
DWIDTH 8 0
BBX 7 13 1 0
BITMAP
38
48
00
10
28
28
28
28
44
7C
44
82
82
ENDCHAR
STARTCHAR uni0203
ENCODING 515
SWIDTH 602 0
DWIDTH 8 0
BBX 6 11 1 0
BITMAP
38
48
00
38
44
04
7C
84
84
8C
74
ENDCHAR
STARTCHAR uni0204
ENCODING 516
SWIDTH 602 0
DWIDTH 8 0
BBX 7 13 1 0
BITMAP
50
28
00
FE
80
80
80
FE
80
80
80
80
FE
ENDCHAR
STARTCHAR uni0205
ENCODING 517
SWIDTH 602 0
DWIDTH 8 0
BBX 6 11 1 0
BITMAP
50
28
00
78
4C
84
FC
80
80
44
38
ENDCHAR
STARTCHAR uni0206
ENCODING 518
SWIDTH 602 0
DWIDTH 8 0
BBX 7 13 1 0
BITMAP
38
48
00
FE
80
80
80
FE
80
80
80
80
FE
ENDCHAR
STARTCHAR uni0207
ENCODING 519
SWIDTH 602 0
DWIDTH 8 0
BBX 6 11 1 0
BITMAP
38
48
00
78
4C
84
FC
80
80
44
38
ENDCHAR
STARTCHAR uni0208
ENCODING 520
SWIDTH 602 0
DWIDTH 8 0
BBX 5 13 2 0
BITMAP
A0
50
00
F8
20
20
20
20
20
20
20
20
F8
ENDCHAR
STARTCHAR uni0209
ENCODING 521
SWIDTH 602 0
DWIDTH 8 0
BBX 7 11 1 0
BITMAP
50
28
00
70
10
10
10
10
10
10
FE
ENDCHAR
STARTCHAR uni020A
ENCODING 522
SWIDTH 602 0
DWIDTH 8 0
BBX 5 13 2 0
BITMAP
70
90
00
F8
20
20
20
20
20
20
20
20
F8
ENDCHAR
STARTCHAR uni020B
ENCODING 523
SWIDTH 602 0
DWIDTH 8 0
BBX 7 11 1 0
BITMAP
38
48
00
70
10
10
10
10
10
10
FE
ENDCHAR
STARTCHAR uni020C
ENCODING 524
SWIDTH 602 0
DWIDTH 8 0
BBX 7 13 1 0
BITMAP
50
28
00
38
44
82
82
82
82
82
82
44
38
ENDCHAR
STARTCHAR uni020D
ENCODING 525
SWIDTH 602 0
DWIDTH 8 0
BBX 6 11 1 0
BITMAP
50
28
00
78
CC
84
84
84
84
CC
78
ENDCHAR
STARTCHAR uni020E
ENCODING 526
SWIDTH 602 0
DWIDTH 8 0
BBX 7 13 1 0
BITMAP
38
48
00
38
44
82
82
82
82
82
82
44
38
ENDCHAR
STARTCHAR uni020F
ENCODING 527
SWIDTH 602 0
DWIDTH 8 0
BBX 6 11 1 0
BITMAP
38
48
00
78
CC
84
84
84
84
CC
78
ENDCHAR
STARTCHAR uni0210
ENCODING 528
SWIDTH 602 0
DWIDTH 8 0
BBX 8 13 1 0
BITMAP
50
28
00
FC
86
82
82
86
F8
84
82
82
81
ENDCHAR
STARTCHAR uni0211
ENCODING 529
SWIDTH 602 0
DWIDTH 8 0
BBX 5 11 2 0
BITMAP
50
28
00
F0
C8
80
80
80
80
80
80
ENDCHAR
STARTCHAR uni0212
ENCODING 530
SWIDTH 602 0
DWIDTH 8 0
BBX 8 13 1 0
BITMAP
38
48
00
FC
86
82
82
86
F8
84
82
82
81
ENDCHAR
STARTCHAR uni0213
ENCODING 531
SWIDTH 602 0
DWIDTH 8 0
BBX 5 11 2 0
BITMAP
38
48
00
F0
C8
80
80
80
80
80
80
ENDCHAR
STARTCHAR uni0214
ENCODING 532
SWIDTH 602 0
DWIDTH 8 0
BBX 7 13 1 0
BITMAP
50
28
00
82
82
82
82
82
82
82
82
C6
7C
ENDCHAR
STARTCHAR uni0215
ENCODING 533
SWIDTH 602 0
DWIDTH 8 0
BBX 6 11 1 0
BITMAP
50
28
00
84
84
84
84
84
84
8C
74
ENDCHAR
STARTCHAR uni0216
ENCODING 534
SWIDTH 602 0
DWIDTH 8 0
BBX 7 13 1 0
BITMAP
38
48
00
82
82
82
82
82
82
82
82
C6
7C
ENDCHAR
STARTCHAR uni0217
ENCODING 535
SWIDTH 602 0
DWIDTH 8 0
BBX 6 11 1 0
BITMAP
38
48
00
84
84
84
84
84
84
8C
74
ENDCHAR
STARTCHAR Scommaaccent
ENCODING 536
SWIDTH 602 0
DWIDTH 8 0
BBX 7 14 1 -4
BITMAP
3C
C2
80
80
60
1C
02
02
86
7C
00
00
30
20
ENDCHAR
STARTCHAR scommaaccent
ENCODING 537
SWIDTH 602 0
DWIDTH 8 0
BBX 6 12 1 -4
BITMAP
78
84
80
E0
1C
04
84
78
00
00
30
20
ENDCHAR
STARTCHAR uni021A
ENCODING 538
SWIDTH 602 0
DWIDTH 8 0
BBX 7 14 1 -4
BITMAP
FE
10
10
10
10
10
10
10
10
10
00
00
30
20
ENDCHAR
STARTCHAR uni021B
ENCODING 539
SWIDTH 602 0
DWIDTH 8 0
BBX 6 14 1 -4
BITMAP
20
20
FC
20
20
20
20
20
20
1C
00
00
18
10
ENDCHAR
STARTCHAR uni021C
ENCODING 540
SWIDTH 602 0
DWIDTH 8 0
BBX 7 13 1 -3
BITMAP
7C
84
04
04
08
38
44
06
06
0C
18
70
80
ENDCHAR
STARTCHAR uni021D
ENCODING 541
SWIDTH 602 0
DWIDTH 8 0
BBX 6 11 1 -3
BITMAP
38
CC
04
0C
18
6C
04
04
0C
30
C0
ENDCHAR
STARTCHAR uni021E
ENCODING 542
SWIDTH 602 0
DWIDTH 8 0
BBX 7 13 1 0
BITMAP
48
30
00
82
82
82
82
FE
82
82
82
82
82
ENDCHAR
STARTCHAR uni021F
ENCODING 543
SWIDTH 602 0
DWIDTH 8 0
BBX 6 13 1 0
BITMAP
48
30
80
80
80
B8
C4
84
84
84
84
84
84
ENDCHAR
STARTCHAR uni0220
ENCODING 544
SWIDTH 602 0
DWIDTH 8 0
BBX 6 13 1 -3
BITMAP
BC
C4
84
84
84
84
84
84
84
84
04
04
04
ENDCHAR
STARTCHAR uni0221
ENCODING 545
SWIDTH 602 0
DWIDTH 8 0
BBX 8 12 0 -1
BITMAP
08
08
08
78
58
88
88
88
8B
CD
77
08
ENDCHAR
STARTCHAR uni0224
ENCODING 548
SWIDTH 602 0
DWIDTH 8 0
BBX 7 13 1 -3
BITMAP
FE
04
0C
08
10
30
20
40
C0
FE
02
06
1C
ENDCHAR
STARTCHAR uni0225
ENCODING 549
SWIDTH 602 0
DWIDTH 8 0
BBX 6 11 1 -3
BITMAP
7C
04
08
10
30
60
40
FC
04
0C
38
ENDCHAR
STARTCHAR uni0226
ENCODING 550
SWIDTH 602 0
DWIDTH 8 0
BBX 7 12 1 0
BITMAP
10
00
10
28
28
28
28
44
7C
44
82
82
ENDCHAR
STARTCHAR uni0227
ENCODING 551
SWIDTH 602 0
DWIDTH 8 0
BBX 6 11 1 0
BITMAP
10
00
00
38
44
04
7C
84
84
8C
74
ENDCHAR
STARTCHAR uni0228
ENCODING 552
SWIDTH 602 0
DWIDTH 8 0
BBX 7 13 1 -3
BITMAP
FE
80
80
80
FE
80
80
80
80
FE
08
08
38
ENDCHAR
STARTCHAR uni0229
ENCODING 553
SWIDTH 602 0
DWIDTH 8 0
BBX 6 11 1 -3
BITMAP
78
4C
84
FC
80
80
44
38
08
08
38
ENDCHAR
STARTCHAR uni022A
ENCODING 554
SWIDTH 602 0
DWIDTH 8 0
BBX 7 13 1 0
BITMAP
78
00
28
38
44
82
82
82
82
82
82
44
38
ENDCHAR
STARTCHAR uni022B
ENCODING 555
SWIDTH 602 0
DWIDTH 8 0
BBX 6 12 1 0
BITMAP
78
48
00
00
78
CC
84
84
84
84
CC
78
ENDCHAR
STARTCHAR uni022C
ENCODING 556
SWIDTH 602 0
DWIDTH 8 0
BBX 7 13 1 0
BITMAP
78
74
5C
38
44
82
82
82
82
82
82
44
38
ENDCHAR
STARTCHAR uni022D
ENCODING 557
SWIDTH 602 0
DWIDTH 8 0
BBX 6 12 1 0
BITMAP
78
68
58
00
78
CC
84
84
84
84
CC
78
ENDCHAR
STARTCHAR uni022E
ENCODING 558
SWIDTH 602 0
DWIDTH 8 0
BBX 7 12 1 0
BITMAP
10
00
38
44
82
82
82
82
82
82
44
38
ENDCHAR
STARTCHAR uni022F
ENCODING 559
SWIDTH 602 0
DWIDTH 8 0
BBX 6 11 1 0
BITMAP
10
00
00
78
CC
84
84
84
84
CC
78
ENDCHAR
STARTCHAR uni0230
ENCODING 560
SWIDTH 602 0
DWIDTH 8 0
BBX 7 13 1 0
BITMAP
78
00
10
38
44
82
82
82
82
82
82
44
38
ENDCHAR
STARTCHAR uni0231
ENCODING 561
SWIDTH 602 0
DWIDTH 8 0
BBX 6 12 1 0
BITMAP
78
10
00
00
78
CC
84
84
84
84
CC
78
ENDCHAR
STARTCHAR uni0232
ENCODING 562
SWIDTH 602 0
DWIDTH 8 0
BBX 7 13 1 0
BITMAP
78
00
00
82
44
44
28
38
10
10
10
10
10
ENDCHAR
STARTCHAR uni0233
ENCODING 563
SWIDTH 602 0
DWIDTH 8 0
BBX 6 13 1 -3
BITMAP
78
00
84
44
48
48
28
30
10
10
10
20
60
ENDCHAR
STARTCHAR uni0234
ENCODING 564
SWIDTH 602 0
DWIDTH 8 0
BBX 6 12 1 -1
BITMAP
E0
20
20
20
20
20
20
20
2C
34
1C
20
ENDCHAR
STARTCHAR uni0235
ENCODING 565
SWIDTH 602 0
DWIDTH 8 0
BBX 7 9 1 -1
BITMAP
E0
B0
90
90
90
9E
9A
9C
10
ENDCHAR
STARTCHAR uni0236
ENCODING 566
SWIDTH 602 0
DWIDTH 8 0
BBX 6 11 1 -1
BITMAP
20
20
FC
20
20
20
20
2C
34
1C
20
ENDCHAR
STARTCHAR dotlessj
ENCODING 567
SWIDTH 602 0
DWIDTH 8 0
BBX 4 11 1 -3
BITMAP
70
10
10
10
10
10
10
10
10
10
E0
ENDCHAR
STARTCHAR uni0238
ENCODING 568
SWIDTH 602 0
DWIDTH 8 0
BBX 7 11 1 0
BITMAP
10
10
10
5C
B4
94
92
92
92
B4
7C
ENDCHAR
STARTCHAR uni0239
ENCODING 569
SWIDTH 602 0
DWIDTH 8 0
BBX 7 11 1 -3
BITMAP
5C
B4
94
92
92
92
B4
FC
10
10
10
ENDCHAR
STARTCHAR uni023A
ENCODING 570
SWIDTH 602 0
DWIDTH 8 0
BBX 8 11 0 0
BITMAP
01
19
1E
14
34
2C
36
7E
62
43
C1
ENDCHAR
STARTCHAR uni023B
ENCODING 571
SWIDTH 602 0
DWIDTH 8 0
BBX 8 11 0 0
BITMAP
01
1F
22
64
44
48
50
70
60
60
9E
ENDCHAR
STARTCHAR uni023C
ENCODING 572
SWIDTH 602 0
DWIDTH 8 0
BBX 7 8 1 0
BITMAP
3E
64
48
D0
E0
E0
40
BC
ENDCHAR
STARTCHAR uni023D
ENCODING 573
SWIDTH 602 0
DWIDTH 8 0
BBX 8 10 0 0
BITMAP
20
20
20
20
20
F8
20
20
20
3F
ENDCHAR
STARTCHAR uni023E
ENCODING 574
SWIDTH 602 0
DWIDTH 8 0
BBX 8 10 0 0
BITMAP
FF
0A
0E
0C
08
18
18
28
48
48
ENDCHAR
STARTCHAR uni023F
ENCODING 575
SWIDTH 602 0
DWIDTH 8 0
BBX 6 11 1 -3
BITMAP
38
44
C0
60
3C
04
84
F8
30
18
0C
ENDCHAR
STARTCHAR uni0240
ENCODING 576
SWIDTH 602 0
DWIDTH 8 0
BBX 6 11 1 -3
BITMAP
7C
04
08
10
30
60
40
C0
60
30
1C
ENDCHAR
STARTCHAR uni0241
ENCODING 577
SWIDTH 602 0
DWIDTH 8 0
BBX 8 10 0 0
BITMAP
7E
C3
81
01
03
1E
18
18
18
18
ENDCHAR
STARTCHAR uni0243
ENCODING 579
SWIDTH 602 0
DWIDTH 8 0
BBX 8 10 0 0
BITMAP
7E
62
62
62
7C
62
F3
E3
62
7E
ENDCHAR
STARTCHAR uni0244
ENCODING 580
SWIDTH 602 0
DWIDTH 8 0
BBX 8 10 0 0
BITMAP
42
42
42
42
42
FF
42
42
62
3C
ENDCHAR
STARTCHAR uni0245
ENCODING 581
SWIDTH 602 0
DWIDTH 8 0
BBX 7 10 1 0
BITMAP
30
38
28
68
48
4C
C4
84
86
86
ENDCHAR
STARTCHAR uni024C
ENCODING 588
SWIDTH 602 0
DWIDTH 8 0
BBX 8 10 0 0
BITMAP
3C
26
22
22
2E
FC
26
22
23
21
ENDCHAR
STARTCHAR uni024D
ENCODING 589
SWIDTH 602 0
DWIDTH 8 0
BBX 7 8 1 0
BITMAP
6E
72
60
60
FC
60
60
60
ENDCHAR
STARTCHAR uni0250
ENCODING 592
SWIDTH 602 0
DWIDTH 8 0
BBX 6 8 1 0
BITMAP
B8
C4
C4
84
FC
80
C0
7C
ENDCHAR
STARTCHAR uni0251
ENCODING 593
SWIDTH 602 0
DWIDTH 8 0
BBX 6 8 1 0
BITMAP
7C
4C
84
84
84
84
4C
74
ENDCHAR
STARTCHAR uni0252
ENCODING 594
SWIDTH 602 0
DWIDTH 8 0
BBX 6 8 1 0
BITMAP
B8
C8
84
84
84
84
C8
F8
ENDCHAR
STARTCHAR uni0253
ENCODING 595
SWIDTH 602 0
DWIDTH 8 0
BBX 6 11 1 0
BITMAP
70
80
80
F8
C8
84
84
84
84
C8
F8
ENDCHAR
STARTCHAR uni0254
ENCODING 596
SWIDTH 602 0
DWIDTH 8 0
BBX 6 8 1 0
BITMAP
70
88
04
04
04
04
88
70
ENDCHAR
STARTCHAR uni0255
ENCODING 597
SWIDTH 602 0
DWIDTH 8 0
BBX 6 9 1 -1
BITMAP
3C
64
40
C0
C0
DC
74
3C
20
ENDCHAR
STARTCHAR uni0256
ENCODING 598
SWIDTH 602 0
DWIDTH 8 0
BBX 6 14 1 -3
BITMAP
08
08
08
78
D8
88
88
88
88
C8
78
08
0C
04
ENDCHAR
STARTCHAR uni0257
ENCODING 599
SWIDTH 602 0
DWIDTH 8 0
BBX 6 11 1 0
BITMAP
04
0C
08
78
D8
88
88
88
88
C8
78
ENDCHAR
STARTCHAR uni0258
ENCODING 600
SWIDTH 602 0
DWIDTH 8 0
BBX 7 8 1 0
BITMAP
78
CC
84
FE
06
04
04
F8
ENDCHAR
STARTCHAR uni0259
ENCODING 601
SWIDTH 602 0
DWIDTH 8 0
BBX 6 8 1 0
BITMAP
70
88
04
04
FC
84
C8
78
ENDCHAR
STARTCHAR uni025A
ENCODING 602
SWIDTH 602 0
DWIDTH 8 0
BBX 8 8 0 0
BITMAP
70
8E
0E
1E
6D
C8
C8
70
ENDCHAR
STARTCHAR uni025B
ENCODING 603
SWIDTH 602 0
DWIDTH 8 0
BBX 6 8 1 0
BITMAP
7C
80
80
70
80
80
84
78
ENDCHAR
STARTCHAR uni025C
ENCODING 604
SWIDTH 602 0
DWIDTH 8 0
BBX 6 8 1 0
BITMAP
78
84
04
38
0C
04
84
78
ENDCHAR
STARTCHAR uni025D
ENCODING 605
SWIDTH 602 0
DWIDTH 8 0
BBX 8 8 0 0
BITMAP
70
1E
0A
32
19
08
08
F0
ENDCHAR
STARTCHAR uni025E
ENCODING 606
SWIDTH 602 0
DWIDTH 8 0
BBX 6 8 1 0
BITMAP
38
44
C4
84
98
84
44
3C
ENDCHAR
STARTCHAR uni025F
ENCODING 607
SWIDTH 602 0
DWIDTH 8 0
BBX 7 11 1 -3
BITMAP
70
10
10
10
FE
10
10
10
10
10
E0
ENDCHAR
STARTCHAR uni0260
ENCODING 608
SWIDTH 602 0
DWIDTH 8 0
BBX 6 14 1 -3
BITMAP
04
0C
08
38
48
88
88
88
88
C8
78
08
08
70
ENDCHAR
STARTCHAR uni0261
ENCODING 609
SWIDTH 602 0
DWIDTH 8 0
BBX 6 11 1 -3
BITMAP
3C
44
C4
84
84
C4
4C
7C
04
04
78
ENDCHAR
STARTCHAR uni0262
ENCODING 610
SWIDTH 602 0
DWIDTH 8 0
BBX 7 8 1 0
BITMAP
3C
C0
80
80
8E
86
46
3E
ENDCHAR
STARTCHAR uni0263
ENCODING 611
SWIDTH 602 0
DWIDTH 8 0
BBX 7 11 1 -3
BITMAP
86
4C
68
30
30
28
48
4C
44
CC
78
ENDCHAR
STARTCHAR uni0264
ENCODING 612
SWIDTH 602 0
DWIDTH 8 0
BBX 7 8 1 0
BITMAP
86
4C
68
30
30
68
48
78
ENDCHAR
STARTCHAR uni0265
ENCODING 613
SWIDTH 602 0
DWIDTH 8 0
BBX 6 11 1 -3
BITMAP
C4
C4
C4
C4
C4
C4
CC
74
04
04
04
ENDCHAR
STARTCHAR uni0266
ENCODING 614
SWIDTH 602 0
DWIDTH 8 0
BBX 6 11 1 0
BITMAP
30
40
C0
F8
CC
C4
C4
C4
C4
C4
C4
ENDCHAR
STARTCHAR uni0267
ENCODING 615
SWIDTH 602 0
DWIDTH 8 0
BBX 6 14 1 -3
BITMAP
30
40
C0
F8
CC
C4
C4
C4
C4
C4
C4
04
04
38
ENDCHAR
STARTCHAR uni0268
ENCODING 616
SWIDTH 602 0
DWIDTH 8 0
BBX 6 11 1 0
BITMAP
10
10
00
70
10
10
10
FC
10
10
FC
ENDCHAR
STARTCHAR uni0269
ENCODING 617
SWIDTH 602 0
DWIDTH 8 0
BBX 6 8 1 0
BITMAP
F0
30
30
30
30
30
10
1C
ENDCHAR
STARTCHAR uni026A
ENCODING 618
SWIDTH 602 0
DWIDTH 8 0
BBX 6 8 1 0
BITMAP
FC
10
10
10
10
10
10
FC
ENDCHAR
STARTCHAR uni026B
ENCODING 619
SWIDTH 602 0
DWIDTH 8 0
BBX 7 11 1 0
BITMAP
F0
30
30
30
30
30
FE
3C
30
30
1C
ENDCHAR
STARTCHAR uni026C
ENCODING 620
SWIDTH 602 0
DWIDTH 8 0
BBX 6 11 1 0
BITMAP
F0
30
30
30
F0
B0
78
30
30
10
1C
ENDCHAR
STARTCHAR uni026D
ENCODING 621
SWIDTH 602 0
DWIDTH 8 0
BBX 6 14 1 -3
BITMAP
E0
20
20
20
20
20
20
20
20
20
20
20
30
1C
ENDCHAR
STARTCHAR uni026E
ENCODING 622
SWIDTH 602 0
DWIDTH 8 0
BBX 8 14 0 -3
BITMAP
E0
20
20
3F
23
22
24
2C
2E
21
19
01
03
1E
ENDCHAR
STARTCHAR uni026F
ENCODING 623
SWIDTH 602 0
DWIDTH 8 0
BBX 7 8 1 0
BITMAP
92
92
92
92
92
92
B6
FA
ENDCHAR
STARTCHAR uni0270
ENCODING 624
SWIDTH 602 0
DWIDTH 8 0
BBX 7 11 1 -3
BITMAP
92
92
92
92
92
92
B6
FA
02
02
02
ENDCHAR
STARTCHAR uni0271
ENCODING 625
SWIDTH 602 0
DWIDTH 8 0
BBX 7 11 1 -3
BITMAP
EC
B6
92
92
92
92
92
92
02
06
1C
ENDCHAR
STARTCHAR uni0272
ENCODING 626
SWIDTH 602 0
DWIDTH 8 0
BBX 7 11 1 -3
BITMAP
58
64
64
46
46
46
46
46
40
40
C0
ENDCHAR
STARTCHAR uni0273
ENCODING 627
SWIDTH 602 0
DWIDTH 8 0
BBX 6 11 1 -3
BITMAP
B0
C8
88
88
88
88
88
88
08
0C
04
ENDCHAR
STARTCHAR uni0274
ENCODING 628
SWIDTH 602 0
DWIDTH 8 0
BBX 6 8 1 0
BITMAP
C4
E4
A4
B4
94
9C
8C
8C
ENDCHAR
STARTCHAR uni0275
ENCODING 629
SWIDTH 602 0
DWIDTH 8 0
BBX 6 8 1 0
BITMAP
38
4C
C4
84
FC
84
C4
78
ENDCHAR
STARTCHAR uni0276
ENCODING 630
SWIDTH 602 0
DWIDTH 8 0
BBX 8 8 0 0
BITMAP
1F
68
48
CF
C8
48
68
3F
ENDCHAR
STARTCHAR uni0277
ENCODING 631
SWIDTH 602 0
DWIDTH 8 0
BBX 6 8 1 0
BITMAP
38
78
C4
94
94
94
D4
6C
ENDCHAR
STARTCHAR uni0278
ENCODING 632
SWIDTH 602 0
DWIDTH 8 0
BBX 6 14 1 -3
BITMAP
7C
10
10
38
5C
D4
94
94
94
D4
78
10
10
7C
ENDCHAR
STARTCHAR uni0279
ENCODING 633
SWIDTH 602 0
DWIDTH 8 0
BBX 5 8 1 0
BITMAP
08
08
08
08
08
08
18
F8
ENDCHAR
STARTCHAR uni027A
ENCODING 634
SWIDTH 602 0
DWIDTH 8 0
BBX 5 11 1 0
BITMAP
08
08
08
08
08
08
08
08
08
18
F8
ENDCHAR
STARTCHAR uni027B
ENCODING 635
SWIDTH 602 0
DWIDTH 8 0
BBX 7 11 1 -3
BITMAP
08
08
08
08
08
08
18
E8
08
08
06
ENDCHAR
STARTCHAR uni027C
ENCODING 636
SWIDTH 602 0
DWIDTH 8 0
BBX 6 11 2 -3
BITMAP
DC
E4
C0
C0
C0
C0
C0
C0
C0
C0
C0
ENDCHAR
STARTCHAR uni027D
ENCODING 637
SWIDTH 602 0
DWIDTH 8 0
BBX 6 11 2 -3
BITMAP
DC
E4
C0
C0
C0
C0
C0
C0
C0
40
78
ENDCHAR
STARTCHAR uni027E
ENCODING 638
SWIDTH 602 0
DWIDTH 8 0
BBX 6 8 1 0
BITMAP
1C
10
10
10
10
10
10
FC
ENDCHAR
STARTCHAR uni027F
ENCODING 639
SWIDTH 602 0
DWIDTH 8 0
BBX 6 8 1 0
BITMAP
E0
30
10
10
10
10
10
FC
ENDCHAR
STARTCHAR uni0280
ENCODING 640
SWIDTH 602 0
DWIDTH 8 0
BBX 6 8 1 0
BITMAP
F0
98
88
88
F0
88
8C
84
ENDCHAR
STARTCHAR uni0281
ENCODING 641
SWIDTH 602 0
DWIDTH 8 0
BBX 7 8 1 0
BITMAP
86
84
88
98
F8
88
88
F8
ENDCHAR
STARTCHAR uni0282
ENCODING 642
SWIDTH 602 0
DWIDTH 8 0
BBX 6 11 1 -3
BITMAP
3C
44
C0
60
3C
04
04
F8
C0
C0
70
ENDCHAR
STARTCHAR uni0283
ENCODING 643
SWIDTH 602 0
DWIDTH 8 0
BBX 7 14 1 -3
BITMAP
0E
18
10
10
10
10
10
10
10
10
10
10
30
E0
ENDCHAR
STARTCHAR uni0284
ENCODING 644
SWIDTH 602 0
DWIDTH 8 0
BBX 7 14 1 -3
BITMAP
0E
18
10
70
10
10
10
FC
10
10
10
10
30
E0
ENDCHAR
STARTCHAR uni0285
ENCODING 645
SWIDTH 602 0
DWIDTH 8 0
BBX 7 11 1 -3
BITMAP
C0
30
10
10
10
10
10
10
10
10
1E
ENDCHAR
STARTCHAR uni0286
ENCODING 646
SWIDTH 602 0
DWIDTH 8 0
BBX 7 14 1 -3
BITMAP
0E
18
10
10
10
10
10
10
10
10
10
F8
90
E0
ENDCHAR
STARTCHAR uni0287
ENCODING 647
SWIDTH 602 0
DWIDTH 8 0
BBX 6 10 1 -2
BITMAP
E0
30
10
10
10
10
10
FC
10
10
ENDCHAR
STARTCHAR uni0288
ENCODING 648
SWIDTH 602 0
DWIDTH 8 0
BBX 6 13 1 -3
BITMAP
20
20
FC
20
20
20
20
20
20
20
20
20
1C
ENDCHAR
STARTCHAR uni0289
ENCODING 649
SWIDTH 602 0
DWIDTH 8 0
BBX 8 8 0 0
BITMAP
42
42
42
42
FF
42
66
3E
ENDCHAR
STARTCHAR uni028A
ENCODING 650
SWIDTH 602 0
DWIDTH 8 0
BBX 7 8 1 0
BITMAP
EE
68
C4
86
86
86
C4
78
ENDCHAR
STARTCHAR uni028B
ENCODING 651
SWIDTH 602 0
DWIDTH 8 0
BBX 8 8 0 0
BITMAP
E0
66
62
63
61
23
22
3C
ENDCHAR
STARTCHAR uni028C
ENCODING 652
SWIDTH 602 0
DWIDTH 8 0
BBX 7 8 1 0
BITMAP
30
38
28
48
4C
C4
84
86
ENDCHAR
STARTCHAR uni028D
ENCODING 653
SWIDTH 602 0
DWIDTH 8 0
BBX 8 8 0 0
BITMAP
26
66
66
56
55
59
99
89
ENDCHAR
STARTCHAR uni028E
ENCODING 654
SWIDTH 602 0
DWIDTH 8 0
BBX 7 11 1 0
BITMAP
04
18
10
10
30
38
68
48
44
84
86
ENDCHAR
STARTCHAR uni028F
ENCODING 655
SWIDTH 602 0
DWIDTH 8 0
BBX 6 8 1 0
BITMAP
84
4C
68
30
30
30
30
30
ENDCHAR
STARTCHAR uni0290
ENCODING 656
SWIDTH 602 0
DWIDTH 8 0
BBX 6 11 1 -3
BITMAP
F8
08
10
30
20
60
40
F8
08
08
04
ENDCHAR
STARTCHAR uni0291
ENCODING 657
SWIDTH 602 0
DWIDTH 8 0
BBX 6 9 1 -1
BITMAP
FC
04
08
18
30
7C
D4
FC
10
ENDCHAR
STARTCHAR uni0292
ENCODING 658
SWIDTH 602 0
DWIDTH 8 0
BBX 7 11 1 -3
BITMAP
FC
0C
08
10
20
38
04
06
06
8C
F8
ENDCHAR
STARTCHAR uni0293
ENCODING 659
SWIDTH 602 0
DWIDTH 8 0
BBX 7 11 1 -3
BITMAP
FC
0C
18
30
20
78
0C
04
FC
8C
FA
ENDCHAR
STARTCHAR uni0294
ENCODING 660
SWIDTH 602 0
DWIDTH 8 0
BBX 6 11 1 0
BITMAP
70
D8
04
04
04
18
30
20
20
20
20
ENDCHAR
STARTCHAR uni0295
ENCODING 661
SWIDTH 602 0
DWIDTH 8 0
BBX 6 11 1 0
BITMAP
18
64
C0
C0
C0
60
10
10
10
10
10
ENDCHAR
STARTCHAR uni0296
ENCODING 662
SWIDTH 602 0
DWIDTH 8 0
BBX 6 11 1 0
BITMAP
20
20
20
20
20
38
0C
04
04
8C
F8
ENDCHAR
STARTCHAR uni0297
ENCODING 663
SWIDTH 602 0
DWIDTH 8 0
BBX 6 14 1 -3
BITMAP
18
64
C0
C0
C0
C0
C0
C0
C0
C0
C0
C0
40
3C
ENDCHAR
STARTCHAR uni0298
ENCODING 664
SWIDTH 602 0
DWIDTH 8 0
BBX 7 7 1 0
BITMAP
7C
C4
96
92
86
7C
30
ENDCHAR
STARTCHAR uni0299
ENCODING 665
SWIDTH 602 0
DWIDTH 8 0
BBX 6 8 1 0
BITMAP
F8
84
84
F8
84
84
84
F8
ENDCHAR
STARTCHAR uni029A
ENCODING 666
SWIDTH 602 0
DWIDTH 8 0
BBX 6 8 1 0
BITMAP
70
CC
84
44
74
84
84
78
ENDCHAR
STARTCHAR uni029B
ENCODING 667
SWIDTH 602 0
DWIDTH 8 0
BBX 8 11 0 0
BITMAP
03
04
04
3C
44
40
C0
CC
44
44
3C
ENDCHAR
STARTCHAR uni029C
ENCODING 668
SWIDTH 602 0
DWIDTH 8 0
BBX 6 8 1 0
BITMAP
84
84
84
FC
84
84
84
84
ENDCHAR
STARTCHAR uni029D
ENCODING 669
SWIDTH 602 0
DWIDTH 8 0
BBX 6 14 1 -3
BITMAP
08
08
00
78
08
08
08
08
08
08
08
7C
98
70
ENDCHAR
STARTCHAR uni029E
ENCODING 670
SWIDTH 602 0
DWIDTH 8 0
BBX 7 11 1 -3
BITMAP
C6
66
36
1E
0E
16
26
46
06
06
06
ENDCHAR
STARTCHAR uni029F
ENCODING 671
SWIDTH 602 0
DWIDTH 8 0
BBX 5 8 2 0
BITMAP
80
80
80
80
80
80
80
F8
ENDCHAR
STARTCHAR uni02A0
ENCODING 672
SWIDTH 602 0
DWIDTH 8 0
BBX 8 14 0 -3
BITMAP
03
06
04
34
4C
C4
C4
C4
C4
4C
74
04
04
04
ENDCHAR
STARTCHAR uni02A1
ENCODING 673
SWIDTH 602 0
DWIDTH 8 0
BBX 6 11 1 0
BITMAP
70
D8
04
04
04
18
30
20
F8
20
20
ENDCHAR
STARTCHAR uni02A2
ENCODING 674
SWIDTH 602 0
DWIDTH 8 0
BBX 6 11 1 0
BITMAP
18
64
C0
C0
C0
60
10
10
7C
10
10
ENDCHAR
STARTCHAR uni02A3
ENCODING 675
SWIDTH 602 0
DWIDTH 8 0
BBX 8 10 0 0
BITMAP
10
10
6F
51
91
92
94
94
58
6F
ENDCHAR
STARTCHAR uni02A4
ENCODING 676
SWIDTH 602 0
DWIDTH 8 0
BBX 8 13 0 -3
BITMAP
10
10
6F
51
92
92
94
97
91
71
01
09
0E
ENDCHAR
STARTCHAR uni02A5
ENCODING 677
SWIDTH 602 0
DWIDTH 8 0
BBX 8 10 0 0
BITMAP
10
10
6F
51
91
92
94
97
5B
6F
ENDCHAR
STARTCHAR uni02A6
ENCODING 678
SWIDTH 602 0
DWIDTH 8 0
BBX 6 9 1 0
BITMAP
80
EC
90
90
98
8C
84
84
7C
ENDCHAR
STARTCHAR uni02A7
ENCODING 679
SWIDTH 602 0
DWIDTH 8 0
BBX 6 14 1 -3
BITMAP
04
48
48
F8
48
48
48
48
48
48
78
08
10
30
ENDCHAR
STARTCHAR uni02A8
ENCODING 680
SWIDTH 602 0
DWIDTH 8 0
BBX 6 11 1 -1
BITMAP
40
40
EC
50
60
60
60
6C
54
7C
10
ENDCHAR
STARTCHAR uni02A9
ENCODING 681
SWIDTH 602 0
DWIDTH 8 0
BBX 6 14 1 -3
BITMAP
60
40
80
EC
94
94
A4
A4
A4
A4
A4
04
04
0C
ENDCHAR
STARTCHAR uni02AA
ENCODING 682
SWIDTH 602 0
DWIDTH 8 0
BBX 5 11 2 0
BITMAP
80
80
80
F0
C8
80
E0
B0
88
88
F0
ENDCHAR
STARTCHAR uni02AB
ENCODING 683
SWIDTH 602 0
DWIDTH 8 0
BBX 5 8 2 0
BITMAP
F8
08
10
30
20
40
40
F8
ENDCHAR
STARTCHAR uni02AC
ENCODING 684
SWIDTH 602 0
DWIDTH 8 0
BBX 6 9 1 0
BITMAP
90
B4
74
48
00
94
B4
74
48
ENDCHAR
STARTCHAR uni02AD
ENCODING 685
SWIDTH 602 0
DWIDTH 8 0
BBX 6 8 1 1
BITMAP
FC
84
84
00
00
FC
84
84
ENDCHAR
STARTCHAR uni02AE
ENCODING 686
SWIDTH 602 0
DWIDTH 8 0
BBX 6 14 1 -3
BITMAP
80
40
40
44
44
44
44
44
44
24
3C
04
04
04
ENDCHAR
STARTCHAR uni02AF
ENCODING 687
SWIDTH 602 0
DWIDTH 8 0
BBX 6 14 1 -3
BITMAP
80
40
40
48
48
48
48
48
48
48
38
08
08
04
ENDCHAR
STARTCHAR uni02B0
ENCODING 688
SWIDTH 602 0
DWIDTH 8 0
BBX 4 6 2 5
BITMAP
80
80
F0
90
90
90
ENDCHAR
STARTCHAR uni02B1
ENCODING 689
SWIDTH 602 0
DWIDTH 8 0
BBX 4 6 2 5
BITMAP
60
80
F0
90
90
90
ENDCHAR
STARTCHAR uni02B2
ENCODING 690
SWIDTH 602 0
DWIDTH 8 0
BBX 2 8 3 3
BITMAP
40
00
40
40
40
40
40
C0
ENDCHAR
STARTCHAR uni02B3
ENCODING 691
SWIDTH 602 0
DWIDTH 8 0
BBX 3 4 3 5
BITMAP
E0
80
80
80
ENDCHAR
STARTCHAR uni02B4
ENCODING 692
SWIDTH 602 0
DWIDTH 8 0
BBX 3 5 3 4
BITMAP
20
20
20
60
80
ENDCHAR
STARTCHAR uni02B5
ENCODING 693
SWIDTH 602 0
DWIDTH 8 0
BBX 4 6 2 3
BITMAP
20
20
20
20
E0
10
ENDCHAR
STARTCHAR uni02B6
ENCODING 694
SWIDTH 602 0
DWIDTH 8 0
BBX 4 4 2 5
BITMAP
90
A0
E0
F0
ENDCHAR
STARTCHAR uni02B7
ENCODING 695
SWIDTH 602 0
DWIDTH 8 0
BBX 6 4 1 5
BITMAP
90
B4
B4
48
ENDCHAR
STARTCHAR uni02B8
ENCODING 696
SWIDTH 602 0
DWIDTH 8 0
BBX 4 6 2 3
BITMAP
80
90
60
60
20
C0
ENDCHAR
STARTCHAR uni02B9
ENCODING 697
SWIDTH 602 0
DWIDTH 8 0
BBX 2 3 3 8
BITMAP
40
40
C0
ENDCHAR
STARTCHAR uni02BB
ENCODING 699
SWIDTH 602 0
DWIDTH 8 0
BBX 3 4 3 7
BITMAP
20
40
C0
C0
ENDCHAR
STARTCHAR uni02BC
ENCODING 700
SWIDTH 602 0
DWIDTH 8 0
BBX 3 4 3 7
BITMAP
60
60
40
80
ENDCHAR
STARTCHAR uni02BD
ENCODING 701
SWIDTH 602 0
DWIDTH 8 0
BBX 2 4 3 8
BITMAP
C0
C0
80
40
ENDCHAR
STARTCHAR uni02BE
ENCODING 702
SWIDTH 602 0
DWIDTH 8 0
BBX 2 4 3 7
BITMAP
80
40
40
C0
ENDCHAR
STARTCHAR uni02BF
ENCODING 703
SWIDTH 602 0
DWIDTH 8 0
BBX 2 4 3 7
BITMAP
40
80
80
40
ENDCHAR
STARTCHAR uni02C0
ENCODING 704
SWIDTH 602 0
DWIDTH 8 0
BBX 4 6 2 6
BITMAP
F0
10
10
60
40
40
ENDCHAR
STARTCHAR uni02C1
ENCODING 705
SWIDTH 602 0
DWIDTH 8 0
BBX 4 6 2 6
BITMAP
70
80
40
20
20
20
ENDCHAR
STARTCHAR circumflex
ENCODING 710
SWIDTH 602 0
DWIDTH 8 0
BBX 4 3 2 9
BITMAP
60
60
90
ENDCHAR
STARTCHAR caron
ENCODING 711
SWIDTH 602 0
DWIDTH 8 0
BBX 4 3 2 9
BITMAP
90
60
60
ENDCHAR
STARTCHAR uni02C8
ENCODING 712
SWIDTH 602 0
DWIDTH 8 0
BBX 1 4 4 7
BITMAP
80
80
80
80
ENDCHAR
STARTCHAR uni02C9
ENCODING 713
SWIDTH 602 0
DWIDTH 8 0
BBX 4 1 2 9
BITMAP
F0
ENDCHAR
STARTCHAR uni02CC
ENCODING 716
SWIDTH 602 0
DWIDTH 8 0
BBX 1 4 4 -2
BITMAP
80
80
80
80
ENDCHAR
STARTCHAR uni02CD
ENCODING 717
SWIDTH 602 0
DWIDTH 8 0
BBX 4 1 2 -2
BITMAP
F0
ENDCHAR
STARTCHAR uni02CE
ENCODING 718
SWIDTH 602 0
DWIDTH 8 0
BBX 3 3 3 -4
BITMAP
C0
40
20
ENDCHAR
STARTCHAR uni02CF
ENCODING 719
SWIDTH 602 0
DWIDTH 8 0
BBX 3 3 2 -4
BITMAP
60
40
80
ENDCHAR
STARTCHAR uni02D0
ENCODING 720
SWIDTH 602 0
DWIDTH 8 0
BBX 2 7 3 0
BITMAP
C0
80
00
00
00
40
C0
ENDCHAR
STARTCHAR uni02D1
ENCODING 721
SWIDTH 602 0
DWIDTH 8 0
BBX 2 2 3 5
BITMAP
C0
80
ENDCHAR
STARTCHAR uni02D2
ENCODING 722
SWIDTH 602 0
DWIDTH 8 0
BBX 2 4 3 4
BITMAP
80
40
40
C0
ENDCHAR
STARTCHAR uni02D3
ENCODING 723
SWIDTH 602 0
DWIDTH 8 0
BBX 2 4 3 4
BITMAP
40
80
80
40
ENDCHAR
STARTCHAR uni02D6
ENCODING 726
SWIDTH 602 0
DWIDTH 8 0
BBX 4 4 2 2
BITMAP
20
20
F0
20
ENDCHAR
STARTCHAR uni02D7
ENCODING 727
SWIDTH 602 0
DWIDTH 8 0
BBX 3 1 3 3
BITMAP
E0
ENDCHAR
STARTCHAR breve
ENCODING 728
SWIDTH 602 0
DWIDTH 8 0
BBX 4 2 2 9
BITMAP
90
60
ENDCHAR
STARTCHAR dotaccent
ENCODING 729
SWIDTH 602 0
DWIDTH 8 0
BBX 1 1 4 10
BITMAP
80
ENDCHAR
STARTCHAR ring
ENCODING 730
SWIDTH 602 0
DWIDTH 8 0
BBX 4 4 2 9
BITMAP
60
90
90
60
ENDCHAR
STARTCHAR ogonek
ENCODING 731
SWIDTH 602 0
DWIDTH 8 0
BBX 3 3 3 -3
BITMAP
80
80
E0
ENDCHAR
STARTCHAR tilde
ENCODING 732
SWIDTH 602 0
DWIDTH 8 0
BBX 5 2 2 9
BITMAP
E8
B8
ENDCHAR
STARTCHAR hungarumlaut
ENCODING 733
SWIDTH 602 0
DWIDTH 8 0
BBX 5 3 2 8
BITMAP
58
90
A0
ENDCHAR
STARTCHAR uni02DE
ENCODING 734
SWIDTH 602 0
DWIDTH 8 0
BBX 8 4 -2 3
BITMAP
38
C8
0C
07
ENDCHAR
STARTCHAR uni02E0
ENCODING 736
SWIDTH 602 0
DWIDTH 8 0
BBX 4 6 2 3
BITMAP
90
60
20
60
90
70
ENDCHAR
STARTCHAR uni02E1
ENCODING 737
SWIDTH 602 0
DWIDTH 8 0
BBX 4 6 2 5
BITMAP
C0
40
40
40
40
30
ENDCHAR
STARTCHAR uni02E2
ENCODING 738
SWIDTH 602 0
DWIDTH 8 0
BBX 4 4 2 5
BITMAP
70
80
70
F0
ENDCHAR
STARTCHAR uni02E3
ENCODING 739
SWIDTH 602 0
DWIDTH 8 0
BBX 4 4 2 5
BITMAP
90
60
60
D0
ENDCHAR
STARTCHAR uni02E4
ENCODING 740
SWIDTH 602 0
DWIDTH 8 0
BBX 4 6 2 5
BITMAP
20
50
80
60
20
20
ENDCHAR
STARTCHAR uni02E5
ENCODING 741
SWIDTH 602 0
DWIDTH 8 0
BBX 4 9 2 0
BITMAP
F0
10
10
10
10
10
10
10
10
ENDCHAR
STARTCHAR uni02E6
ENCODING 742
SWIDTH 602 0
DWIDTH 8 0
BBX 4 9 2 0
BITMAP
10
10
F0
10
10
10
10
10
10
ENDCHAR
STARTCHAR uni02E7
ENCODING 743
SWIDTH 602 0
DWIDTH 8 0
BBX 4 9 2 0
BITMAP
10
10
10
10
F0
10
10
10
10
ENDCHAR
STARTCHAR uni02E8
ENCODING 744
SWIDTH 602 0
DWIDTH 8 0
BBX 4 9 2 0
BITMAP
10
10
10
10
10
10
F0
10
10
ENDCHAR
STARTCHAR uni02E9
ENCODING 745
SWIDTH 602 0
DWIDTH 8 0
BBX 4 9 2 0
BITMAP
10
10
10
10
10
10
10
10
F0
ENDCHAR
STARTCHAR uni02EE
ENCODING 750
SWIDTH 602 0
DWIDTH 8 0
BBX 6 4 1 7
BITMAP
6C
6C
48
90
ENDCHAR
STARTCHAR uni02F3
ENCODING 755
SWIDTH 602 0
DWIDTH 8 0
BBX 3 3 3 -3
BITMAP
E0
A0
E0
ENDCHAR
STARTCHAR gravecomb
ENCODING 768
SWIDTH 602 0
DWIDTH 8 0
BBX 3 3 2 9
BITMAP
C0
40
20
ENDCHAR
STARTCHAR acutecomb
ENCODING 769
SWIDTH 602 0
DWIDTH 8 0
BBX 3 3 3 9
BITMAP
60
40
80
ENDCHAR
STARTCHAR uni0302
ENCODING 770
SWIDTH 602 0
DWIDTH 8 0
BBX 4 3 2 9
BITMAP
60
60
90
ENDCHAR
STARTCHAR tildecomb
ENCODING 771
SWIDTH 602 0
DWIDTH 8 0
BBX 5 2 2 9
BITMAP
E8
B8
ENDCHAR
STARTCHAR uni0304
ENCODING 772
SWIDTH 602 0
DWIDTH 8 0
BBX 4 1 2 9
BITMAP
F0
ENDCHAR
STARTCHAR uni0305
ENCODING 773
SWIDTH 602 0
DWIDTH 8 0
BBX 8 1 0 10
BITMAP
FF
ENDCHAR
STARTCHAR uni0306
ENCODING 774
SWIDTH 602 0
DWIDTH 8 0
BBX 4 2 2 9
BITMAP
90
60
ENDCHAR
STARTCHAR uni0307
ENCODING 775
SWIDTH 602 0
DWIDTH 8 0
BBX 1 1 4 10
BITMAP
80
ENDCHAR
STARTCHAR uni0308
ENCODING 776
SWIDTH 602 0
DWIDTH 8 0
BBX 3 1 2 10
BITMAP
A0
ENDCHAR
STARTCHAR hookabovecomb
ENCODING 777
SWIDTH 602 0
DWIDTH 8 0
BBX 3 3 3 9
BITMAP
C0
20
40
ENDCHAR
STARTCHAR uni030A
ENCODING 778
SWIDTH 602 0
DWIDTH 8 0
BBX 4 4 2 9
BITMAP
60
90
90
60
ENDCHAR
STARTCHAR uni030B
ENCODING 779
SWIDTH 602 0
DWIDTH 8 0
BBX 5 3 2 8
BITMAP
58
90
A0
ENDCHAR
STARTCHAR uni030C
ENCODING 780
SWIDTH 602 0
DWIDTH 8 0
BBX 4 3 2 9
BITMAP
90
60
60
ENDCHAR
STARTCHAR uni030D
ENCODING 781
SWIDTH 602 0
DWIDTH 8 0
BBX 1 3 4 9
BITMAP
80
80
80
ENDCHAR
STARTCHAR uni030E
ENCODING 782
SWIDTH 602 0
DWIDTH 8 0
BBX 3 3 3 9
BITMAP
A0
A0
A0
ENDCHAR
STARTCHAR uni030F
ENCODING 783
SWIDTH 602 0
DWIDTH 8 0
BBX 4 2 2 9
BITMAP
A0
50
ENDCHAR
STARTCHAR uni0310
ENCODING 784
SWIDTH 602 0
DWIDTH 8 0
BBX 4 3 2 9
BITMAP
20
90
60
ENDCHAR
STARTCHAR uni0311
ENCODING 785
SWIDTH 602 0
DWIDTH 8 0
BBX 4 2 2 9
BITMAP
70
90
ENDCHAR
STARTCHAR uni0312
ENCODING 786
SWIDTH 602 0
DWIDTH 8 0
BBX 1 2 4 7
BITMAP
80
80
ENDCHAR
STARTCHAR uni0313
ENCODING 787
SWIDTH 602 0
DWIDTH 8 0
BBX 2 4 3 8
BITMAP
C0
C0
40
80
ENDCHAR
STARTCHAR uni0314
ENCODING 788
SWIDTH 602 0
DWIDTH 8 0
BBX 2 4 3 8
BITMAP
C0
C0
80
40
ENDCHAR
STARTCHAR uni0315
ENCODING 789
SWIDTH 602 0
DWIDTH 8 0
BBX 2 2 3 9
BITMAP
40
C0
ENDCHAR
STARTCHAR uni0316
ENCODING 790
SWIDTH 602 0
DWIDTH 8 0
BBX 3 3 3 -4
BITMAP
C0
40
20
ENDCHAR
STARTCHAR uni0317
ENCODING 791
SWIDTH 602 0
DWIDTH 8 0
BBX 3 3 2 -4
BITMAP
60
40
80
ENDCHAR
STARTCHAR uni0318
ENCODING 792
SWIDTH 602 0
DWIDTH 8 0
BBX 2 3 3 -5
BITMAP
40
C0
40
ENDCHAR
STARTCHAR uni0319
ENCODING 793
SWIDTH 602 0
DWIDTH 8 0
BBX 2 3 3 -5
BITMAP
80
C0
80
ENDCHAR
STARTCHAR uni031A
ENCODING 794
SWIDTH 602 0
DWIDTH 8 0
BBX 3 3 3 10
BITMAP
E0
20
20
ENDCHAR
STARTCHAR uni031B
ENCODING 795
SWIDTH 602 0
DWIDTH 8 0
BBX 3 2 3 5
BITMAP
20
C0
ENDCHAR
STARTCHAR uni031C
ENCODING 796
SWIDTH 602 0
DWIDTH 8 0
BBX 1 2 3 -3
BITMAP
80
80
ENDCHAR
STARTCHAR uni031D
ENCODING 797
SWIDTH 602 0
DWIDTH 8 0
BBX 4 2 2 -4
BITMAP
20
F0
ENDCHAR
STARTCHAR uni031E
ENCODING 798
SWIDTH 602 0
DWIDTH 8 0
BBX 4 2 2 -4
BITMAP
F0
20
ENDCHAR
STARTCHAR uni031F
ENCODING 799
SWIDTH 602 0
DWIDTH 8 0
BBX 4 3 2 -5
BITMAP
20
F0
20
ENDCHAR
STARTCHAR uni0320
ENCODING 800
SWIDTH 602 0
DWIDTH 8 0
BBX 3 1 3 -3
BITMAP
E0
ENDCHAR
STARTCHAR uni0321
ENCODING 801
SWIDTH 602 0
DWIDTH 8 0
BBX 4 4 3 -3
BITMAP
10
10
10
E0
ENDCHAR
STARTCHAR uni0322
ENCODING 802
SWIDTH 602 0
DWIDTH 8 0
BBX 4 4 1 -3
BITMAP
C0
C0
C0
70
ENDCHAR
STARTCHAR dotbelowcomb
ENCODING 803
SWIDTH 602 0
DWIDTH 8 0
BBX 1 1 4 -2
BITMAP
80
ENDCHAR
STARTCHAR uni0324
ENCODING 804
SWIDTH 602 0
DWIDTH 8 0
BBX 3 1 2 -2
BITMAP
A0
ENDCHAR
STARTCHAR uni0325
ENCODING 805
SWIDTH 602 0
DWIDTH 8 0
BBX 3 3 3 -3
BITMAP
E0
A0
E0
ENDCHAR
STARTCHAR uni0326
ENCODING 806
SWIDTH 602 0
DWIDTH 8 0
BBX 2 2 3 -4
BITMAP
C0
80
ENDCHAR
STARTCHAR uni0327
ENCODING 807
SWIDTH 602 0
DWIDTH 8 0
BBX 3 3 3 -3
BITMAP
20
20
E0
ENDCHAR
STARTCHAR uni0328
ENCODING 808
SWIDTH 602 0
DWIDTH 8 0
BBX 3 3 3 -3
BITMAP
80
80
E0
ENDCHAR
STARTCHAR uni0329
ENCODING 809
SWIDTH 602 0
DWIDTH 8 0
BBX 1 3 4 -4
BITMAP
80
80
80
ENDCHAR
STARTCHAR uni032A
ENCODING 810
SWIDTH 602 0
DWIDTH 8 0
BBX 4 3 2 -4
BITMAP
F0
90
90
ENDCHAR
STARTCHAR uni032B
ENCODING 811
SWIDTH 602 0
DWIDTH 8 0
BBX 6 2 1 -3
BITMAP
94
7C
ENDCHAR
STARTCHAR uni032C
ENCODING 812
SWIDTH 602 0
DWIDTH 8 0
BBX 4 3 2 -4
BITMAP
90
60
60
ENDCHAR
STARTCHAR uni032D
ENCODING 813
SWIDTH 602 0
DWIDTH 8 0
BBX 4 3 2 -4
BITMAP
60
60
90
ENDCHAR
STARTCHAR uni032E
ENCODING 814
SWIDTH 602 0
DWIDTH 8 0
BBX 4 2 2 -13
BITMAP
90
60
ENDCHAR
STARTCHAR uni032F
ENCODING 815
SWIDTH 602 0
DWIDTH 8 0
BBX 4 2 2 -3
BITMAP
60
90
ENDCHAR
STARTCHAR uni0330
ENCODING 816
SWIDTH 602 0
DWIDTH 8 0
BBX 5 2 2 -3
BITMAP
E8
B8
ENDCHAR
STARTCHAR uni0331
ENCODING 817
SWIDTH 602 0
DWIDTH 8 0
BBX 4 1 2 -2
BITMAP
F0
ENDCHAR
STARTCHAR uni0332
ENCODING 818
SWIDTH 602 0
DWIDTH 8 0
BBX 8 1 0 -3
BITMAP
FF
ENDCHAR
STARTCHAR uni0333
ENCODING 819
SWIDTH 602 0
DWIDTH 8 0
BBX 8 3 0 -3
BITMAP
FF
00
FF
ENDCHAR
STARTCHAR uni0334
ENCODING 820
SWIDTH 602 0
DWIDTH 8 0
BBX 7 2 1 3
BITMAP
72
8C
ENDCHAR
STARTCHAR uni0335
ENCODING 821
SWIDTH 602 0
DWIDTH 8 0
BBX 6 1 1 3
BITMAP
FC
ENDCHAR
STARTCHAR uni0336
ENCODING 822
SWIDTH 602 0
DWIDTH 8 0
BBX 8 1 0 3
BITMAP
FF
ENDCHAR
STARTCHAR uni0337
ENCODING 823
SWIDTH 602 0
DWIDTH 8 0
BBX 7 8 1 0
BITMAP
02
04
08
10
20
20
40
80
ENDCHAR
STARTCHAR uni0338
ENCODING 824
SWIDTH 602 0
DWIDTH 8 0
BBX 8 11 0 0
BITMAP
01
01
02
04
04
08
10
10
20
40
80
ENDCHAR
STARTCHAR uni0339
ENCODING 825
SWIDTH 602 0
DWIDTH 8 0
BBX 2 3 3 -3
BITMAP
80
40
40
ENDCHAR
STARTCHAR uni033A
ENCODING 826
SWIDTH 602 0
DWIDTH 8 0
BBX 4 3 2 -3
BITMAP
90
90
F0
ENDCHAR
STARTCHAR uni033B
ENCODING 827
SWIDTH 602 0
DWIDTH 8 0
BBX 4 4 2 -5
BITMAP
F0
90
90
F0
ENDCHAR
STARTCHAR uni033C
ENCODING 828
SWIDTH 602 0
DWIDTH 8 0
BBX 6 2 1 -3
BITMAP
78
94
ENDCHAR
STARTCHAR uni033D
ENCODING 829
SWIDTH 602 0
DWIDTH 8 0
BBX 2 2 3 9
BITMAP
C0
C0
ENDCHAR
STARTCHAR uni033E
ENCODING 830
SWIDTH 602 0
DWIDTH 8 0
BBX 2 4 3 8
BITMAP
40
80
40
80
ENDCHAR
STARTCHAR uni033F
ENCODING 831
SWIDTH 602 0
DWIDTH 8 0
BBX 8 1 1 10
BITMAP
FF
ENDCHAR
STARTCHAR uni0343
ENCODING 835
SWIDTH 602 0
DWIDTH 8 0
BBX 2 4 3 8
BITMAP
C0
C0
40
80
ENDCHAR
STARTCHAR uni0358
ENCODING 856
SWIDTH 602 0
DWIDTH 8 0
BBX 1 1 8 10
BITMAP
80
ENDCHAR
STARTCHAR uni0361
ENCODING 865
SWIDTH 602 0
DWIDTH 8 0
BBX 12 3 -2 10
BITMAP
0F00
70E0
8010
ENDCHAR
STARTCHAR uni0374
ENCODING 884
SWIDTH 602 0
DWIDTH 8 0
BBX 2 3 3 8
BITMAP
40
40
C0
ENDCHAR
STARTCHAR uni0375
ENCODING 885
SWIDTH 602 0
DWIDTH 8 0
BBX 2 4 3 -3
BITMAP
40
40
40
C0
ENDCHAR
STARTCHAR uni037A
ENCODING 890
SWIDTH 602 0
DWIDTH 8 0
BBX 1 2 4 -3
BITMAP
80
80
ENDCHAR
STARTCHAR uni037E
ENCODING 894
SWIDTH 602 0
DWIDTH 8 0
BBX 3 9 2 -2
BITMAP
60
60
00
00
00
60
60
40
80
ENDCHAR
STARTCHAR tonos
ENCODING 900
SWIDTH 602 0
DWIDTH 8 0
BBX 3 3 3 9
BITMAP
60
40
80
ENDCHAR
STARTCHAR dieresistonos
ENCODING 901
SWIDTH 602 0
DWIDTH 8 0
BBX 4 5 2 10
BITMAP
30
20
40
00
A0
ENDCHAR
STARTCHAR Alphatonos
ENCODING 902
SWIDTH 602 0
DWIDTH 8 0
BBX 8 12 0 0
BITMAP
60
40
88
14
14
14
14
22
3E
22
41
41
ENDCHAR
STARTCHAR anoteleia
ENCODING 903
SWIDTH 602 0
DWIDTH 8 0
BBX 2 2 3 4
BITMAP
C0
C0
ENDCHAR
STARTCHAR Epsilontonos
ENCODING 904
SWIDTH 602 0
DWIDTH 8 0
BBX 10 12 -2 0
BITMAP
6000
4000
9FC0
1000
1000
1000
1FC0
1000
1000
1000
1000
1FC0
ENDCHAR
STARTCHAR Etatonos
ENCODING 905
SWIDTH 602 0
DWIDTH 8 0
BBX 10 12 -2 0
BITMAP
6000
4000
9040
1040
1040
1040
1FC0
1040
1040
1040
1040
1040
ENDCHAR
STARTCHAR Iotatonos
ENCODING 906
SWIDTH 602 0
DWIDTH 8 0
BBX 9 12 -2 0
BITMAP
6000
4000
8F80
0200
0200
0200
0200
0200
0200
0200
0200
0F80
ENDCHAR
STARTCHAR Omicrontonos
ENCODING 908
SWIDTH 602 0
DWIDTH 8 0
BBX 9 12 -1 0
BITMAP
6000
4000
8E00
1100
2080
2080
2080
2080
2080
2080
1100
0E00
ENDCHAR
STARTCHAR Upsilontonos
ENCODING 910
SWIDTH 602 0
DWIDTH 8 0
BBX 11 12 -3 0
BITMAP
6000
4000
8820
0440
0440
0280
0380
0100
0100
0100
0100
0100
ENDCHAR
STARTCHAR Omegatonos
ENCODING 911
SWIDTH 602 0
DWIDTH 8 0
BBX 9 12 -1 0
BITMAP
6000
4000
8E00
1100
2080
2080
2080
2080
2080
3180
1100
3B80
ENDCHAR
STARTCHAR iotadieresistonos
ENCODING 912
SWIDTH 602 0
DWIDTH 8 0
BBX 5 15 2 0
BITMAP
30
20
40
00
A0
00
00
60
20
20
20
20
20
20
18
ENDCHAR
STARTCHAR Alpha
ENCODING 913
SWIDTH 602 0
DWIDTH 8 0
BBX 7 10 1 0
BITMAP
10
28
28
28
28
44
7C
44
82
82
ENDCHAR
STARTCHAR Beta
ENCODING 914
SWIDTH 602 0
DWIDTH 8 0
BBX 7 10 1 0
BITMAP
FC
82
82
82
FC
86
82
82
86
FC
ENDCHAR
STARTCHAR Gamma
ENCODING 915
SWIDTH 602 0
DWIDTH 8 0
BBX 7 10 1 0
BITMAP
FE
80
80
80
80
80
80
80
80
80
ENDCHAR
STARTCHAR uni0394
ENCODING 916
SWIDTH 602 0
DWIDTH 8 0
BBX 7 10 1 0
BITMAP
10
28
28
28
28
44
44
44
82
FE
ENDCHAR
STARTCHAR Epsilon
ENCODING 917
SWIDTH 602 0
DWIDTH 8 0
BBX 7 10 1 0
BITMAP
FE
80
80
80
FE
80
80
80
80
FE
ENDCHAR
STARTCHAR Zeta
ENCODING 918
SWIDTH 602 0
DWIDTH 8 0
BBX 7 10 1 0
BITMAP
FE
06
04
08
10
10
20
40
C0
FE
ENDCHAR
STARTCHAR Eta
ENCODING 919
SWIDTH 602 0
DWIDTH 8 0
BBX 7 10 1 0
BITMAP
82
82
82
82
FE
82
82
82
82
82
ENDCHAR
STARTCHAR Theta
ENCODING 920
SWIDTH 602 0
DWIDTH 8 0
BBX 7 10 1 0
BITMAP
38
44
82
82
BA
82
82
82
44
38
ENDCHAR
STARTCHAR Iota
ENCODING 921
SWIDTH 602 0
DWIDTH 8 0
BBX 5 10 2 0
BITMAP
F8
20
20
20
20
20
20
20
20
F8
ENDCHAR
STARTCHAR Kappa
ENCODING 922
SWIDTH 602 0
DWIDTH 8 0
BBX 7 10 1 0
BITMAP
84
88
90
A0
E0
90
98
88
84
82
ENDCHAR
STARTCHAR Lambda
ENCODING 923
SWIDTH 602 0
DWIDTH 8 0
BBX 7 10 1 0
BITMAP
10
28
28
28
28
44
44
44
82
82
ENDCHAR
STARTCHAR Mu
ENCODING 924
SWIDTH 602 0
DWIDTH 8 0
BBX 7 10 1 0
BITMAP
C6
C6
AA
AA
AA
92
82
82
82
82
ENDCHAR
STARTCHAR Nu
ENCODING 925
SWIDTH 602 0
DWIDTH 8 0
BBX 7 10 1 0
BITMAP
C2
C2
A2
A2
92
92
8A
8A
86
86
ENDCHAR
STARTCHAR Xi
ENCODING 926
SWIDTH 602 0
DWIDTH 8 0
BBX 7 10 1 0
BITMAP
FE
00
00
00
7C
00
00
00
00
FE
ENDCHAR
STARTCHAR Omicron
ENCODING 927
SWIDTH 602 0
DWIDTH 8 0
BBX 7 10 1 0
BITMAP
38
44
82
82
82
82
82
82
44
38
ENDCHAR
STARTCHAR Pi
ENCODING 928
SWIDTH 602 0
DWIDTH 8 0
BBX 7 10 1 0
BITMAP
FE
82
82
82
82
82
82
82
82
82
ENDCHAR
STARTCHAR Rho
ENCODING 929
SWIDTH 602 0
DWIDTH 8 0
BBX 7 10 1 0
BITMAP
FC
86
82
82
86
FC
80
80
80
80
ENDCHAR
STARTCHAR Sigma
ENCODING 931
SWIDTH 602 0
DWIDTH 8 0
BBX 7 10 1 0
BITMAP
FE
C0
40
20
10
10
20
40
C0
FE
ENDCHAR
STARTCHAR Tau
ENCODING 932
SWIDTH 602 0
DWIDTH 8 0
BBX 7 10 1 0
BITMAP
FE
10
10
10
10
10
10
10
10
10
ENDCHAR
STARTCHAR Upsilon
ENCODING 933
SWIDTH 602 0
DWIDTH 8 0
BBX 7 10 1 0
BITMAP
82
44
44
28
38
10
10
10
10
10
ENDCHAR
STARTCHAR Phi
ENCODING 934
SWIDTH 602 0
DWIDTH 8 0
BBX 7 10 1 0
BITMAP
38
10
7C
D6
92
92
D6
7C
10
38
ENDCHAR
STARTCHAR Chi
ENCODING 935
SWIDTH 602 0
DWIDTH 8 0
BBX 7 10 1 0
BITMAP
82
44
28
28
10
28
28
44
44
82
ENDCHAR
STARTCHAR Psi
ENCODING 936
SWIDTH 602 0
DWIDTH 8 0
BBX 7 10 1 0
BITMAP
92
92
92
92
92
92
54
38
10
38
ENDCHAR
STARTCHAR Omega
ENCODING 937
SWIDTH 602 0
DWIDTH 8 0
BBX 7 10 1 0
BITMAP
38
44
82
82
82
82
82
C6
44
EE
ENDCHAR
STARTCHAR Iotadieresis
ENCODING 938
SWIDTH 602 0
DWIDTH 8 0
BBX 5 12 2 0
BITMAP
50
00
F8
20
20
20
20
20
20
20
20
F8
ENDCHAR
STARTCHAR Upsilondieresis
ENCODING 939
SWIDTH 602 0
DWIDTH 8 0
BBX 7 12 1 0
BITMAP
28
00
82
44
44
28
38
10
10
10
10
10
ENDCHAR
STARTCHAR alphatonos
ENCODING 940
SWIDTH 602 0
DWIDTH 8 0
BBX 8 12 0 0
BITMAP
0C
08
10
00
39
6E
46
46
C4
46
4E
3B
ENDCHAR
STARTCHAR epsilontonos
ENCODING 941
SWIDTH 602 0
DWIDTH 8 0
BBX 6 12 1 0
BITMAP
18
10
20
00
7C
80
80
70
80
80
84
78
ENDCHAR
STARTCHAR etatonos
ENCODING 942
SWIDTH 602 0
DWIDTH 8 0
BBX 6 15 1 -3
BITMAP
18
10
20
00
B8
C4
84
84
84
84
84
84
04
04
04
ENDCHAR
STARTCHAR iotatonos
ENCODING 943
SWIDTH 602 0
DWIDTH 8 0
BBX 4 12 3 0
BITMAP
60
40
80
00
C0
40
40
40
40
40
40
30
ENDCHAR
STARTCHAR upsilondieresistonos
ENCODING 944
SWIDTH 602 0
DWIDTH 8 0
BBX 8 15 0 0
BITMAP
0C
08
10
00
28
00
00
E6
22
23
23
23
22
26
1C
ENDCHAR
STARTCHAR alpha
ENCODING 945
SWIDTH 602 0
DWIDTH 8 0
BBX 8 8 0 0
BITMAP
39
6E
46
46
C4
46
4E
3B
ENDCHAR
STARTCHAR beta
ENCODING 946
SWIDTH 602 0
DWIDTH 8 0
BBX 7 14 1 -3
BITMAP
30
FC
84
84
8C
B8
84
86
86
C4
FC
80
80
80
ENDCHAR
STARTCHAR gamma
ENCODING 947
SWIDTH 602 0
DWIDTH 8 0
BBX 8 11 0 -3
BITMAP
C3
42
22
26
34
1C
18
18
08
08
08
ENDCHAR
STARTCHAR delta
ENCODING 948
SWIDTH 602 0
DWIDTH 8 0
BBX 6 11 1 0
BITMAP
38
6C
C0
78
4C
C4
84
84
84
C4
78
ENDCHAR
STARTCHAR epsilon
ENCODING 949
SWIDTH 602 0
DWIDTH 8 0
BBX 6 8 1 0
BITMAP
7C
80
80
70
80
80
84
78
ENDCHAR
STARTCHAR zeta
ENCODING 950
SWIDTH 602 0
DWIDTH 8 0
BBX 6 14 1 -3
BITMAP
FC
FC
18
20
40
C0
80
80
C0
40
78
04
04
0C
ENDCHAR
STARTCHAR eta
ENCODING 951
SWIDTH 602 0
DWIDTH 8 0
BBX 6 11 1 -3
BITMAP
B8
C4
84
84
84
84
84
84
04
04
04
ENDCHAR
STARTCHAR theta
ENCODING 952
SWIDTH 602 0
DWIDTH 8 0
BBX 6 11 1 0
BITMAP
30
48
84
84
84
FC
84
84
84
48
38
ENDCHAR
STARTCHAR iota
ENCODING 953
SWIDTH 602 0
DWIDTH 8 0
BBX 4 8 3 0
BITMAP
C0
40
40
40
40
40
40
30
ENDCHAR
STARTCHAR kappa
ENCODING 954
SWIDTH 602 0
DWIDTH 8 0
BBX 6 8 1 0
BITMAP
88
90
A0
E0
90
90
88
84
ENDCHAR
STARTCHAR lambda
ENCODING 955
SWIDTH 602 0
DWIDTH 8 0
BBX 7 11 1 0
BITMAP
40
60
30
10
30
38
28
4C
44
84
86
ENDCHAR
STARTCHAR uni03BC
ENCODING 956
SWIDTH 602 0
DWIDTH 8 0
BBX 7 11 1 -3
BITMAP
84
84
84
84
84
84
8C
FE
80
80
80
ENDCHAR
STARTCHAR nu
ENCODING 957
SWIDTH 602 0
DWIDTH 8 0
BBX 6 8 1 0
BITMAP
88
84
C4
44
44
6C
38
30
ENDCHAR
STARTCHAR xi
ENCODING 958
SWIDTH 602 0
DWIDTH 8 0
BBX 6 14 1 -3
BITMAP
7C
7C
40
C0
40
38
60
80
80
C0
7C
04
04
0C
ENDCHAR
STARTCHAR omicron
ENCODING 959
SWIDTH 602 0
DWIDTH 8 0
BBX 6 8 1 0
BITMAP
78
CC
84
84
84
84
CC
78
ENDCHAR
STARTCHAR pi
ENCODING 960
SWIDTH 602 0
DWIDTH 8 0
BBX 7 8 1 0
BITMAP
FE
FE
44
44
44
44
44
46
ENDCHAR
STARTCHAR rho
ENCODING 961
SWIDTH 602 0
DWIDTH 8 0
BBX 6 11 1 -3
BITMAP
78
C8
84
84
84
84
C8
F8
80
80
80
ENDCHAR
STARTCHAR sigma1
ENCODING 962
SWIDTH 602 0
DWIDTH 8 0
BBX 6 11 1 -3
BITMAP
3C
64
40
C0
C0
C0
40
38
04
04
08
ENDCHAR
STARTCHAR sigma
ENCODING 963
SWIDTH 602 0
DWIDTH 8 0
BBX 6 8 1 0
BITMAP
7C
C8
84
84
84
84
C8
78
ENDCHAR
STARTCHAR tau
ENCODING 964
SWIDTH 602 0
DWIDTH 8 0
BBX 6 8 2 0
BITMAP
FC
20
20
20
20
20
20
18
ENDCHAR
STARTCHAR upsilon
ENCODING 965
SWIDTH 602 0
DWIDTH 8 0
BBX 8 8 0 0
BITMAP
E6
22
23
23
23
22
26
1C
ENDCHAR
STARTCHAR phi
ENCODING 966
SWIDTH 602 0
DWIDTH 8 0
BBX 7 11 1 -3
BITMAP
3C
56
92
92
92
92
54
7C
10
10
10
ENDCHAR
STARTCHAR chi
ENCODING 967
SWIDTH 602 0
DWIDTH 8 0
BBX 7 11 1 -3
BITMAP
84
44
68
28
30
10
30
38
48
48
C6
ENDCHAR
STARTCHAR psi
ENCODING 968
SWIDTH 602 0
DWIDTH 8 0
BBX 7 11 1 -3
BITMAP
96
96
96
96
96
94
D4
78
10
10
10
ENDCHAR
STARTCHAR omega
ENCODING 969
SWIDTH 602 0
DWIDTH 8 0
BBX 8 8 0 0
BITMAP
62
43
43
49
C9
49
5B
7E
ENDCHAR
STARTCHAR iotadieresis
ENCODING 970
SWIDTH 602 0
DWIDTH 8 0
BBX 5 11 2 0
BITMAP
A0
00
00
60
20
20
20
20
20
20
18
ENDCHAR
STARTCHAR upsilondieresis
ENCODING 971
SWIDTH 602 0
DWIDTH 8 0
BBX 8 11 0 0
BITMAP
28
00
00
E6
22
23
23
23
22
26
1C
ENDCHAR
STARTCHAR omicrontonos
ENCODING 972
SWIDTH 602 0
DWIDTH 8 0
BBX 6 12 1 0
BITMAP
18
10
20
00
78
CC
84
84
84
84
CC
78
ENDCHAR
STARTCHAR upsilontonos
ENCODING 973
SWIDTH 602 0
DWIDTH 8 0
BBX 8 12 0 0
BITMAP
0C
08
10
00
E6
22
23
23
23
22
26
1C
ENDCHAR
STARTCHAR omegatonos
ENCODING 974
SWIDTH 602 0
DWIDTH 8 0
BBX 8 12 0 0
BITMAP
0C
08
10
00
62
43
43
49
C9
49
5B
7E
ENDCHAR
STARTCHAR uni03D0
ENCODING 976
SWIDTH 602 0
DWIDTH 8 0
BBX 6 11 1 0
BITMAP
30
78
C4
C4
88
F8
8C
84
C4
6C
78
ENDCHAR
STARTCHAR theta1
ENCODING 977
SWIDTH 602 0
DWIDTH 8 0
BBX 7 11 1 0
BITMAP
38
7C
44
44
66
BE
86
84
C4
6C
78
ENDCHAR
STARTCHAR Upsilon1
ENCODING 978
SWIDTH 602 0
DWIDTH 8 0
BBX 8 10 0 0
BITMAP
E7
35
18
18
18
18
18
18
18
18
ENDCHAR
STARTCHAR uni03D3
ENCODING 979
SWIDTH 602 0
DWIDTH 8 0
BBX 11 12 -3 0
BITMAP
6000
4000
9CE0
06A0
0300
0300
0300
0300
0300
0300
0300
0300
ENDCHAR
STARTCHAR uni03D4
ENCODING 980
SWIDTH 602 0
DWIDTH 8 0
BBX 8 12 0 0
BITMAP
14
00
E7
35
18
18
18
18
18
18
18
18
ENDCHAR
STARTCHAR phi1
ENCODING 981
SWIDTH 602 0
DWIDTH 8 0
BBX 7 13 1 -3
BITMAP
10
10
38
DC
94
96
96
96
D4
78
10
10
10
ENDCHAR
STARTCHAR omega1
ENCODING 982
SWIDTH 602 0
DWIDTH 8 0
BBX 8 8 0 0
BITMAP
FF
FF
43
4B
C9
5B
5F
76
ENDCHAR
STARTCHAR uni03D7
ENCODING 983
SWIDTH 602 0
DWIDTH 8 0
BBX 8 11 0 -3
BITMAP
61
B3
16
1C
3C
24
64
C7
02
02
0C
ENDCHAR
STARTCHAR uni03D8
ENCODING 984
SWIDTH 602 0
DWIDTH 8 0
BBX 7 13 1 -3
BITMAP
78
C4
84
86
86
86
86
84
CC
78
10
10
10
ENDCHAR
STARTCHAR uni03D9
ENCODING 985
SWIDTH 602 0
DWIDTH 8 0
BBX 6 11 1 -3
BITMAP
38
4C
C4
84
84
84
C4
78
10
10
10
ENDCHAR
STARTCHAR uni03DA
ENCODING 986
SWIDTH 602 0
DWIDTH 8 0
BBX 7 13 1 -3
BITMAP
3E
40
C0
80
80
80
80
C0
40
78
08
08
18
ENDCHAR
STARTCHAR uni03DB
ENCODING 987
SWIDTH 602 0
DWIDTH 8 0
BBX 6 11 1 -3
BITMAP
3C
60
C0
80
80
C0
40
78
08
08
18
ENDCHAR
STARTCHAR uni03DC
ENCODING 988
SWIDTH 602 0
DWIDTH 8 0
BBX 7 10 1 0
BITMAP
FE
80
80
80
FE
80
80
80
80
80
ENDCHAR
STARTCHAR uni03DD
ENCODING 989
SWIDTH 602 0
DWIDTH 8 0
BBX 7 14 0 -3
BITMAP
06
18
10
10
10
1C
10
10
10
10
10
10
30
E0
ENDCHAR
STARTCHAR uni03DE
ENCODING 990
SWIDTH 602 0
DWIDTH 8 0
BBX 7 10 1 0
BITMAP
C0
40
40
46
FC
E4
8C
08
08
0E
ENDCHAR
STARTCHAR uni03DF
ENCODING 991
SWIDTH 602 0
DWIDTH 8 0
BBX 6 11 1 0
BITMAP
20
60
40
40
C0
FC
04
0C
08
08
08
ENDCHAR
STARTCHAR uni03E0
ENCODING 992
SWIDTH 602 0
DWIDTH 8 0
BBX 8 13 0 -3
BITMAP
FC
66
62
67
6B
09
19
19
19
1B
03
02
06
ENDCHAR
STARTCHAR uni03E1
ENCODING 993
SWIDTH 602 0
DWIDTH 8 0
BBX 7 11 1 -3
BITMAP
80
60
10
18
38
2C
54
B6
02
02
02
ENDCHAR
STARTCHAR uni03F0
ENCODING 1008
SWIDTH 602 0
DWIDTH 8 0
BBX 8 8 0 0
BITMAP
61
B3
16
1C
3C
2C
64
C7
ENDCHAR
STARTCHAR uni03F1
ENCODING 1009
SWIDTH 602 0
DWIDTH 8 0
BBX 7 11 1 -3
BITMAP
38
4C
C4
C6
C6
C4
C4
F8
40
60
3C
ENDCHAR
STARTCHAR uni03F2
ENCODING 1010
SWIDTH 602 0
DWIDTH 8 0
BBX 6 8 1 0
BITMAP
38
44
80
80
80
80
44
38
ENDCHAR
STARTCHAR uni03F3
ENCODING 1011
SWIDTH 602 0
DWIDTH 8 0
BBX 4 14 1 -3
BITMAP
10
10
00
70
10
10
10
10
10
10
10
10
10
E0
ENDCHAR
STARTCHAR uni03F4
ENCODING 1012
SWIDTH 602 0
DWIDTH 8 0
BBX 7 10 1 0
BITMAP
78
C4
84
86
FE
86
86
84
CC
78
ENDCHAR
STARTCHAR uni03F5
ENCODING 1013
SWIDTH 602 0
DWIDTH 8 0
BBX 6 8 1 0
BITMAP
3C
60
C0
80
FC
C0
40
3C
ENDCHAR
STARTCHAR uni03F6
ENCODING 1014
SWIDTH 602 0
DWIDTH 8 0
BBX 6 8 1 0
BITMAP
F0
18
0C
04
FC
04
08
F8
ENDCHAR
STARTCHAR uni03F7
ENCODING 1015
SWIDTH 602 0
DWIDTH 8 0
BBX 7 10 1 0
BITMAP
80
FC
86
82
82
86
FC
80
80
80
ENDCHAR
STARTCHAR uni03F8
ENCODING 1016
SWIDTH 602 0
DWIDTH 8 0
BBX 6 14 1 -3
BITMAP
80
80
80
B8
C8
84
84
84
84
C8
F8
80
80
80
ENDCHAR
STARTCHAR uni03F9
ENCODING 1017
SWIDTH 602 0
DWIDTH 8 0
BBX 7 10 1 0
BITMAP
3C
42
80
80
80
80
80
80
42
3C
ENDCHAR
STARTCHAR uni03FA
ENCODING 1018
SWIDTH 602 0
DWIDTH 8 0
BBX 7 10 1 0
BITMAP
C6
EA
BA
B2
82
82
82
82
82
82
ENDCHAR
STARTCHAR uni03FB
ENCODING 1019
SWIDTH 602 0
DWIDTH 8 0
BBX 7 11 1 -3
BITMAP
C6
CE
BE
B6
86
86
86
86
80
80
80
ENDCHAR
STARTCHAR uni03FC
ENCODING 1020
SWIDTH 602 0
DWIDTH 8 0
BBX 7 11 1 -3
BITMAP
38
4C
C4
C6
C6
C4
C4
F8
C0
F8
C0
ENDCHAR
STARTCHAR uni03FD
ENCODING 1021
SWIDTH 602 0
DWIDTH 8 0
BBX 6 10 1 0
BITMAP
F8
0C
04
04
04
04
04
0C
08
F8
ENDCHAR
STARTCHAR uni03FE
ENCODING 1022
SWIDTH 602 0
DWIDTH 8 0
BBX 7 10 1 0
BITMAP
3C
42
80
80
98
98
80
80
42
3C
ENDCHAR
STARTCHAR uni03FF
ENCODING 1023
SWIDTH 602 0
DWIDTH 8 0
BBX 6 10 1 0
BITMAP
F8
0C
04
04
64
64
04
0C
08
F8
ENDCHAR
STARTCHAR uni0400
ENCODING 1024
SWIDTH 602 0
DWIDTH 8 0
BBX 7 13 1 0
BITMAP
60
30
00
FE
80
80
80
FE
80
80
80
80
FE
ENDCHAR
STARTCHAR uni0401
ENCODING 1025
SWIDTH 602 0
DWIDTH 8 0
BBX 7 12 1 0
BITMAP
28
00
FE
80
80
80
FE
80
80
80
80
FE
ENDCHAR
STARTCHAR uni0402
ENCODING 1026
SWIDTH 602 0
DWIDTH 8 0
BBX 8 13 0 -3
BITMAP
FC
60
60
60
7E
63
63
63
63
63
03
03
0E
ENDCHAR
STARTCHAR uni0403
ENCODING 1027
SWIDTH 602 0
DWIDTH 8 0
BBX 7 13 1 0
BITMAP
0C
18
00
FE
80
80
80
80
80
80
80
80
80
ENDCHAR
STARTCHAR uni0404
ENCODING 1028
SWIDTH 602 0
DWIDTH 8 0
BBX 7 10 1 0
BITMAP
3C
42
80
80
F8
80
80
C0
42
3C
ENDCHAR
STARTCHAR uni0405
ENCODING 1029
SWIDTH 602 0
DWIDTH 8 0
BBX 7 10 1 0
BITMAP
3C
C2
80
80
60
1C
02
02
86
7C
ENDCHAR
STARTCHAR uni0406
ENCODING 1030
SWIDTH 602 0
DWIDTH 8 0
BBX 5 10 2 0
BITMAP
F8
20
20
20
20
20
20
20
20
F8
ENDCHAR
STARTCHAR uni0407
ENCODING 1031
SWIDTH 602 0
DWIDTH 8 0
BBX 5 12 2 0
BITMAP
50
00
F8
20
20
20
20
20
20
20
20
F8
ENDCHAR
STARTCHAR uni0408
ENCODING 1032
SWIDTH 602 0
DWIDTH 8 0
BBX 6 10 1 0
BITMAP
3C
04
04
04
04
04
04
04
8C
78
ENDCHAR
STARTCHAR uni0409
ENCODING 1033
SWIDTH 602 0
DWIDTH 8 0
BBX 8 10 0 0
BITMAP
38
28
28
28
2E
29
29
29
69
CE
ENDCHAR
STARTCHAR uni040A
ENCODING 1034
SWIDTH 602 0
DWIDTH 8 0
BBX 8 10 0 0
BITMAP
C8
C8
C8
C8
FE
C9
C9
C9
C9
CE
ENDCHAR
STARTCHAR uni040B
ENCODING 1035
SWIDTH 602 0
DWIDTH 8 0
BBX 8 10 0 0
BITMAP
FC
60
60
60
7E
63
63
63
63
63
ENDCHAR
STARTCHAR uni040C
ENCODING 1036
SWIDTH 602 0
DWIDTH 8 0
BBX 7 13 1 0
BITMAP
18
30
00
84
88
90
A0
E0
90
98
88
84
82
ENDCHAR
STARTCHAR uni040D
ENCODING 1037
SWIDTH 602 0
DWIDTH 8 0
BBX 7 13 1 0
BITMAP
60
30
00
86
86
8A
8A
92
92
A2
A2
C2
C2
ENDCHAR
STARTCHAR uni040E
ENCODING 1038
SWIDTH 602 0
DWIDTH 8 0
BBX 7 13 1 0
BITMAP
48
30
00
82
44
44
24
28
18
18
10
10
60
ENDCHAR
STARTCHAR uni040F
ENCODING 1039
SWIDTH 602 0
DWIDTH 8 0
BBX 7 12 1 -2
BITMAP
86
86
86
86
86
86
86
86
86
FE
10
10
ENDCHAR
STARTCHAR uni0410
ENCODING 1040
SWIDTH 602 0
DWIDTH 8 0
BBX 7 10 1 0
BITMAP
10
28
28
28
28
44
7C
44
82
82
ENDCHAR
STARTCHAR uni0411
ENCODING 1041
SWIDTH 602 0
DWIDTH 8 0
BBX 7 10 1 0
BITMAP
FE
80
80
80
FC
86
82
82
86
FC
ENDCHAR
STARTCHAR uni0412
ENCODING 1042
SWIDTH 602 0
DWIDTH 8 0
BBX 7 10 1 0
BITMAP
FC
82
82
82
FC
86
82
82
86
FC
ENDCHAR
STARTCHAR uni0413
ENCODING 1043
SWIDTH 602 0
DWIDTH 8 0
BBX 7 10 1 0
BITMAP
FE
80
80
80
80
80
80
80
80
80
ENDCHAR
STARTCHAR uni0414
ENCODING 1044
SWIDTH 602 0
DWIDTH 8 0
BBX 8 12 0 -2
BITMAP
7E
42
42
42
42
42
42
42
42
FF
81
81
ENDCHAR
STARTCHAR uni0415
ENCODING 1045
SWIDTH 602 0
DWIDTH 8 0
BBX 7 10 1 0
BITMAP
FE
80
80
80
FE
80
80
80
80
FE
ENDCHAR
STARTCHAR uni0416
ENCODING 1046
SWIDTH 602 0
DWIDTH 8 0
BBX 7 10 1 0
BITMAP
92
D6
54
7C
7C
7C
54
92
92
92
ENDCHAR
STARTCHAR uni0417
ENCODING 1047
SWIDTH 602 0
DWIDTH 8 0
BBX 7 10 1 0
BITMAP
7C
82
02
06
38
06
02
02
86
7C
ENDCHAR
STARTCHAR uni0418
ENCODING 1048
SWIDTH 602 0
DWIDTH 8 0
BBX 7 10 1 0
BITMAP
86
86
8A
8A
92
92
A2
A2
C2
C2
ENDCHAR
STARTCHAR uni0419
ENCODING 1049
SWIDTH 602 0
DWIDTH 8 0
BBX 7 13 1 0
BITMAP
48
30
00
86
86
8A
8A
92
92
A2
A2
C2
C2
ENDCHAR
STARTCHAR uni041A
ENCODING 1050
SWIDTH 602 0
DWIDTH 8 0
BBX 7 10 1 0
BITMAP
84
88
90
A0
E0
90
98
88
84
82
ENDCHAR
STARTCHAR uni041B
ENCODING 1051
SWIDTH 602 0
DWIDTH 8 0
BBX 8 10 0 0
BITMAP
3F
21
21
21
21
21
21
21
61
C1
ENDCHAR
STARTCHAR uni041C
ENCODING 1052
SWIDTH 602 0
DWIDTH 8 0
BBX 7 10 1 0
BITMAP
C6
C6
AA
AA
AA
92
82
82
82
82
ENDCHAR
STARTCHAR uni041D
ENCODING 1053
SWIDTH 602 0
DWIDTH 8 0
BBX 7 10 1 0
BITMAP
82
82
82
82
FE
82
82
82
82
82
ENDCHAR
STARTCHAR uni041E
ENCODING 1054
SWIDTH 602 0
DWIDTH 8 0
BBX 7 10 1 0
BITMAP
38
44
82
82
82
82
82
82
44
38
ENDCHAR
STARTCHAR uni041F
ENCODING 1055
SWIDTH 602 0
DWIDTH 8 0
BBX 7 10 1 0
BITMAP
FE
82
82
82
82
82
82
82
82
82
ENDCHAR
STARTCHAR uni0420
ENCODING 1056
SWIDTH 602 0
DWIDTH 8 0
BBX 7 10 1 0
BITMAP
FC
86
82
82
86
FC
80
80
80
80
ENDCHAR
STARTCHAR uni0421
ENCODING 1057
SWIDTH 602 0
DWIDTH 8 0
BBX 7 10 1 0
BITMAP
3C
42
80
80
80
80
80
80
42
3C
ENDCHAR
STARTCHAR uni0422
ENCODING 1058
SWIDTH 602 0
DWIDTH 8 0
BBX 7 10 1 0
BITMAP
FE
10
10
10
10
10
10
10
10
10
ENDCHAR
STARTCHAR uni0423
ENCODING 1059
SWIDTH 602 0
DWIDTH 8 0
BBX 7 10 1 0
BITMAP
82
44
44
24
28
18
18
10
10
60
ENDCHAR
STARTCHAR uni0424
ENCODING 1060
SWIDTH 602 0
DWIDTH 8 0
BBX 7 10 1 0
BITMAP
10
7C
D6
92
92
92
92
D6
7C
10
ENDCHAR
STARTCHAR uni0425
ENCODING 1061
SWIDTH 602 0
DWIDTH 8 0
BBX 7 10 1 0
BITMAP
82
44
28
28
10
28
28
44
44
82
ENDCHAR
STARTCHAR uni0426
ENCODING 1062
SWIDTH 602 0
DWIDTH 8 0
BBX 8 12 1 -2
BITMAP
82
82
82
82
82
82
82
82
82
FF
01
01
ENDCHAR
STARTCHAR uni0427
ENCODING 1063
SWIDTH 602 0
DWIDTH 8 0
BBX 7 10 1 0
BITMAP
82
82
82
82
82
7E
02
02
02
02
ENDCHAR
STARTCHAR uni0428
ENCODING 1064
SWIDTH 602 0
DWIDTH 8 0
BBX 7 10 1 0
BITMAP
92
92
92
92
92
92
92
92
92
FE
ENDCHAR
STARTCHAR uni0429
ENCODING 1065
SWIDTH 602 0
DWIDTH 8 0
BBX 8 12 0 -2
BITMAP
92
92
92
92
92
92
92
92
92
FF
01
01
ENDCHAR
STARTCHAR uni042A
ENCODING 1066
SWIDTH 602 0
DWIDTH 8 0
BBX 8 10 0 0
BITMAP
E0
20
20
3C
23
21
21
21
23
3E
ENDCHAR
STARTCHAR uni042B
ENCODING 1067
SWIDTH 602 0
DWIDTH 8 0
BBX 8 10 0 0
BITMAP
81
81
81
F1
89
85
85
85
89
F1
ENDCHAR
STARTCHAR uni042C
ENCODING 1068
SWIDTH 602 0
DWIDTH 8 0
BBX 7 10 1 0
BITMAP
80
80
80
80
FC
86
82
82
86
FC
ENDCHAR
STARTCHAR uni042D
ENCODING 1069
SWIDTH 602 0
DWIDTH 8 0
BBX 7 10 1 0
BITMAP
78
84
02
02
7E
02
02
06
84
78
ENDCHAR
STARTCHAR uni042E
ENCODING 1070
SWIDTH 602 0
DWIDTH 8 0
BBX 7 10 1 0
BITMAP
9C
B4
A2
A2
E2
A2
A2
A2
B4
9C
ENDCHAR
STARTCHAR uni042F
ENCODING 1071
SWIDTH 602 0
DWIDTH 8 0
BBX 8 10 1 0
BITMAP
3F
61
41
41
61
3F
21
21
41
81
ENDCHAR
STARTCHAR uni0430
ENCODING 1072
SWIDTH 602 0
DWIDTH 8 0
BBX 6 8 1 0
BITMAP
38
44
04
7C
84
84
8C
74
ENDCHAR
STARTCHAR uni0431
ENCODING 1073
SWIDTH 602 0
DWIDTH 8 0
BBX 6 11 1 0
BITMAP
18
60
C0
F8
CC
84
84
84
84
CC
78
ENDCHAR
STARTCHAR uni0432
ENCODING 1074
SWIDTH 602 0
DWIDTH 8 0
BBX 6 8 1 0
BITMAP
F8
84
84
F8
84
84
84
F8
ENDCHAR
STARTCHAR uni0433
ENCODING 1075
SWIDTH 602 0
DWIDTH 8 0
BBX 5 8 2 0
BITMAP
F8
80
80
80
80
80
80
80
ENDCHAR
STARTCHAR uni0434
ENCODING 1076
SWIDTH 602 0
DWIDTH 8 0
BBX 7 10 1 -2
BITMAP
7C
44
44
44
44
44
44
FE
82
82
ENDCHAR
STARTCHAR uni0435
ENCODING 1077
SWIDTH 602 0
DWIDTH 8 0
BBX 6 8 1 0
BITMAP
78
4C
84
FC
80
80
44
38
ENDCHAR
STARTCHAR uni0436
ENCODING 1078
SWIDTH 602 0
DWIDTH 8 0
BBX 7 8 1 0
BITMAP
D6
54
7C
7C
7C
54
92
92
ENDCHAR
STARTCHAR uni0437
ENCODING 1079
SWIDTH 602 0
DWIDTH 8 0
BBX 6 8 1 0
BITMAP
78
84
04
38
0C
04
84
78
ENDCHAR
STARTCHAR uni0438
ENCODING 1080
SWIDTH 602 0
DWIDTH 8 0
BBX 6 8 1 0
BITMAP
84
8C
8C
94
A4
A4
C4
84
ENDCHAR
STARTCHAR uni0439
ENCODING 1081
SWIDTH 602 0
DWIDTH 8 0
BBX 6 11 1 0
BITMAP
48
30
00
84
8C
8C
94
A4
A4
C4
84
ENDCHAR
STARTCHAR uni043A
ENCODING 1082
SWIDTH 602 0
DWIDTH 8 0
BBX 6 8 1 0
BITMAP
88
90
A0
E0
90
90
88
84
ENDCHAR
STARTCHAR uni043B
ENCODING 1083
SWIDTH 602 0
DWIDTH 8 0
BBX 7 8 0 0
BITMAP
3E
22
22
22
22
22
62
C2
ENDCHAR
STARTCHAR uni043C
ENCODING 1084
SWIDTH 602 0
DWIDTH 8 0
BBX 7 8 1 0
BITMAP
82
C6
C6
AA
AA
92
82
82
ENDCHAR
STARTCHAR uni043D
ENCODING 1085
SWIDTH 602 0
DWIDTH 8 0
BBX 6 8 1 0
BITMAP
84
84
84
FC
84
84
84
84
ENDCHAR
STARTCHAR uni043E
ENCODING 1086
SWIDTH 602 0
DWIDTH 8 0
BBX 6 8 1 0
BITMAP
78
CC
84
84
84
84
CC
78
ENDCHAR
STARTCHAR uni043F
ENCODING 1087
SWIDTH 602 0
DWIDTH 8 0
BBX 6 8 1 0
BITMAP
FC
84
84
84
84
84
84
84
ENDCHAR
STARTCHAR uni0440
ENCODING 1088
SWIDTH 602 0
DWIDTH 8 0
BBX 6 11 1 -3
BITMAP
B8
C8
84
84
84
84
C8
F8
80
80
80
ENDCHAR
STARTCHAR uni0441
ENCODING 1089
SWIDTH 602 0
DWIDTH 8 0
BBX 6 8 1 0
BITMAP
38
44
80
80
80
80
44
38
ENDCHAR
STARTCHAR uni0442
ENCODING 1090
SWIDTH 602 0
DWIDTH 8 0
BBX 5 8 2 0
BITMAP
F8
20
20
20
20
20
20
20
ENDCHAR
STARTCHAR uni0443
ENCODING 1091
SWIDTH 602 0
DWIDTH 8 0
BBX 6 11 1 -3
BITMAP
84
44
48
48
28
30
10
10
10
20
60
ENDCHAR
STARTCHAR uni0444
ENCODING 1092
SWIDTH 602 0
DWIDTH 8 0
BBX 7 14 1 -3
BITMAP
10
10
10
7C
D6
92
92
92
92
D6
7C
10
10
10
ENDCHAR
STARTCHAR uni0445
ENCODING 1093
SWIDTH 602 0
DWIDTH 8 0
BBX 6 8 1 0
BITMAP
84
48
30
30
30
48
48
84
ENDCHAR
STARTCHAR uni0446
ENCODING 1094
SWIDTH 602 0
DWIDTH 8 0
BBX 7 10 1 -2
BITMAP
84
84
84
84
84
84
84
FE
02
02
ENDCHAR
STARTCHAR uni0447
ENCODING 1095
SWIDTH 602 0
DWIDTH 8 0
BBX 6 8 1 0
BITMAP
84
84
84
84
7C
04
04
04
ENDCHAR
STARTCHAR uni0448
ENCODING 1096
SWIDTH 602 0
DWIDTH 8 0
BBX 7 8 1 0
BITMAP
92
92
92
92
92
92
92
FE
ENDCHAR
STARTCHAR uni0449
ENCODING 1097
SWIDTH 602 0
DWIDTH 8 0
BBX 8 10 1 -2
BITMAP
92
92
92
92
92
92
92
FF
01
01
ENDCHAR
STARTCHAR uni044A
ENCODING 1098
SWIDTH 602 0
DWIDTH 8 0
BBX 8 8 0 0
BITMAP
E0
20
20
3E
21
21
21
3E
ENDCHAR
STARTCHAR uni044B
ENCODING 1099
SWIDTH 602 0
DWIDTH 8 0
BBX 7 8 1 0
BITMAP
82
82
82
F2
8A
8A
8A
F2
ENDCHAR
STARTCHAR uni044C
ENCODING 1100
SWIDTH 602 0
DWIDTH 8 0
BBX 6 8 1 0
BITMAP
80
80
80
F8
84
84
84
F8
ENDCHAR
STARTCHAR uni044D
ENCODING 1101
SWIDTH 602 0
DWIDTH 8 0
BBX 6 8 1 0
BITMAP
70
88
04
7C
04
04
88
70
ENDCHAR
STARTCHAR uni044E
ENCODING 1102
SWIDTH 602 0
DWIDTH 8 0
BBX 7 8 1 0
BITMAP
9C
B6
A2
A2
E2
A2
B6
9C
ENDCHAR
STARTCHAR uni044F
ENCODING 1103
SWIDTH 602 0
DWIDTH 8 0
BBX 5 8 1 0
BITMAP
78
88
88
88
78
48
48
88
ENDCHAR
STARTCHAR uni0450
ENCODING 1104
SWIDTH 602 0
DWIDTH 8 0
BBX 6 12 1 0
BITMAP
60
20
10
00
78
4C
84
FC
80
80
44
38
ENDCHAR
STARTCHAR uni0451
ENCODING 1105
SWIDTH 602 0
DWIDTH 8 0
BBX 6 10 1 0
BITMAP
50
00
78
4C
84
FC
80
80
44
38
ENDCHAR
STARTCHAR uni0452
ENCODING 1106
SWIDTH 602 0
DWIDTH 8 0
BBX 8 14 0 -3
BITMAP
20
20
20
FC
20
20
3E
22
23
23
22
02
06
08
ENDCHAR
STARTCHAR uni0453
ENCODING 1107
SWIDTH 602 0
DWIDTH 8 0
BBX 5 12 2 0
BITMAP
18
10
20
00
F8
80
80
80
80
80
80
80
ENDCHAR
STARTCHAR uni0454
ENCODING 1108
SWIDTH 602 0
DWIDTH 8 0
BBX 6 8 1 0
BITMAP
38
44
80
F8
80
80
44
38
ENDCHAR
STARTCHAR uni0455
ENCODING 1109
SWIDTH 602 0
DWIDTH 8 0
BBX 6 8 1 0
BITMAP
78
84
80
E0
1C
04
84
78
ENDCHAR
STARTCHAR uni0456
ENCODING 1110
SWIDTH 602 0
DWIDTH 8 0
BBX 7 11 1 0
BITMAP
10
10
00
70
10
10
10
10
10
10
FE
ENDCHAR
STARTCHAR uni0457
ENCODING 1111
SWIDTH 602 0
DWIDTH 8 0
BBX 7 11 1 0
BITMAP
28
00
00
70
10
10
10
10
10
10
FE
ENDCHAR
STARTCHAR uni0458
ENCODING 1112
SWIDTH 602 0
DWIDTH 8 0
BBX 4 14 1 -3
BITMAP
10
10
00
70
10
10
10
10
10
10
10
10
10
E0
ENDCHAR
STARTCHAR uni0459
ENCODING 1113
SWIDTH 602 0
DWIDTH 8 0
BBX 8 8 0 0
BITMAP
3C
2C
2C
2C
2F
2D
4D
CF
ENDCHAR
STARTCHAR uni045A
ENCODING 1114
SWIDTH 602 0
DWIDTH 8 0
BBX 8 8 0 0
BITMAP
C8
C8
C8
FC
CB
C9
C9
CE
ENDCHAR
STARTCHAR uni045B
ENCODING 1115
SWIDTH 602 0
DWIDTH 8 0
BBX 7 11 0 0
BITMAP
20
20
20
FC
20
20
3E
22
22
22
22
ENDCHAR
STARTCHAR uni045C
ENCODING 1116
SWIDTH 602 0
DWIDTH 8 0
BBX 6 12 1 0
BITMAP
18
10
20
00
88
90
A0
E0
90
90
88
84
ENDCHAR
STARTCHAR uni045D
ENCODING 1117
SWIDTH 602 0
DWIDTH 8 0
BBX 6 12 1 0
BITMAP
60
20
10
00
84
8C
8C
94
A4
A4
C4
84
ENDCHAR
STARTCHAR uni045E
ENCODING 1118
SWIDTH 602 0
DWIDTH 8 0
BBX 6 14 1 -3
BITMAP
48
30
00
84
44
48
48
28
30
10
10
10
20
60
ENDCHAR
STARTCHAR uni045F
ENCODING 1119
SWIDTH 602 0
DWIDTH 8 0
BBX 6 10 1 -2
BITMAP
C4
C4
C4
C4
C4
C4
C4
FC
10
10
ENDCHAR
STARTCHAR uni0462
ENCODING 1122
SWIDTH 602 0
DWIDTH 8 0
BBX 8 10 0 0
BITMAP
20
FC
20
20
3E
23
23
23
22
3E
ENDCHAR
STARTCHAR uni0463
ENCODING 1123
SWIDTH 602 0
DWIDTH 8 0
BBX 8 11 0 0
BITMAP
20
20
20
FC
20
20
3C
27
21
23
3E
ENDCHAR
STARTCHAR uni0472
ENCODING 1138
SWIDTH 602 0
DWIDTH 8 0
BBX 7 10 1 0
BITMAP
78
C4
84
86
FE
FE
86
84
CC
78
ENDCHAR
STARTCHAR uni0473
ENCODING 1139
SWIDTH 602 0
DWIDTH 8 0
BBX 6 8 1 0
BITMAP
38
4C
C4
84
FC
84
C4
78
ENDCHAR
STARTCHAR uni0490
ENCODING 1168
SWIDTH 602 0
DWIDTH 8 0
BBX 7 12 1 0
BITMAP
02
02
FE
80
80
80
80
80
80
80
80
80
ENDCHAR
STARTCHAR uni0491
ENCODING 1169
SWIDTH 602 0
DWIDTH 8 0
BBX 5 10 2 0
BITMAP
08
08
F8
80
80
80
80
80
80
80
ENDCHAR
STARTCHAR uni0492
ENCODING 1170
SWIDTH 602 0
DWIDTH 8 0
BBX 7 10 1 0
BITMAP
FE
C0
C0
FC
C0
C0
C0
C0
C0
C0
ENDCHAR
STARTCHAR uni0493
ENCODING 1171
SWIDTH 602 0
DWIDTH 8 0
BBX 6 8 1 0
BITMAP
7C
7C
40
F8
F8
40
40
40
ENDCHAR
STARTCHAR uni0494
ENCODING 1172
SWIDTH 602 0
DWIDTH 8 0
BBX 7 13 1 -3
BITMAP
FE
C0
C0
C0
FC
C4
C6
C6
C6
C6
06
04
18
ENDCHAR
STARTCHAR uni0495
ENCODING 1173
SWIDTH 602 0
DWIDTH 8 0
BBX 6 11 2 -3
BITMAP
F8
F8
80
80
F8
8C
8C
8C
0C
08
38
ENDCHAR
STARTCHAR uni0496
ENCODING 1174
SWIDTH 602 0
DWIDTH 8 0
BBX 8 12 0 -2
BITMAP
4B
4A
2A
2C
3C
3E
7A
4A
4B
C9
01
01
ENDCHAR
STARTCHAR uni0497
ENCODING 1175
SWIDTH 602 0
DWIDTH 8 0
BBX 7 10 1 -2
BITMAP
96
D4
5C
78
74
D4
94
92
02
02
ENDCHAR
STARTCHAR uni0498
ENCODING 1176
SWIDTH 602 0
DWIDTH 8 0
BBX 7 13 1 -3
BITMAP
7C
82
02
06
38
06
02
02
86
7C
08
08
38
ENDCHAR
STARTCHAR uni0499
ENCODING 1177
SWIDTH 602 0
DWIDTH 8 0
BBX 6 11 1 -3
BITMAP
78
84
04
38
0C
04
84
78
08
08
38
ENDCHAR
STARTCHAR uni049A
ENCODING 1178
SWIDTH 602 0
DWIDTH 8 0
BBX 7 12 1 -2
BITMAP
86
8C
98
B0
F0
D0
98
8C
84
86
02
02
ENDCHAR
STARTCHAR uni049B
ENCODING 1179
SWIDTH 602 0
DWIDTH 8 0
BBX 6 10 2 -2
BITMAP
8C
98
B0
E0
B0
90
88
8C
04
04
ENDCHAR
STARTCHAR uni04A2
ENCODING 1186
SWIDTH 602 0
DWIDTH 8 0
BBX 8 12 0 -2
BITMAP
C6
C6
C6
C6
FE
C6
C6
C6
C6
C7
01
01
ENDCHAR
STARTCHAR uni04A3
ENCODING 1187
SWIDTH 602 0
DWIDTH 8 0
BBX 7 10 1 -2
BITMAP
8C
8C
8C
FC
FC
8C
8C
8E
02
02
ENDCHAR
STARTCHAR uni04A4
ENCODING 1188
SWIDTH 602 0
DWIDTH 8 0
BBX 7 10 1 0
BITMAP
8E
88
88
88
F8
88
88
88
88
88
ENDCHAR
STARTCHAR uni04A5
ENCODING 1189
SWIDTH 602 0
DWIDTH 8 0
BBX 7 8 1 0
BITMAP
8E
88
88
F8
88
88
88
88
ENDCHAR
STARTCHAR uni04AA
ENCODING 1194
SWIDTH 602 0
DWIDTH 8 0
BBX 7 13 1 -3
BITMAP
3C
42
80
80
80
80
80
80
42
3C
04
04
1C
ENDCHAR
STARTCHAR uni04AB
ENCODING 1195
SWIDTH 602 0
DWIDTH 8 0
BBX 6 11 1 -3
BITMAP
38
44
80
80
80
80
44
38
04
04
1C
ENDCHAR
STARTCHAR uni04AC
ENCODING 1196
SWIDTH 602 0
DWIDTH 8 0
BBX 8 12 0 -2
BITMAP
FF
08
08
08
08
08
08
08
08
0C
04
04
ENDCHAR
STARTCHAR uni04AD
ENCODING 1197
SWIDTH 602 0
DWIDTH 8 0
BBX 5 10 2 -2
BITMAP
F8
F8
20
20
20
20
20
30
10
10
ENDCHAR
STARTCHAR uni04AE
ENCODING 1198
SWIDTH 602 0
DWIDTH 8 0
BBX 7 10 1 0
BITMAP
82
44
44
28
38
10
10
10
10
10
ENDCHAR
STARTCHAR uni04AF
ENCODING 1199
SWIDTH 602 0
DWIDTH 8 0
BBX 7 11 1 -3
BITMAP
86
84
C4
4C
68
28
30
30
10
10
10
ENDCHAR
STARTCHAR uni04B0
ENCODING 1200
SWIDTH 602 0
DWIDTH 8 0
BBX 7 10 1 0
BITMAP
86
C4
4C
68
30
10
7C
10
10
10
ENDCHAR
STARTCHAR uni04B1
ENCODING 1201
SWIDTH 602 0
DWIDTH 8 0
BBX 7 11 1 -3
BITMAP
86
84
C4
4C
68
28
30
30
78
10
10
ENDCHAR
STARTCHAR uni04B2
ENCODING 1202
SWIDTH 602 0
DWIDTH 8 0
BBX 8 12 0 -2
BITMAP
43
22
34
1C
18
1C
34
26
62
C1
01
01
ENDCHAR
STARTCHAR uni04B3
ENCODING 1203
SWIDTH 602 0
DWIDTH 8 0
BBX 7 10 1 -2
BITMAP
86
4C
68
30
30
68
4C
86
02
02
ENDCHAR
STARTCHAR uni04BA
ENCODING 1210
SWIDTH 602 0
DWIDTH 8 0
BBX 6 10 1 0
BITMAP
80
80
80
80
FC
C4
84
84
84
84
ENDCHAR
STARTCHAR uni04BB
ENCODING 1211
SWIDTH 602 0
DWIDTH 8 0
BBX 6 11 1 0
BITMAP
80
80
80
B8
C4
84
84
84
84
84
84
ENDCHAR
STARTCHAR uni04C0
ENCODING 1216
SWIDTH 602 0
DWIDTH 8 0
BBX 5 10 2 0
BITMAP
F8
20
20
20
20
20
20
20
20
F8
ENDCHAR
STARTCHAR uni04C1
ENCODING 1217
SWIDTH 602 0
DWIDTH 8 0
BBX 7 13 1 0
BITMAP
48
30
00
92
D6
54
7C
7C
7C
54
92
92
92
ENDCHAR
STARTCHAR uni04C2
ENCODING 1218
SWIDTH 602 0
DWIDTH 8 0
BBX 7 11 1 0
BITMAP
48
30
00
D6
54
7C
7C
7C
54
92
92
ENDCHAR
STARTCHAR uni04C3
ENCODING 1219
SWIDTH 602 0
DWIDTH 8 0
BBX 7 13 1 -3
BITMAP
86
8C
98
B0
F8
CC
84
84
84
84
04
0C
18
ENDCHAR
STARTCHAR uni04C4
ENCODING 1220
SWIDTH 602 0
DWIDTH 8 0
BBX 6 11 2 -3
BITMAP
8C
98
A0
C0
F8
88
88
88
08
08
38
ENDCHAR
STARTCHAR uni04C7
ENCODING 1223
SWIDTH 602 0
DWIDTH 8 0
BBX 7 13 1 -3
BITMAP
86
86
86
86
FE
86
86
86
86
84
04
0C
18
ENDCHAR
STARTCHAR uni04C8
ENCODING 1224
SWIDTH 602 0
DWIDTH 8 0
BBX 6 11 1 -3
BITMAP
C4
C4
C4
FC
FC
C4
C4
C4
04
04
38
ENDCHAR
STARTCHAR uni04CB
ENCODING 1227
SWIDTH 602 0
DWIDTH 8 0
BBX 6 12 1 -2
BITMAP
84
84
84
84
CC
7C
04
04
04
0C
08
08
ENDCHAR
STARTCHAR uni04CC
ENCODING 1228
SWIDTH 602 0
DWIDTH 8 0
BBX 6 10 1 -2
BITMAP
C4
C4
C4
CC
7C
04
04
0C
08
08
ENDCHAR
STARTCHAR uni04CF
ENCODING 1231
SWIDTH 602 0
DWIDTH 8 0
BBX 1 11 3 0
BITMAP
80
80
80
80
80
80
80
80
80
80
80
ENDCHAR
STARTCHAR uni04D0
ENCODING 1232
SWIDTH 602 0
DWIDTH 8 0
BBX 7 13 1 0
BITMAP
44
38
00
10
28
28
28
28
44
7C
44
82
82
ENDCHAR
STARTCHAR uni04D1
ENCODING 1233
SWIDTH 602 0
DWIDTH 8 0
BBX 6 11 1 0
BITMAP
48
30
00
38
44
04
7C
84
84
8C
74
ENDCHAR
STARTCHAR uni04D2
ENCODING 1234
SWIDTH 602 0
DWIDTH 8 0
BBX 7 12 1 0
BITMAP
28
00
10
28
28
28
28
44
7C
44
82
82
ENDCHAR
STARTCHAR uni04D3
ENCODING 1235
SWIDTH 602 0
DWIDTH 8 0
BBX 6 11 1 0
BITMAP
50
00
00
38
44
04
7C
84
84
8C
74
ENDCHAR
STARTCHAR uni04D4
ENCODING 1236
SWIDTH 602 0
DWIDTH 8 0
BBX 8 10 0 0
BITMAP
3F
28
28
28
4F
48
78
48
88
8F
ENDCHAR
STARTCHAR uni04D5
ENCODING 1237
SWIDTH 602 0
DWIDTH 8 0
BBX 6 8 1 0
BITMAP
D8
24
24
7C
A0
A0
A0
DC
ENDCHAR
STARTCHAR uni04D6
ENCODING 1238
SWIDTH 602 0
DWIDTH 8 0
BBX 7 13 1 0
BITMAP
48
30
00
FE
80
80
80
FE
80
80
80
80
FE
ENDCHAR
STARTCHAR uni04D7
ENCODING 1239
SWIDTH 602 0
DWIDTH 8 0
BBX 6 11 1 0
BITMAP
48
30
00
78
4C
84
FC
80
80
44
38
ENDCHAR
STARTCHAR uni04D8
ENCODING 1240
SWIDTH 602 0
DWIDTH 8 0
BBX 7 10 1 0
BITMAP
38
44
02
02
FE
82
82
82
44
38
ENDCHAR
STARTCHAR uni04D9
ENCODING 1241
SWIDTH 602 0
DWIDTH 8 0
BBX 6 8 1 0
BITMAP
70
88
04
04
FC
84
C8
78
ENDCHAR
STARTCHAR uni04DA
ENCODING 1242
SWIDTH 602 0
DWIDTH 8 0
BBX 7 12 1 0
BITMAP
28
00
38
44
02
02
FE
82
82
82
44
38
ENDCHAR
STARTCHAR uni04DB
ENCODING 1243
SWIDTH 602 0
DWIDTH 8 0
BBX 6 11 1 0
BITMAP
50
00
00
70
88
04
04
FC
84
C8
78
ENDCHAR
STARTCHAR uni04DC
ENCODING 1244
SWIDTH 602 0
DWIDTH 8 0
BBX 7 12 1 0
BITMAP
28
00
92
D6
54
7C
7C
7C
54
92
92
92
ENDCHAR
STARTCHAR uni04DD
ENCODING 1245
SWIDTH 602 0
DWIDTH 8 0
BBX 7 11 1 0
BITMAP
50
00
00
D6
54
7C
7C
7C
54
92
92
ENDCHAR
STARTCHAR uni04DE
ENCODING 1246
SWIDTH 602 0
DWIDTH 8 0
BBX 7 12 1 0
BITMAP
28
00
7C
82
02
06
38
06
02
02
86
7C
ENDCHAR
STARTCHAR uni04DF
ENCODING 1247
SWIDTH 602 0
DWIDTH 8 0
BBX 6 11 1 0
BITMAP
50
00
00
78
84
04
38
0C
04
84
78
ENDCHAR
STARTCHAR uni04E0
ENCODING 1248
SWIDTH 602 0
DWIDTH 8 0
BBX 8 10 0 0
BITMAP
7E
06
04
08
1E
03
01
C1
C3
7E
ENDCHAR
STARTCHAR uni04E1
ENCODING 1249
SWIDTH 602 0
DWIDTH 8 0
BBX 7 11 1 -3
BITMAP
FC
0C
08
10
20
38
04
06
06
8C
F8
ENDCHAR
STARTCHAR uni04E2
ENCODING 1250
SWIDTH 602 0
DWIDTH 8 0
BBX 7 13 1 0
BITMAP
78
00
00
86
86
8A
8A
92
92
A2
A2
C2
C2
ENDCHAR
STARTCHAR uni04E3
ENCODING 1251
SWIDTH 602 0
DWIDTH 8 0
BBX 6 10 1 0
BITMAP
78
00
84
8C
8C
94
A4
A4
C4
84
ENDCHAR
STARTCHAR uni04E4
ENCODING 1252
SWIDTH 602 0
DWIDTH 8 0
BBX 7 12 1 0
BITMAP
28
00
86
86
8A
8A
92
92
A2
A2
C2
C2
ENDCHAR
STARTCHAR uni04E5
ENCODING 1253
SWIDTH 602 0
DWIDTH 8 0
BBX 6 11 1 0
BITMAP
50
00
00
84
8C
8C
94
A4
A4
C4
84
ENDCHAR
STARTCHAR uni04E6
ENCODING 1254
SWIDTH 602 0
DWIDTH 8 0
BBX 7 12 1 0
BITMAP
28
00
38
44
82
82
82
82
82
82
44
38
ENDCHAR
STARTCHAR uni04E7
ENCODING 1255
SWIDTH 602 0
DWIDTH 8 0
BBX 6 11 1 0
BITMAP
30
00
00
78
CC
84
84
84
84
CC
78
ENDCHAR
STARTCHAR uni04E8
ENCODING 1256
SWIDTH 602 0
DWIDTH 8 0
BBX 7 10 1 0
BITMAP
78
C4
84
86
FE
86
86
84
CC
78
ENDCHAR
STARTCHAR uni04E9
ENCODING 1257
SWIDTH 602 0
DWIDTH 8 0
BBX 6 8 1 0
BITMAP
38
4C
C4
84
FC
84
C4
78
ENDCHAR
STARTCHAR uni04EA
ENCODING 1258
SWIDTH 602 0
DWIDTH 8 0
BBX 7 12 1 0
BITMAP
28
00
78
C4
84
86
FE
86
86
84
CC
78
ENDCHAR
STARTCHAR uni04EB
ENCODING 1259
SWIDTH 602 0
DWIDTH 8 0
BBX 6 11 1 0
BITMAP
50
00
00
38
4C
C4
84
FC
84
C4
78
ENDCHAR
STARTCHAR uni04EC
ENCODING 1260
SWIDTH 602 0
DWIDTH 8 0
BBX 7 12 1 0
BITMAP
28
00
78
84
02
02
7E
02
02
06
84
78
ENDCHAR
STARTCHAR uni04ED
ENCODING 1261
SWIDTH 602 0
DWIDTH 8 0
BBX 6 11 1 0
BITMAP
50
00
00
70
88
04
7C
04
04
88
70
ENDCHAR
STARTCHAR uni04EE
ENCODING 1262
SWIDTH 602 0
DWIDTH 8 0
BBX 7 13 1 0
BITMAP
78
00
00
82
44
44
24
28
18
18
10
10
60
ENDCHAR
STARTCHAR uni04EF
ENCODING 1263
SWIDTH 602 0
DWIDTH 8 0
BBX 6 13 1 -3
BITMAP
78
00
84
44
48
48
28
30
10
10
10
20
60
ENDCHAR
STARTCHAR uni04F0
ENCODING 1264
SWIDTH 602 0
DWIDTH 8 0
BBX 7 12 1 0
BITMAP
28
00
82
44
44
24
28
18
18
10
10
60
ENDCHAR
STARTCHAR uni04F1
ENCODING 1265
SWIDTH 602 0
DWIDTH 8 0
BBX 6 14 1 -3
BITMAP
50
00
00
84
44
48
48
28
30
10
10
10
20
60
ENDCHAR
STARTCHAR uni04F2
ENCODING 1266
SWIDTH 602 0
DWIDTH 8 0
BBX 7 13 1 0
BITMAP
3C
78
00
82
44
44
24
28
18
18
10
10
60
ENDCHAR
STARTCHAR uni04F3
ENCODING 1267
SWIDTH 602 0
DWIDTH 8 0
BBX 6 14 1 -3
BITMAP
2C
48
50
84
44
48
48
28
30
10
10
10
20
60
ENDCHAR
STARTCHAR uni04F4
ENCODING 1268
SWIDTH 602 0
DWIDTH 8 0
BBX 7 12 1 0
BITMAP
28
00
82
82
82
82
82
7E
02
02
02
02
ENDCHAR
STARTCHAR uni04F5
ENCODING 1269
SWIDTH 602 0
DWIDTH 8 0
BBX 6 11 1 0
BITMAP
50
00
00
84
84
84
84
7C
04
04
04
ENDCHAR
STARTCHAR uni04F6
ENCODING 1270
SWIDTH 602 0
DWIDTH 8 0
BBX 7 12 1 -2
BITMAP
FE
C0
C0
C0
C0
C0
C0
C0
C0
E0
20
20
ENDCHAR
STARTCHAR uni04F7
ENCODING 1271
SWIDTH 602 0
DWIDTH 8 0
BBX 5 10 2 -2
BITMAP
F8
F8
80
80
80
80
80
C0
40
40
ENDCHAR
STARTCHAR uni04F8
ENCODING 1272
SWIDTH 602 0
DWIDTH 8 0
BBX 8 12 0 0
BITMAP
14
00
81
81
81
F1
89
85
85
85
89
F1
ENDCHAR
STARTCHAR uni04F9
ENCODING 1273
SWIDTH 602 0
DWIDTH 8 0
BBX 7 11 1 0
BITMAP
50
00
00
82
82
82
F2
8A
8A
8A
F2
ENDCHAR
STARTCHAR uni0510
ENCODING 1296
SWIDTH 602 0
DWIDTH 8 0
BBX 6 10 1 0
BITMAP
7C
80
80
80
70
C0
80
80
C4
78
ENDCHAR
STARTCHAR uni0511
ENCODING 1297
SWIDTH 602 0
DWIDTH 8 0
BBX 6 8 1 0
BITMAP
7C
80
80
70
80
80
84
78
ENDCHAR
STARTCHAR uni051A
ENCODING 1306
SWIDTH 602 0
DWIDTH 8 0
BBX 7 12 1 -2
BITMAP
38
44
82
82
82
82
82
82
44
3C
0C
04
ENDCHAR
STARTCHAR uni051B
ENCODING 1307
SWIDTH 602 0
DWIDTH 8 0
BBX 6 11 1 -3
BITMAP
74
4C
84
84
84
84
4C
74
04
04
04
ENDCHAR
STARTCHAR uni051C
ENCODING 1308
SWIDTH 602 0
DWIDTH 8 0
BBX 8 10 0 0
BITMAP
81
81
81
99
5A
5A
5A
24
24
24
ENDCHAR
STARTCHAR uni051D
ENCODING 1309
SWIDTH 602 0
DWIDTH 8 0
BBX 8 8 0 0
BITMAP
81
81
5A
5A
5A
5A
24
24
ENDCHAR
STARTCHAR uni0531
ENCODING 1329
SWIDTH 602 0
DWIDTH 8 0
BBX 7 10 1 0
BITMAP
84
84
84
84
84
84
84
94
DC
7E
ENDCHAR
STARTCHAR uni0532
ENCODING 1330
SWIDTH 602 0
DWIDTH 8 0
BBX 7 10 1 0
BITMAP
7C
84
84
84
80
80
FE
80
80
80
ENDCHAR
STARTCHAR uni0533
ENCODING 1331
SWIDTH 602 0
DWIDTH 8 0
BBX 7 10 1 0
BITMAP
F8
8C
84
84
84
C4
7E
04
04
04
ENDCHAR
STARTCHAR uni0534
ENCODING 1332
SWIDTH 602 0
DWIDTH 8 0
BBX 8 10 0 0
BITMAP
7C
46
C6
C6
06
06
07
06
06
06
ENDCHAR
STARTCHAR uni0535
ENCODING 1333
SWIDTH 602 0
DWIDTH 8 0
BBX 7 10 1 0
BITMAP
80
80
FE
80
80
80
84
84
C4
78
ENDCHAR
STARTCHAR uni0536
ENCODING 1334
SWIDTH 602 0
DWIDTH 8 0
BBX 7 10 1 0
BITMAP
7C
C4
86
86
06
06
04
0C
98
FE
ENDCHAR
STARTCHAR uni0537
ENCODING 1335
SWIDTH 602 0
DWIDTH 8 0
BBX 7 10 1 0
BITMAP
80
80
FE
80
80
80
80
80
80
FC
ENDCHAR
STARTCHAR uni0538
ENCODING 1336
SWIDTH 602 0
DWIDTH 8 0
BBX 7 10 1 0
BITMAP
7C
84
84
84
80
80
80
80
80
FE
ENDCHAR
STARTCHAR uni0539
ENCODING 1337
SWIDTH 602 0
DWIDTH 8 0
BBX 8 10 0 0
BITMAP
7C
46
C2
C2
CF
D2
D2
D2
D2
DE
ENDCHAR
STARTCHAR uni053A
ENCODING 1338
SWIDTH 602 0
DWIDTH 8 0
BBX 7 10 1 0
BITMAP
04
04
3E
E4
84
84
84
84
8C
78
ENDCHAR
STARTCHAR uni053B
ENCODING 1339
SWIDTH 602 0
DWIDTH 8 0
BBX 6 10 1 0
BITMAP
80
80
B8
CC
84
84
84
80
80
80
ENDCHAR
STARTCHAR uni053C
ENCODING 1340
SWIDTH 602 0
DWIDTH 8 0
BBX 6 10 1 0
BITMAP
80
80
80
80
80
80
80
80
80
FC
ENDCHAR
STARTCHAR uni053D
ENCODING 1341
SWIDTH 602 0
DWIDTH 8 0
BBX 7 10 1 0
BITMAP
80
80
E2
E2
A2
A2
A2
A2
B6
9C
ENDCHAR
STARTCHAR uni053E
ENCODING 1342
SWIDTH 602 0
DWIDTH 8 0
BBX 8 10 0 0
BITMAP
DF
F0
FE
43
41
41
41
41
63
3E
ENDCHAR
STARTCHAR uni053F
ENCODING 1343
SWIDTH 602 0
DWIDTH 8 0
BBX 6 10 1 0
BITMAP
80
80
84
84
84
C4
7C
34
04
04
ENDCHAR
STARTCHAR uni0540
ENCODING 1344
SWIDTH 602 0
DWIDTH 8 0
BBX 7 10 1 0
BITMAP
0C
04
0C
38
60
C0
80
E0
3C
06
ENDCHAR
STARTCHAR uni0541
ENCODING 1345
SWIDTH 602 0
DWIDTH 8 0
BBX 7 10 1 0
BITMAP
7C
C4
86
86
06
06
74
9C
9C
F6
ENDCHAR
STARTCHAR uni0542
ENCODING 1346
SWIDTH 602 0
DWIDTH 8 0
BBX 8 10 0 0
BITMAP
7C
46
C6
C6
06
06
06
06
06
07
ENDCHAR
STARTCHAR uni0543
ENCODING 1347
SWIDTH 602 0
DWIDTH 8 0
BBX 7 10 1 0
BITMAP
CE
78
30
30
70
58
C8
8C
86
FE
ENDCHAR
STARTCHAR uni0544
ENCODING 1348
SWIDTH 602 0
DWIDTH 8 0
BBX 8 10 0 0
BITMAP
C7
C6
C6
C6
C6
C6
C6
C6
46
7C
ENDCHAR
STARTCHAR uni0545
ENCODING 1349
SWIDTH 602 0
DWIDTH 8 0
BBX 8 10 0 0
BITMAP
3E
22
03
02
FC
03
03
41
63
3E
ENDCHAR
STARTCHAR uni0546
ENCODING 1350
SWIDTH 602 0
DWIDTH 8 0
BBX 8 10 0 0
BITMAP
E0
20
20
20
20
20
21
21
23
1E
ENDCHAR
STARTCHAR uni0547
ENCODING 1351
SWIDTH 602 0
DWIDTH 8 0
BBX 7 10 1 0
BITMAP
E0
3C
44
C0
80
80
86
86
C4
78
ENDCHAR
STARTCHAR uni0548
ENCODING 1352
SWIDTH 602 0
DWIDTH 8 0
BBX 6 10 1 0
BITMAP
7C
C4
84
84
84
84
84
84
84
84
ENDCHAR
STARTCHAR uni0549
ENCODING 1353
SWIDTH 602 0
DWIDTH 8 0
BBX 7 10 1 0
BITMAP
7C
C4
86
86
06
06
04
CC
78
0C
ENDCHAR
STARTCHAR uni054A
ENCODING 1354
SWIDTH 602 0
DWIDTH 8 0
BBX 8 10 0 0
BITMAP
3E
4B
49
C9
09
09
09
01
01
01
ENDCHAR
STARTCHAR uni054B
ENCODING 1355
SWIDTH 602 0
DWIDTH 8 0
BBX 7 10 1 0
BITMAP
7C
C4
86
86
E6
16
14
1C
98
FE
ENDCHAR
STARTCHAR uni054C
ENCODING 1356
SWIDTH 602 0
DWIDTH 8 0
BBX 8 10 0 0
BITMAP
7C
46
C6
C6
C6
C6
C7
C6
C6
C6
ENDCHAR
STARTCHAR uni054D
ENCODING 1357
SWIDTH 602 0
DWIDTH 8 0
BBX 6 10 1 0
BITMAP
84
84
84
84
84
84
84
84
C4
78
ENDCHAR
STARTCHAR uni054E
ENCODING 1358
SWIDTH 602 0
DWIDTH 8 0
BBX 8 10 0 0
BITMAP
06
06
C6
C6
C6
C6
7E
36
06
07
ENDCHAR
STARTCHAR uni054F
ENCODING 1359
SWIDTH 602 0
DWIDTH 8 0
BBX 7 10 1 0
BITMAP
7C
C4
80
C0
78
0C
06
86
C4
7C
ENDCHAR
STARTCHAR uni0550
ENCODING 1360
SWIDTH 602 0
DWIDTH 8 0
BBX 6 10 1 0
BITMAP
7C
C4
84
84
80
80
80
80
80
80
ENDCHAR
STARTCHAR uni0551
ENCODING 1361
SWIDTH 602 0
DWIDTH 8 0
BBX 8 10 0 0
BITMAP
3E
22
63
22
FC
03
01
41
63
3E
ENDCHAR
STARTCHAR uni0552
ENCODING 1362
SWIDTH 602 0
DWIDTH 8 0
BBX 7 10 1 0
BITMAP
80
80
FE
FE
80
80
80
80
80
80
ENDCHAR
STARTCHAR uni0553
ENCODING 1363
SWIDTH 602 0
DWIDTH 8 0
BBX 8 10 0 0
BITMAP
08
7E
4B
49
C9
49
4B
4A
3E
08
ENDCHAR
STARTCHAR uni0554
ENCODING 1364
SWIDTH 602 0
DWIDTH 8 0
BBX 8 10 0 0
BITMAP
3E
23
21
21
37
2C
20
FF
20
20
ENDCHAR
STARTCHAR uni0555
ENCODING 1365
SWIDTH 602 0
DWIDTH 8 0
BBX 7 10 1 0
BITMAP
38
44
82
82
82
82
82
82
44
38
ENDCHAR
STARTCHAR uni0556
ENCODING 1366
SWIDTH 602 0
DWIDTH 8 0
BBX 8 10 0 0
BITMAP
78
48
7C
0E
0B
09
C9
49
4B
7E
ENDCHAR
STARTCHAR uni0559
ENCODING 1369
SWIDTH 602 0
DWIDTH 8 0
BBX 2 4 3 7
BITMAP
40
80
80
40
ENDCHAR
STARTCHAR uni055A
ENCODING 1370
SWIDTH 602 0
DWIDTH 8 0
BBX 2 3 3 7
BITMAP
40
40
80
ENDCHAR
STARTCHAR uni055B
ENCODING 1371
SWIDTH 602 0
DWIDTH 8 0
BBX 3 3 2 9
BITMAP
60
40
80
ENDCHAR
STARTCHAR uni055C
ENCODING 1372
SWIDTH 602 0
DWIDTH 8 0
BBX 5 4 2 9
BITMAP
08
18
70
80
ENDCHAR
STARTCHAR uni055D
ENCODING 1373
SWIDTH 602 0
DWIDTH 8 0
BBX 3 3 3 9
BITMAP
C0
40
20
ENDCHAR
STARTCHAR uni055E
ENCODING 1374
SWIDTH 602 0
DWIDTH 8 0
BBX 6 3 1 9
BITMAP
7C
44
9C
ENDCHAR
STARTCHAR uni055F
ENCODING 1375
SWIDTH 602 0
DWIDTH 8 0
BBX 6 2 1 9
BITMAP
80
FC
ENDCHAR
STARTCHAR uni0561
ENCODING 1377
SWIDTH 602 0
DWIDTH 8 0
BBX 7 8 1 0
BITMAP
92
92
92
92
92
92
96
FA
ENDCHAR
STARTCHAR uni0562
ENCODING 1378
SWIDTH 602 0
DWIDTH 8 0
BBX 6 11 1 -3
BITMAP
F8
CC
C4
C4
C4
C0
C0
FC
C0
C0
C0
ENDCHAR
STARTCHAR uni0563
ENCODING 1379
SWIDTH 602 0
DWIDTH 8 0
BBX 7 11 1 -3
BITMAP
74
CC
8C
8C
84
8C
8C
76
04
04
04
ENDCHAR
STARTCHAR uni0564
ENCODING 1380
SWIDTH 602 0
DWIDTH 8 0
BBX 7 11 1 -3
BITMAP
B8
C8
8C
8C
8C
8C
8C
8E
0C
0C
0C
ENDCHAR
STARTCHAR uni0565
ENCODING 1381
SWIDTH 602 0
DWIDTH 8 0
BBX 6 11 1 0
BITMAP
80
80
80
FC
80
80
84
84
84
CC
74
ENDCHAR
STARTCHAR uni0566
ENCODING 1382
SWIDTH 602 0
DWIDTH 8 0
BBX 7 11 1 -3
BITMAP
74
CC
8C
8C
84
8C
8C
74
04
04
06
ENDCHAR
STARTCHAR uni0567
ENCODING 1383
SWIDTH 602 0
DWIDTH 8 0
BBX 6 11 1 0
BITMAP
C0
C0
C0
FC
C0
C0
C0
C0
C0
C0
F8
ENDCHAR
STARTCHAR uni0568
ENCODING 1384
SWIDTH 602 0
DWIDTH 8 0
BBX 6 11 1 -3
BITMAP
F8
CC
C4
C4
C4
C4
C4
C4
C0
C0
FC
ENDCHAR
STARTCHAR uni0569
ENCODING 1385
SWIDTH 602 0
DWIDTH 8 0
BBX 8 11 0 -3
BITMAP
DC
E6
C2
C2
CF
D2
D2
DC
C0
C0
C0
ENDCHAR
STARTCHAR uni056A
ENCODING 1386
SWIDTH 602 0
DWIDTH 8 0
BBX 7 11 1 0
BITMAP
04
04
04
3E
C4
84
84
84
8C
88
78
ENDCHAR
STARTCHAR uni056B
ENCODING 1387
SWIDTH 602 0
DWIDTH 8 0
BBX 6 14 1 -3
BITMAP
C0
C0
C0
F8
CC
C4
C4
C4
C4
C4
C4
C0
C0
C0
ENDCHAR
STARTCHAR uni056C
ENCODING 1388
SWIDTH 602 0
DWIDTH 8 0
BBX 4 11 2 -3
BITMAP
C0
C0
C0
C0
C0
C0
C0
C0
C0
C0
F0
ENDCHAR
STARTCHAR uni056D
ENCODING 1389
SWIDTH 602 0
DWIDTH 8 0
BBX 7 14 1 -3
BITMAP
80
80
80
E2
B2
92
92
92
92
96
9A
80
80
80
ENDCHAR
STARTCHAR uni056E
ENCODING 1390
SWIDTH 602 0
DWIDTH 8 0
BBX 6 11 1 0
BITMAP
20
60
60
3C
6C
C4
84
84
84
C4
78
ENDCHAR
STARTCHAR uni056F
ENCODING 1391
SWIDTH 602 0
DWIDTH 8 0
BBX 6 14 1 -3
BITMAP
C0
C0
C0
C4
C4
C4
C4
C4
C4
CC
74
04
04
04
ENDCHAR
STARTCHAR uni0570
ENCODING 1392
SWIDTH 602 0
DWIDTH 8 0
BBX 6 11 1 0
BITMAP
80
80
80
B8
C4
84
84
84
84
84
84
ENDCHAR
STARTCHAR uni0571
ENCODING 1393
SWIDTH 602 0
DWIDTH 8 0
BBX 6 11 1 0
BITMAP
20
60
68
10
28
44
C4
84
C4
CC
7C
ENDCHAR
STARTCHAR uni0572
ENCODING 1394
SWIDTH 602 0
DWIDTH 8 0
BBX 7 11 1 -3
BITMAP
B8
C8
8C
8C
8C
8C
8C
8C
0C
0C
0E
ENDCHAR
STARTCHAR uni0573
ENCODING 1395
SWIDTH 602 0
DWIDTH 8 0
BBX 6 11 1 0
BITMAP
04
18
20
F0
58
44
C4
C4
C4
C4
7C
ENDCHAR
STARTCHAR uni0574
ENCODING 1396
SWIDTH 602 0
DWIDTH 8 0
BBX 7 11 1 0
BITMAP
0E
0C
0C
8C
8C
8C
8C
8C
8C
8C
FC
ENDCHAR
STARTCHAR uni0575
ENCODING 1397
SWIDTH 602 0
DWIDTH 8 0
BBX 4 11 2 -3
BITMAP
10
10
10
10
10
10
10
10
10
10
E0
ENDCHAR
STARTCHAR uni0576
ENCODING 1398
SWIDTH 602 0
DWIDTH 8 0
BBX 7 11 1 0
BITMAP
C0
40
40
46
46
46
46
46
46
46
7E
ENDCHAR
STARTCHAR uni0577
ENCODING 1399
SWIDTH 602 0
DWIDTH 8 0
BBX 6 11 1 -3
BITMAP
78
CC
04
04
0C
08
10
20
40
C0
FC
ENDCHAR
STARTCHAR uni0578
ENCODING 1400
SWIDTH 602 0
DWIDTH 8 0
BBX 6 8 1 0
BITMAP
B8
C4
84
84
84
84
84
84
ENDCHAR
STARTCHAR uni0579
ENCODING 1401
SWIDTH 602 0
DWIDTH 8 0
BBX 5 11 2 -3
BITMAP
40
40
C0
70
30
20
40
C0
80
80
F8
ENDCHAR
STARTCHAR uni057A
ENCODING 1402
SWIDTH 602 0
DWIDTH 8 0
BBX 7 11 1 -3
BITMAP
92
92
92
92
92
92
96
FA
02
02
02
ENDCHAR
STARTCHAR uni057B
ENCODING 1403
SWIDTH 602 0
DWIDTH 8 0
BBX 6 11 1 -3
BITMAP
38
CC
84
C4
44
28
30
20
40
C0
FC
ENDCHAR
STARTCHAR uni057C
ENCODING 1404
SWIDTH 602 0
DWIDTH 8 0
BBX 7 8 1 0
BITMAP
B8
CC
84
84
84
8C
88
9E
ENDCHAR
STARTCHAR uni057D
ENCODING 1405
SWIDTH 602 0
DWIDTH 8 0
BBX 6 8 1 0
BITMAP
84
84
84
84
84
84
8C
74
ENDCHAR
STARTCHAR uni057E
ENCODING 1406
SWIDTH 602 0
DWIDTH 8 0
BBX 7 14 1 -3
BITMAP
0C
0C
0C
8C
8C
8C
8C
8C
8C
8C
FC
0C
0C
0E
ENDCHAR
STARTCHAR uni057F
ENCODING 1407
SWIDTH 602 0
DWIDTH 8 0
BBX 7 8 1 0
BITMAP
9C
96
92
92
92
92
92
F2
ENDCHAR
STARTCHAR uni0580
ENCODING 1408
SWIDTH 602 0
DWIDTH 8 0
BBX 6 11 1 -3
BITMAP
F8
CC
C4
C4
C4
C4
C4
C4
C0
C0
C0
ENDCHAR
STARTCHAR uni0581
ENCODING 1409
SWIDTH 602 0
DWIDTH 8 0
BBX 6 11 1 -3
BITMAP
74
4C
84
84
84
84
4C
74
04
44
38
ENDCHAR
STARTCHAR uni0582
ENCODING 1410
SWIDTH 602 0
DWIDTH 8 0
BBX 5 8 2 0
BITMAP
80
80
80
80
80
80
80
F8
ENDCHAR
STARTCHAR uni0583
ENCODING 1411
SWIDTH 602 0
DWIDTH 8 0
BBX 7 14 1 -3
BITMAP
10
10
10
9C
96
92
92
92
92
92
F2
10
10
10
ENDCHAR
STARTCHAR uni0584
ENCODING 1412
SWIDTH 602 0
DWIDTH 8 0
BBX 7 11 1 -3
BITMAP
F8
EC
C4
C6
C6
C6
C4
FC
C0
FE
C0
ENDCHAR
STARTCHAR uni0585
ENCODING 1413
SWIDTH 602 0
DWIDTH 8 0
BBX 6 8 1 0
BITMAP
78
CC
84
84
84
84
CC
78
ENDCHAR
STARTCHAR uni0586
ENCODING 1414
SWIDTH 602 0
DWIDTH 8 0
BBX 8 14 0 -3
BITMAP
38
58
58
7C
1E
19
19
19
19
DB
7E
18
18
18
ENDCHAR
STARTCHAR uni0587
ENCODING 1415
SWIDTH 602 0
DWIDTH 8 0
BBX 7 11 1 0
BITMAP
80
80
80
88
88
88
88
88
88
88
FE
ENDCHAR
STARTCHAR uni0589
ENCODING 1417
SWIDTH 602 0
DWIDTH 8 0
BBX 1 6 4 0
BITMAP
80
80
00
00
80
80
ENDCHAR
STARTCHAR uni058A
ENCODING 1418
SWIDTH 602 0
DWIDTH 8 0
BBX 4 1 2 3
BITMAP
F0
ENDCHAR
STARTCHAR uni0606
ENCODING 1542
SWIDTH 602 0
DWIDTH 8 0
BBX 8 12 0 0
BITMAP
96
48
48
48
28
20
23
14
14
14
0C
08
ENDCHAR
STARTCHAR uni0607
ENCODING 1543
SWIDTH 602 0
DWIDTH 8 0
BBX 8 12 0 0
BITMAP
8C
4C
50
50
2C
20
23
14
14
14
0C
08
ENDCHAR
STARTCHAR uni0609
ENCODING 1545
SWIDTH 602 0
DWIDTH 8 0
BBX 7 9 1 0
BITMAP
88
98
10
30
20
60
40
92
92
ENDCHAR
STARTCHAR uni060A
ENCODING 1546
SWIDTH 602 0
DWIDTH 8 0
BBX 8 9 0 0
BITMAP
90
90
20
20
20
40
40
55
95
ENDCHAR
STARTCHAR uni060C
ENCODING 1548
SWIDTH 602 0
DWIDTH 8 0
BBX 2 3 3 0
BITMAP
40
C0
C0
ENDCHAR
STARTCHAR uni0615
ENCODING 1557
SWIDTH 602 0
DWIDTH 8 0
BBX 3 3 3 9
BITMAP
80
E0
E0
ENDCHAR
STARTCHAR uni061B
ENCODING 1563
SWIDTH 602 0
DWIDTH 8 0
BBX 2 9 3 0
BITMAP
40
40
C0
C0
00
00
00
C0
C0
ENDCHAR
STARTCHAR uni061F
ENCODING 1567
SWIDTH 602 0
DWIDTH 8 0
BBX 5 10 2 0
BITMAP
F8
80
80
C0
60
20
20
00
20
20
ENDCHAR
STARTCHAR uni0621
ENCODING 1569
SWIDTH 602 0
DWIDTH 8 0
BBX 4 6 3 1
BITMAP
70
D0
80
C0
70
E0
ENDCHAR
STARTCHAR uni0622
ENCODING 1570
SWIDTH 602 0
DWIDTH 8 0
BBX 5 13 2 0
BITMAP
88
70
20
20
20
20
20
20
20
20
20
20
20
ENDCHAR
STARTCHAR uni0623
ENCODING 1571
SWIDTH 602 0
DWIDTH 8 0
BBX 2 14 3 0
BITMAP
C0
80
C0
40
40
40
40
40
40
40
40
40
40
40
ENDCHAR
STARTCHAR uni0624
ENCODING 1572
SWIDTH 602 0
DWIDTH 8 0
BBX 6 11 1 -3
BITMAP
18
10
18
00
3C
24
34
1C
04
1C
F0
ENDCHAR
STARTCHAR uni0625
ENCODING 1573
SWIDTH 602 0
DWIDTH 8 0
BBX 2 15 3 -4
BITMAP
40
40
40
40
40
40
40
40
40
40
40
00
C0
80
C0
ENDCHAR
STARTCHAR uni0626
ENCODING 1574
SWIDTH 602 0
DWIDTH 8 0
BBX 8 9 0 -2
BITMAP
30
20
37
04
07
C1
83
66
3C
ENDCHAR
STARTCHAR uni0627
ENCODING 1575
SWIDTH 602 0
DWIDTH 8 0
BBX 1 11 4 0
BITMAP
80
80
80
80
80
80
80
80
80
80
80
ENDCHAR
STARTCHAR uni0628
ENCODING 1576
SWIDTH 602 0
DWIDTH 8 0
BBX 8 6 0 -2
BITMAP
01
C1
43
7E
00
08
ENDCHAR
STARTCHAR uni0629
ENCODING 1577
SWIDTH 602 0
DWIDTH 8 0
BBX 5 7 2 0
BITMAP
50
00
E0
90
88
88
F0
ENDCHAR
STARTCHAR uni062A
ENCODING 1578
SWIDTH 602 0
DWIDTH 8 0
BBX 8 5 0 0
BITMAP
14
01
C1
43
7E
ENDCHAR
STARTCHAR uni062B
ENCODING 1579
SWIDTH 602 0
DWIDTH 8 0
BBX 8 7 0 0
BITMAP
08
00
14
01
C1
43
7E
ENDCHAR
STARTCHAR uni062C
ENCODING 1580
SWIDTH 602 0
DWIDTH 8 0
BBX 7 9 1 -3
BITMAP
FC
38
60
C0
80
88
80
C0
7E
ENDCHAR
STARTCHAR uni062D
ENCODING 1581
SWIDTH 602 0
DWIDTH 8 0
BBX 7 9 1 -3
BITMAP
FC
38
60
C0
80
80
80
C0
7E
ENDCHAR
STARTCHAR uni062E
ENCODING 1582
SWIDTH 602 0
DWIDTH 8 0
BBX 7 11 1 -3
BITMAP
20
00
FC
38
60
C0
80
80
80
C0
7E
ENDCHAR
STARTCHAR uni062F
ENCODING 1583
SWIDTH 602 0
DWIDTH 8 0
BBX 5 6 2 0
BITMAP
20
10
18
08
18
F0
ENDCHAR
STARTCHAR uni0630
ENCODING 1584
SWIDTH 602 0
DWIDTH 8 0
BBX 5 8 2 0
BITMAP
20
00
20
10
18
08
18
F0
ENDCHAR
STARTCHAR uni0631
ENCODING 1585
SWIDTH 602 0
DWIDTH 8 0
BBX 7 7 0 -3
BITMAP
02
02
02
02
06
0C
F8
ENDCHAR
STARTCHAR uni0632
ENCODING 1586
SWIDTH 602 0
DWIDTH 8 0
BBX 7 9 0 -3
BITMAP
02
00
02
02
02
02
06
0C
F8
ENDCHAR
STARTCHAR uni0633
ENCODING 1587
SWIDTH 602 0
DWIDTH 8 0
BBX 10 8 -2 -3
BITMAP
0040
0A40
0B40
4B40
4FC0
C800
5000
7000
ENDCHAR
STARTCHAR uni0634
ENCODING 1588
SWIDTH 602 0
DWIDTH 8 0
BBX 10 11 -2 -3
BITMAP
0400
0000
0A00
0040
0A40
0B40
4B40
4FC0
C800
5000
7000
ENDCHAR
STARTCHAR uni0635
ENCODING 1589
SWIDTH 602 0
DWIDTH 8 0
BBX 10 7 -2 -3
BITMAP
03C0
0E40
4CC0
CF80
C800
D800
7000
ENDCHAR
STARTCHAR uni0636
ENCODING 1590
SWIDTH 602 0
DWIDTH 8 0
BBX 10 9 -2 -3
BITMAP
0800
0000
03C0
0E40
4CC0
CF80
C800
D800
7000
ENDCHAR
STARTCHAR uni0637
ENCODING 1591
SWIDTH 602 0
DWIDTH 8 0
BBX 8 11 0 0
BITMAP
20
20
20
20
20
20
20
2F
39
33
FE
ENDCHAR
STARTCHAR uni0638
ENCODING 1592
SWIDTH 602 0
DWIDTH 8 0
BBX 8 11 0 0
BITMAP
20
20
20
20
20
28
20
2F
39
33
FE
ENDCHAR
STARTCHAR uni0639
ENCODING 1593
SWIDTH 602 0
DWIDTH 8 0
BBX 7 10 1 -3
BITMAP
70
40
C4
7C
60
C0
80
80
C0
7E
ENDCHAR
STARTCHAR uni063A
ENCODING 1594
SWIDTH 602 0
DWIDTH 8 0
BBX 7 12 1 -3
BITMAP
20
00
70
40
C4
7C
60
C0
80
80
C0
7E
ENDCHAR
STARTCHAR uni0640
ENCODING 1600
SWIDTH 602 0
DWIDTH 8 0
BBX 9 1 0 0
BITMAP
FF80
ENDCHAR
STARTCHAR uni0641
ENCODING 1601
SWIDTH 602 0
DWIDTH 8 0
BBX 8 9 0 -1
BITMAP
04
00
0E
0B
99
8F
83
FE
38
ENDCHAR
STARTCHAR uni0642
ENCODING 1602
SWIDTH 602 0
DWIDTH 8 0
BBX 8 12 0 -3
BITMAP
0A
00
04
1E
1B
1F
45
C3
82
C6
7C
30
ENDCHAR
STARTCHAR uni0643
ENCODING 1603
SWIDTH 602 0
DWIDTH 8 0
BBX 8 11 0 0
BITMAP
01
01
01
01
31
11
31
01
81
83
7E
ENDCHAR
STARTCHAR uni0644
ENCODING 1604
SWIDTH 602 0
DWIDTH 8 0
BBX 8 13 0 -2
BITMAP
03
03
03
03
03
03
03
03
03
42
C2
46
7C
ENDCHAR
STARTCHAR uni0645
ENCODING 1605
SWIDTH 602 0
DWIDTH 8 0
BBX 7 8 1 -3
BITMAP
1C
24
26
FC
80
80
80
80
ENDCHAR
STARTCHAR uni0646
ENCODING 1606
SWIDTH 602 0
DWIDTH 8 0
BBX 8 8 0 -2
BITMAP
10
03
01
41
C1
C3
42
7C
ENDCHAR
STARTCHAR uni0647
ENCODING 1607
SWIDTH 602 0
DWIDTH 8 0
BBX 5 5 2 0
BITMAP
E0
90
88
88
F0
ENDCHAR
STARTCHAR uni0648
ENCODING 1608
SWIDTH 602 0
DWIDTH 8 0
BBX 6 7 1 -3
BITMAP
3C
24
34
1C
04
1C
F0
ENDCHAR
STARTCHAR uni0649
ENCODING 1609
SWIDTH 602 0
DWIDTH 8 0
BBX 8 7 0 -2
BITMAP
07
04
07
C1
83
66
3C
ENDCHAR
STARTCHAR uni064A
ENCODING 1610
SWIDTH 602 0
DWIDTH 8 0
BBX 8 8 0 -3
BITMAP
07
04
07
C1
83
66
3C
14
ENDCHAR
STARTCHAR uni064B
ENCODING 1611
SWIDTH 602 0
DWIDTH 8 0
BBX 4 3 2 8
BITMAP
F0
30
C0
ENDCHAR
STARTCHAR uni064C
ENCODING 1612
SWIDTH 602 0
DWIDTH 8 0
BBX 4 4 2 8
BITMAP
30
30
A0
40
ENDCHAR
STARTCHAR uni064D
ENCODING 1613
SWIDTH 602 0
DWIDTH 8 0
BBX 4 3 2 -3
BITMAP
30
C0
70
ENDCHAR
STARTCHAR uni064E
ENCODING 1614
SWIDTH 602 0
DWIDTH 8 0
BBX 4 2 2 8
BITMAP
30
C0
ENDCHAR
STARTCHAR uni064F
ENCODING 1615
SWIDTH 602 0
DWIDTH 8 0
BBX 4 4 2 8
BITMAP
30
30
20
C0
ENDCHAR
STARTCHAR uni0650
ENCODING 1616
SWIDTH 602 0
DWIDTH 8 0
BBX 4 2 2 -2
BITMAP
10
E0
ENDCHAR
STARTCHAR uni0651
ENCODING 1617
SWIDTH 602 0
DWIDTH 8 0
BBX 4 4 2 8
BITMAP
30
B0
B0
40
ENDCHAR
STARTCHAR uni0652
ENCODING 1618
SWIDTH 602 0
DWIDTH 8 0
BBX 4 3 2 9
BITMAP
70
90
70
ENDCHAR
STARTCHAR uni0653
ENCODING 1619
SWIDTH 602 0
DWIDTH 8 0
BBX 5 2 2 8
BITMAP
88
70
ENDCHAR
STARTCHAR uni0654
ENCODING 1620
SWIDTH 602 0
DWIDTH 8 0
BBX 2 3 3 8
BITMAP
C0
80
C0
ENDCHAR
STARTCHAR uni0655
ENCODING 1621
SWIDTH 602 0
DWIDTH 8 0
BBX 2 3 3 -4
BITMAP
C0
80
C0
ENDCHAR
STARTCHAR uni065A
ENCODING 1626
SWIDTH 602 0
DWIDTH 8 0
BBX 3 2 3 9
BITMAP
A0
C0
ENDCHAR
STARTCHAR uni0660
ENCODING 1632
SWIDTH 602 0
DWIDTH 8 0
BBX 2 2 3 3
BITMAP
C0
C0
ENDCHAR
STARTCHAR uni0661
ENCODING 1633
SWIDTH 602 0
DWIDTH 8 0
BBX 3 9 3 0
BITMAP
80
C0
40
40
40
60
60
60
60
ENDCHAR
STARTCHAR uni0662
ENCODING 1634
SWIDTH 602 0
DWIDTH 8 0
BBX 6 9 1 0
BITMAP
C4
44
7C
40
60
20
20
20
20
ENDCHAR
STARTCHAR uni0663
ENCODING 1635
SWIDTH 602 0
DWIDTH 8 0
BBX 7 9 1 0
BITMAP
96
D4
7C
40
60
60
20
20
20
ENDCHAR
STARTCHAR uni0664
ENCODING 1636
SWIDTH 602 0
DWIDTH 8 0
BBX 5 9 2 0
BITMAP
30
60
80
60
E0
80
80
88
78
ENDCHAR
STARTCHAR uni0665
ENCODING 1637
SWIDTH 602 0
DWIDTH 8 0
BBX 6 9 1 0
BITMAP
30
68
48
44
C4
C4
C4
4C
78
ENDCHAR
STARTCHAR uni0666
ENCODING 1638
SWIDTH 602 0
DWIDTH 8 0
BBX 6 9 1 0
BITMAP
F8
78
08
08
0C
0C
04
04
04
ENDCHAR
STARTCHAR uni0667
ENCODING 1639
SWIDTH 602 0
DWIDTH 8 0
BBX 6 9 1 0
BITMAP
84
44
48
68
28
38
30
30
10
ENDCHAR
STARTCHAR uni0668
ENCODING 1640
SWIDTH 602 0
DWIDTH 8 0
BBX 6 9 1 0
BITMAP
10
30
30
38
38
68
48
44
84
ENDCHAR
STARTCHAR uni0669
ENCODING 1641
SWIDTH 602 0
DWIDTH 8 0
BBX 6 9 1 0
BITMAP
70
D8
88
C8
38
0C
0C
04
04
ENDCHAR
STARTCHAR uni066A
ENCODING 1642
SWIDTH 602 0
DWIDTH 8 0
BBX 6 9 1 0
BITMAP
C4
C8
08
10
10
20
20
44
44
ENDCHAR
STARTCHAR uni066B
ENCODING 1643
SWIDTH 602 0
DWIDTH 8 0
BBX 4 6 2 -2
BITMAP
10
10
10
30
E0
80
ENDCHAR
STARTCHAR uni066C
ENCODING 1644
SWIDTH 602 0
DWIDTH 8 0
BBX 2 3 3 7
BITMAP
40
40
80
ENDCHAR
STARTCHAR uni066D
ENCODING 1645
SWIDTH 602 0
DWIDTH 8 0
BBX 5 5 2 2
BITMAP
20
20
F8
70
50
ENDCHAR
STARTCHAR uni0674
ENCODING 1652
SWIDTH 602 0
DWIDTH 8 0
BBX 2 3 3 9
BITMAP
C0
80
C0
ENDCHAR
STARTCHAR uni0679
ENCODING 1657
SWIDTH 602 0
DWIDTH 8 0
BBX 8 8 0 0
BITMAP
10
1C
14
08
01
C1
43
7E
ENDCHAR
STARTCHAR uni067A
ENCODING 1658
SWIDTH 602 0
DWIDTH 8 0
BBX 8 7 0 0
BITMAP
08
00
08
01
C1
43
7E
ENDCHAR
STARTCHAR uni067B
ENCODING 1659
SWIDTH 602 0
DWIDTH 8 0
BBX 8 8 0 -4
BITMAP
01
C1
43
7E
00
08
00
08
ENDCHAR
STARTCHAR uni067E
ENCODING 1662
SWIDTH 602 0
DWIDTH 8 0
BBX 8 8 0 -4
BITMAP
01
C1
43
7E
00
14
00
08
ENDCHAR
STARTCHAR uni067F
ENCODING 1663
SWIDTH 602 0
DWIDTH 8 0
BBX 8 7 0 0
BITMAP
14
00
14
01
C1
43
7E
ENDCHAR
STARTCHAR uni0680
ENCODING 1664
SWIDTH 602 0
DWIDTH 8 0
BBX 8 8 0 -4
BITMAP
01
C1
43
7E
00
14
00
14
ENDCHAR
STARTCHAR uni0683
ENCODING 1667
SWIDTH 602 0
DWIDTH 8 0
BBX 7 9 1 -3
BITMAP
FC
38
60
C0
94
80
80
C0
7E
ENDCHAR
STARTCHAR uni0684
ENCODING 1668
SWIDTH 602 0
DWIDTH 8 0
BBX 7 9 1 -3
BITMAP
FC
38
60
C0
88
80
88
C0
7E
ENDCHAR
STARTCHAR uni0686
ENCODING 1670
SWIDTH 602 0
DWIDTH 8 0
BBX 7 9 1 -3
BITMAP
FC
38
60
C0
94
80
88
C0
7E
ENDCHAR
STARTCHAR uni0687
ENCODING 1671
SWIDTH 602 0
DWIDTH 8 0
BBX 7 9 1 -3
BITMAP
FC
38
60
C0
94
80
94
C0
7E
ENDCHAR
STARTCHAR uni0691
ENCODING 1681
SWIDTH 602 0
DWIDTH 8 0
BBX 8 11 0 -3
BITMAP
04
07
05
02
02
02
02
02
06
0C
F8
ENDCHAR
STARTCHAR uni0698
ENCODING 1688
SWIDTH 602 0
DWIDTH 8 0
BBX 8 11 0 -3
BITMAP
02
00
05
00
02
02
02
02
06
0C
F8
ENDCHAR
STARTCHAR uni06A4
ENCODING 1700
SWIDTH 602 0
DWIDTH 8 0
BBX 8 11 0 -1
BITMAP
04
00
0A
00
0E
0B
99
8F
83
FE
38
ENDCHAR
STARTCHAR uni06A9
ENCODING 1705
SWIDTH 602 0
DWIDTH 8 0
BBX 9 11 0 -1
BITMAP
0080
0100
0600
0400
0400
0200
C100
8100
C300
7E00
1800
ENDCHAR
STARTCHAR uni06AF
ENCODING 1711
SWIDTH 602 0
DWIDTH 8 0
BBX 10 13 0 -1
BITMAP
00C0
0180
0280
0500
0600
0400
0400
0200
C100
8100
C300
7E00
1800
ENDCHAR
STARTCHAR uni06BE
ENCODING 1726
SWIDTH 602 0
DWIDTH 8 0
BBX 8 7 0 0
BITMAP
10
18
1C
36
15
9D
FF
ENDCHAR
STARTCHAR uni06CC
ENCODING 1740
SWIDTH 602 0
DWIDTH 8 0
BBX 8 7 0 -2
BITMAP
07
04
07
C1
83
66
3C
ENDCHAR
STARTCHAR uni06F0
ENCODING 1776
SWIDTH 602 0
DWIDTH 8 0
BBX 2 2 3 3
BITMAP
C0
C0
ENDCHAR
STARTCHAR uni06F1
ENCODING 1777
SWIDTH 602 0
DWIDTH 8 0
BBX 3 9 3 0
BITMAP
80
C0
40
40
40
60
60
60
60
ENDCHAR
STARTCHAR uni06F2
ENCODING 1778
SWIDTH 602 0
DWIDTH 8 0
BBX 6 9 1 0
BITMAP
C4
44
7C
40
60
20
20
20
20
ENDCHAR
STARTCHAR uni06F3
ENCODING 1779
SWIDTH 602 0
DWIDTH 8 0
BBX 7 9 1 0
BITMAP
96
D4
7C
40
60
60
20
20
20
ENDCHAR
STARTCHAR uni06F4
ENCODING 1780
SWIDTH 602 0
DWIDTH 8 0
BBX 6 9 1 0
BITMAP
DC
50
7C
7C
20
20
20
20
20
ENDCHAR
STARTCHAR uni06F5
ENCODING 1781
SWIDTH 602 0
DWIDTH 8 0
BBX 6 9 1 0
BITMAP
30
78
4C
C4
C4
84
84
F4
7C
ENDCHAR
STARTCHAR uni06F6
ENCODING 1782
SWIDTH 602 0
DWIDTH 8 0
BBX 5 9 2 0
BITMAP
70
40
C0
48
78
60
40
C0
80
ENDCHAR
STARTCHAR uni06F7
ENCODING 1783
SWIDTH 602 0
DWIDTH 8 0
BBX 6 9 1 0
BITMAP
84
44
48
68
28
38
30
30
10
ENDCHAR
STARTCHAR uni06F8
ENCODING 1784
SWIDTH 602 0
DWIDTH 8 0
BBX 6 9 1 0
BITMAP
10
30
30
38
38
68
48
44
84
ENDCHAR
STARTCHAR uni06F9
ENCODING 1785
SWIDTH 602 0
DWIDTH 8 0
BBX 6 9 1 0
BITMAP
70
D8
88
C8
38
0C
0C
04
04
ENDCHAR
STARTCHAR uni0E81
ENCODING 3713
SWIDTH 602 0
DWIDTH 8 0
BBX 7 8 0 0
BITMAP
FC
A2
E2
22
22
E2
A2
E2
ENDCHAR
STARTCHAR uni0E82
ENCODING 3714
SWIDTH 602 0
DWIDTH 8 0
BBX 7 8 1 0
BITMAP
7C
C6
A6
CC
38
C0
8C
F2
ENDCHAR
STARTCHAR uni0E84
ENCODING 3716
SWIDTH 602 0
DWIDTH 8 0
BBX 7 8 1 0
BITMAP
78
C4
84
E6
E6
86
F6
F6
ENDCHAR
STARTCHAR uni0E87
ENCODING 3719
SWIDTH 602 0
DWIDTH 8 0
BBX 5 11 2 -3
BITMAP
F0
B0
D8
18
18
18
18
18
18
98
F0
ENDCHAR
STARTCHAR uni0E88
ENCODING 3720
SWIDTH 602 0
DWIDTH 8 0
BBX 7 8 1 0
BITMAP
78
C4
86
BE
2E
16
06
06
ENDCHAR
STARTCHAR uni0E8A
ENCODING 3722
SWIDTH 602 0
DWIDTH 8 0
BBX 7 11 1 -3
BITMAP
7C
C4
A6
CC
70
C4
8C
FC
06
02
02
ENDCHAR
STARTCHAR uni0E8D
ENCODING 3725
SWIDTH 602 0
DWIDTH 8 0
BBX 7 8 1 0
BITMAP
E6
E6
86
C6
66
84
84
78
ENDCHAR
STARTCHAR uni0E94
ENCODING 3732
SWIDTH 602 0
DWIDTH 8 0
BBX 6 8 1 0
BITMAP
78
84
84
84
84
E4
A4
E4
ENDCHAR
STARTCHAR uni0E95
ENCODING 3733
SWIDTH 602 0
DWIDTH 8 0
BBX 7 8 1 0
BITMAP
EC
AE
96
86
86
C6
A6
E6
ENDCHAR
STARTCHAR uni0E96
ENCODING 3734
SWIDTH 602 0
DWIDTH 8 0
BBX 7 11 0 -3
BITMAP
FC
B2
62
22
22
22
3A
3A
02
02
02
ENDCHAR
STARTCHAR uni0E97
ENCODING 3735
SWIDTH 602 0
DWIDTH 8 0
BBX 6 8 1 0
BITMAP
FC
F4
74
D4
94
94
94
64
ENDCHAR
STARTCHAR uni0E99
ENCODING 3737
SWIDTH 602 0
DWIDTH 8 0
BBX 7 8 1 0
BITMAP
E6
A6
E6
26
26
26
66
DC
ENDCHAR
STARTCHAR uni0E9A
ENCODING 3738
SWIDTH 602 0
DWIDTH 8 0
BBX 7 8 1 0
BITMAP
E6
A6
E6
46
86
86
84
7C
ENDCHAR
STARTCHAR uni0E9B
ENCODING 3739
SWIDTH 602 0
DWIDTH 8 0
BBX 7 11 1 0
BITMAP
06
06
06
E6
A6
E6
46
86
86
84
7C
ENDCHAR
STARTCHAR uni0E9C
ENCODING 3740
SWIDTH 602 0
DWIDTH 8 0
BBX 8 8 1 0
BITMAP
CD
AA
CE
86
96
96
B6
FC
ENDCHAR
STARTCHAR uni0E9D
ENCODING 3741
SWIDTH 602 0
DWIDTH 8 0
BBX 7 11 1 0
BITMAP
06
06
06
C6
A6
C6
86
96
96
B6
FC
ENDCHAR
STARTCHAR uni0E9E
ENCODING 3742
SWIDTH 602 0
DWIDTH 8 0
BBX 7 8 1 0
BITMAP
E6
A6
E6
C6
96
96
96
FC
ENDCHAR
STARTCHAR uni0E9F
ENCODING 3743
SWIDTH 602 0
DWIDTH 8 0
BBX 7 11 1 0
BITMAP
06
06
06
E6
A6
E6
C6
96
96
96
FC
ENDCHAR
STARTCHAR uni0EA1
ENCODING 3745
SWIDTH 602 0
DWIDTH 8 0
BBX 8 8 0 0
BITMAP
33
33
33
33
33
33
F3
FE
ENDCHAR
STARTCHAR uni0EA2
ENCODING 3746
SWIDTH 602 0
DWIDTH 8 0
BBX 7 11 1 0
BITMAP
06
06
06
E6
E6
86
C6
66
84
84
78
ENDCHAR
STARTCHAR uni0EA3
ENCODING 3747
SWIDTH 602 0
DWIDTH 8 0
BBX 7 8 1 0
BITMAP
78
86
80
F8
06
E6
E6
FC
ENDCHAR
STARTCHAR uni0EA5
ENCODING 3749
SWIDTH 602 0
DWIDTH 8 0
BBX 7 8 1 0
BITMAP
7C
C6
86
06
E6
D6
B6
FC
ENDCHAR
STARTCHAR uni0EA7
ENCODING 3751
SWIDTH 602 0
DWIDTH 8 0
BBX 7 8 1 0
BITMAP
78
C6
86
06
06
E6
A6
7C
ENDCHAR
STARTCHAR uni0EAA
ENCODING 3754
SWIDTH 602 0
DWIDTH 8 0
BBX 8 9 1 0
BITMAP
03
FD
83
FE
06
E6
D6
B6
FC
ENDCHAR
STARTCHAR uni0EAB
ENCODING 3755
SWIDTH 602 0
DWIDTH 8 0
BBX 8 8 0 0
BITMAP
FF
B5
4D
45
C5
C5
CD
79
ENDCHAR
STARTCHAR uni0EAD
ENCODING 3757
SWIDTH 602 0
DWIDTH 8 0
BBX 7 8 1 0
BITMAP
7C
86
86
FE
06
E6
A6
7C
ENDCHAR
STARTCHAR uni0EAE
ENCODING 3758
SWIDTH 602 0
DWIDTH 8 0
BBX 7 8 1 0
BITMAP
F2
8E
E0
3C
C6
E6
C6
7C
ENDCHAR
STARTCHAR uni0EAF
ENCODING 3759
SWIDTH 602 0
DWIDTH 8 0
BBX 8 9 0 -1
BITMAP
78
EB
F5
CB
76
0C
18
10
20
ENDCHAR
STARTCHAR uni0EB0
ENCODING 3760
SWIDTH 602 0
DWIDTH 8 0
BBX 7 8 0 0
BITMAP
E6
A2
7E
00
00
E6
A2
7E
ENDCHAR
STARTCHAR uni0EB1
ENCODING 3761
SWIDTH 602 0
DWIDTH 8 0
BBX 7 3 -8 9
BITMAP
E6
A2
7E
ENDCHAR
STARTCHAR uni0EB2
ENCODING 3762
SWIDTH 602 0
DWIDTH 8 0
BBX 6 8 1 0
BITMAP
78
CC
E4
E4
04
04
04
04
ENDCHAR
STARTCHAR uni0EB3
ENCODING 3763
SWIDTH 602 0
DWIDTH 8 0
BBX 12 11 -5 0
BITMAP
E000
E000
0000
01E0
0330
0390
0390
0010
0010
0010
0010
ENDCHAR
STARTCHAR uni0EB4
ENCODING 3764
SWIDTH 602 0
DWIDTH 8 0
BBX 7 4 1 9
BITMAP
7C
86
82
CC
ENDCHAR
STARTCHAR uni0EB5
ENCODING 3765
SWIDTH 602 0
DWIDTH 8 0
BBX 7 4 1 9
BITMAP
7C
86
82
CE
ENDCHAR
STARTCHAR uni0EB6
ENCODING 3766
SWIDTH 602 0
DWIDTH 8 0
BBX 7 4 1 9
BITMAP
7C
96
92
CC
ENDCHAR
STARTCHAR uni0EB7
ENCODING 3767
SWIDTH 602 0
DWIDTH 8 0
BBX 7 4 1 9
BITMAP
7C
B6
B2
CE
ENDCHAR
STARTCHAR uni0EB8
ENCODING 3768
SWIDTH 602 0
DWIDTH 8 0
BBX 3 4 3 -5
BITMAP
E0
E0
20
40
ENDCHAR
STARTCHAR uni0EB9
ENCODING 3769
SWIDTH 602 0
DWIDTH 8 0
BBX 3 3 3 -4
BITMAP
A0
A0
E0
ENDCHAR
STARTCHAR uni0EBB
ENCODING 3771
SWIDTH 602 0
DWIDTH 8 0
BBX 8 3 0 9
BITMAP
7F
F3
62
ENDCHAR
STARTCHAR uni0EBC
ENCODING 3772
SWIDTH 602 0
DWIDTH 8 0
BBX 8 3 0 -4
BITMAP
F1
CB
C6
ENDCHAR
STARTCHAR uni0EC8
ENCODING 3784
SWIDTH 602 0
DWIDTH 8 0
BBX 1 2 4 9
BITMAP
80
80
ENDCHAR
STARTCHAR uni0EC9
ENCODING 3785
SWIDTH 602 0
DWIDTH 8 0
BBX 7 3 1 9
BITMAP
C2
42
FC
ENDCHAR
STARTCHAR uni0ECA
ENCODING 3786
SWIDTH 602 0
DWIDTH 8 0
BBX 8 4 1 8
BITMAP
EC
94
ED
42
ENDCHAR
STARTCHAR uni0ECB
ENCODING 3787
SWIDTH 602 0
DWIDTH 8 0
BBX 4 3 2 9
BITMAP
20
F0
20
ENDCHAR
STARTCHAR uni0ECC
ENCODING 3788
SWIDTH 602 0
DWIDTH 8 0
BBX 8 3 0 9
BITMAP
F1
CB
C6
ENDCHAR
STARTCHAR uni0ECD
ENCODING 3789
SWIDTH 602 0
DWIDTH 8 0
BBX 3 2 3 9
BITMAP
E0
E0
ENDCHAR
STARTCHAR uni10D0
ENCODING 4304
SWIDTH 602 0
DWIDTH 8 0
BBX 6 8 1 0
BITMAP
20
30
18
44
84
84
C4
78
ENDCHAR
STARTCHAR uni10D1
ENCODING 4305
SWIDTH 602 0
DWIDTH 8 0
BBX 6 11 1 0
BITMAP
40
60
10
10
78
C4
84
84
84
4C
78
ENDCHAR
STARTCHAR uni10D2
ENCODING 4306
SWIDTH 602 0
DWIDTH 8 0
BBX 7 10 1 -3
BITMAP
78
C8
88
18
7C
84
86
86
C4
78
ENDCHAR
STARTCHAR uni10D3
ENCODING 4307
SWIDTH 602 0
DWIDTH 8 0
BBX 8 10 0 -3
BITMAP
7E
59
D1
D1
D1
4B
46
20
38
04
ENDCHAR
STARTCHAR uni10D4
ENCODING 4308
SWIDTH 602 0
DWIDTH 8 0
BBX 6 10 1 -3
BITMAP
7C
44
44
44
04
44
84
84
C4
78
ENDCHAR
STARTCHAR uni10D5
ENCODING 4309
SWIDTH 602 0
DWIDTH 8 0
BBX 6 10 1 -3
BITMAP
7C
44
44
44
18
04
C4
84
C4
78
ENDCHAR
STARTCHAR uni10D6
ENCODING 4310
SWIDTH 602 0
DWIDTH 8 0
BBX 6 11 1 0
BITMAP
60
D8
88
88
78
4C
84
84
84
C4
78
ENDCHAR
STARTCHAR uni10D7
ENCODING 4311
SWIDTH 602 0
DWIDTH 8 0
BBX 8 7 0 0
BITMAP
76
49
C9
C9
C9
4B
72
ENDCHAR
STARTCHAR uni10D8
ENCODING 4312
SWIDTH 602 0
DWIDTH 8 0
BBX 6 7 1 0
BITMAP
78
C4
84
84
C4
44
48
ENDCHAR
STARTCHAR uni10D9
ENCODING 4313
SWIDTH 602 0
DWIDTH 8 0
BBX 6 10 1 -3
BITMAP
38
0C
04
04
18
4C
84
84
C4
78
ENDCHAR
STARTCHAR uni10DA
ENCODING 4314
SWIDTH 602 0
DWIDTH 8 0
BBX 6 10 1 -3
BITMAP
78
C4
84
84
C4
44
40
20
58
08
ENDCHAR
STARTCHAR uni10DB
ENCODING 4315
SWIDTH 602 0
DWIDTH 8 0
BBX 6 11 1 0
BITMAP
38
4C
C4
04
7C
C4
84
84
84
C4
78
ENDCHAR
STARTCHAR uni10DC
ENCODING 4316
SWIDTH 602 0
DWIDTH 8 0
BBX 6 10 1 0
BITMAP
FC
80
80
B8
C4
84
84
84
CC
78
ENDCHAR
STARTCHAR uni10DD
ENCODING 4317
SWIDTH 602 0
DWIDTH 8 0
BBX 8 7 0 0
BITMAP
7E
49
C9
C9
C1
41
62
ENDCHAR
STARTCHAR uni10DE
ENCODING 4318
SWIDTH 602 0
DWIDTH 8 0
BBX 6 11 1 0
BITMAP
40
38
0C
04
0C
18
C4
84
84
C4
78
ENDCHAR
STARTCHAR uni10DF
ENCODING 4319
SWIDTH 602 0
DWIDTH 8 0
BBX 6 10 1 -3
BITMAP
FC
C4
24
14
34
C4
04
84
C4
78
ENDCHAR
STARTCHAR uni10E0
ENCODING 4320
SWIDTH 602 0
DWIDTH 8 0
BBX 8 11 0 0
BITMAP
04
18
20
40
7E
49
C9
C9
C1
43
62
ENDCHAR
STARTCHAR uni10E1
ENCODING 4321
SWIDTH 602 0
DWIDTH 8 0
BBX 6 10 1 0
BITMAP
80
80
88
90
8C
84
84
84
C4
78
ENDCHAR
STARTCHAR uni10E2
ENCODING 4322
SWIDTH 602 0
DWIDTH 8 0
BBX 8 12 0 -3
BITMAP
08
08
1C
6A
4B
C9
C9
C1
C1
43
62
3C
ENDCHAR
STARTCHAR uni10E3
ENCODING 4323
SWIDTH 602 0
DWIDTH 8 0
BBX 8 10 0 -3
BITMAP
BE
5A
1B
13
03
23
63
62
22
1C
ENDCHAR
STARTCHAR uni10E4
ENCODING 4324
SWIDTH 602 0
DWIDTH 8 0
BBX 8 10 0 -3
BITMAP
76
49
C9
C9
C9
7B
01
21
23
1E
ENDCHAR
STARTCHAR uni10E5
ENCODING 4325
SWIDTH 602 0
DWIDTH 8 0
BBX 6 13 1 -3
BITMAP
04
04
04
7C
44
44
44
04
44
84
84
C4
78
ENDCHAR
STARTCHAR uni10E6
ENCODING 4326
SWIDTH 602 0
DWIDTH 8 0
BBX 8 10 0 -3
BITMAP
7E
49
C9
C9
C1
43
60
30
2C
06
ENDCHAR
STARTCHAR uni10E7
ENCODING 4327
SWIDTH 602 0
DWIDTH 8 0
BBX 6 10 1 -3
BITMAP
64
C4
84
84
C4
7C
04
84
C4
78
ENDCHAR
STARTCHAR uni10E8
ENCODING 4328
SWIDTH 602 0
DWIDTH 8 0
BBX 7 11 0 0
BITMAP
64
5A
92
02
3E
62
42
42
42
22
3C
ENDCHAR
STARTCHAR uni10E9
ENCODING 4329
SWIDTH 602 0
DWIDTH 8 0
BBX 6 11 1 0
BITMAP
30
C8
88
88
B8
C4
84
84
84
84
88
ENDCHAR
STARTCHAR uni10EA
ENCODING 4330
SWIDTH 602 0
DWIDTH 8 0
BBX 7 10 1 -3
BITMAP
58
8C
86
84
9C
86
82
86
C4
78
ENDCHAR
STARTCHAR uni10EB
ENCODING 4331
SWIDTH 602 0
DWIDTH 8 0
BBX 6 10 1 0
BITMAP
04
04
04
7C
C4
84
84
84
CC
78
ENDCHAR
STARTCHAR uni10EC
ENCODING 4332
SWIDTH 602 0
DWIDTH 8 0
BBX 7 11 1 0
BITMAP
64
DA
92
80
B8
C4
84
84
C4
CC
78
ENDCHAR
STARTCHAR uni10ED
ENCODING 4333
SWIDTH 602 0
DWIDTH 8 0
BBX 6 13 1 -3
BITMAP
10
10
10
78
CC
C8
70
18
0C
C4
84
C4
78
ENDCHAR
STARTCHAR uni10EE
ENCODING 4334
SWIDTH 602 0
DWIDTH 8 0
BBX 6 10 1 0
BITMAP
80
80
80
B8
C4
84
84
84
C4
78
ENDCHAR
STARTCHAR uni10EF
ENCODING 4335
SWIDTH 602 0
DWIDTH 8 0
BBX 6 11 1 -3
BITMAP
90
F0
1C
10
10
08
C4
84
84
CC
78
ENDCHAR
STARTCHAR uni10F0
ENCODING 4336
SWIDTH 602 0
DWIDTH 8 0
BBX 6 11 1 0
BITMAP
20
38
04
04
1C
04
1C
84
84
C4
78
ENDCHAR
STARTCHAR uni10F1
ENCODING 4337
SWIDTH 602 0
DWIDTH 8 0
BBX 6 14 1 -3
BITMAP
10
1C
04
84
9C
C4
8C
8C
84
8C
8C
84
C4
78
ENDCHAR
STARTCHAR uni10F2
ENCODING 4338
SWIDTH 602 0
DWIDTH 8 0
BBX 6 9 1 -2
BITMAP
78
C4
84
84
84
4C
38
EC
84
ENDCHAR
STARTCHAR uni10F3
ENCODING 4339
SWIDTH 602 0
DWIDTH 8 0
BBX 6 10 1 -3
BITMAP
FC
C4
04
08
38
04
84
84
C4
78
ENDCHAR
STARTCHAR uni10F4
ENCODING 4340
SWIDTH 602 0
DWIDTH 8 0
BBX 6 14 1 -3
BITMAP
20
C0
80
80
7C
04
04
0C
30
0C
04
84
C4
78
ENDCHAR
STARTCHAR uni10F5
ENCODING 4341
SWIDTH 602 0
DWIDTH 8 0
BBX 7 11 1 0
BITMAP
30
CC
84
84
7E
04
7E
C4
84
C4
78
ENDCHAR
STARTCHAR uni10F6
ENCODING 4342
SWIDTH 602 0
DWIDTH 8 0
BBX 8 10 0 -3
BITMAP
7E
C9
C9
C9
C9
49
6E
08
18
30
ENDCHAR
STARTCHAR uni10F7
ENCODING 4343
SWIDTH 602 0
DWIDTH 8 0
BBX 7 10 1 -3
BITMAP
78
48
08
18
60
84
86
86
C4
78
ENDCHAR
STARTCHAR uni10F8
ENCODING 4344
SWIDTH 602 0
DWIDTH 8 0
BBX 6 10 1 -3
BITMAP
88
84
84
84
84
FC
80
84
C4
78
ENDCHAR
STARTCHAR uni10F9
ENCODING 4345
SWIDTH 602 0
DWIDTH 8 0
BBX 7 10 1 -3
BITMAP
7C
84
86
86
CC
38
60
44
4C
38
ENDCHAR
STARTCHAR uni10FA
ENCODING 4346
SWIDTH 602 0
DWIDTH 8 0
BBX 6 8 1 -1
BITMAP
7C
C4
84
84
C4
40
30
48
ENDCHAR
STARTCHAR uni10FB
ENCODING 4347
SWIDTH 602 0
DWIDTH 8 0
BBX 4 7 2 0
BITMAP
80
00
00
10
00
80
80
ENDCHAR
STARTCHAR uni10FC
ENCODING 4348
SWIDTH 602 0
DWIDTH 8 0
BBX 3 6 3 5
BITMAP
E0
80
C0
A0
A0
C0
ENDCHAR
STARTCHAR uni1D02
ENCODING 7426
SWIDTH 602 0
DWIDTH 8 0
BBX 8 8 0 0
BITMAP
76
99
09
09
FE
88
D8
7F
ENDCHAR
STARTCHAR uni1D08
ENCODING 7432
SWIDTH 602 0
DWIDTH 8 0
BBX 6 8 1 0
BITMAP
F8
8C
04
04
38
04
04
F8
ENDCHAR
STARTCHAR uni1D09
ENCODING 7433
SWIDTH 602 0
DWIDTH 8 0
BBX 6 11 1 -3
BITMAP
FC
10
10
10
10
10
10
1C
00
10
10
ENDCHAR
STARTCHAR uni1D14
ENCODING 7444
SWIDTH 602 0
DWIDTH 8 0
BBX 8 8 0 0
BITMAP
66
99
19
19
F9
99
99
7F
ENDCHAR
STARTCHAR uni1D16
ENCODING 7446
SWIDTH 602 0
DWIDTH 8 0
BBX 6 4 1 4
BITMAP
38
4C
C4
84
ENDCHAR
STARTCHAR uni1D17
ENCODING 7447
SWIDTH 602 0
DWIDTH 8 0
BBX 6 4 1 0
BITMAP
84
84
C4
78
ENDCHAR
STARTCHAR uni1D1D
ENCODING 7453
SWIDTH 602 0
DWIDTH 8 0
BBX 8 6 0 0
BITMAP
FF
02
01
01
03
FE
ENDCHAR
STARTCHAR uni1D1E
ENCODING 7454
SWIDTH 602 0
DWIDTH 8 0
BBX 8 6 0 0
BITMAP
1F
82
01
01
81
1E
ENDCHAR
STARTCHAR uni1D1F
ENCODING 7455
SWIDTH 602 0
DWIDTH 8 0
BBX 8 7 0 0
BITMAP
FF
01
01
FF
01
01
FF
ENDCHAR
STARTCHAR uni1D2C
ENCODING 7468
SWIDTH 602 0
DWIDTH 8 0
BBX 4 5 2 5
BITMAP
60
60
50
F0
90
ENDCHAR
STARTCHAR uni1D2D
ENCODING 7469
SWIDTH 602 0
DWIDTH 8 0
BBX 5 5 2 5
BITMAP
70
60
B8
E0
B0
ENDCHAR
STARTCHAR uni1D2E
ENCODING 7470
SWIDTH 602 0
DWIDTH 8 0
BBX 4 5 2 5
BITMAP
F0
90
E0
90
F0
ENDCHAR
STARTCHAR uni1D30
ENCODING 7472
SWIDTH 602 0
DWIDTH 8 0
BBX 4 5 2 5
BITMAP
B0
90
90
90
F0
ENDCHAR
STARTCHAR uni1D31
ENCODING 7473
SWIDTH 602 0
DWIDTH 8 0
BBX 4 5 2 5
BITMAP
F0
80
F0
80
F0
ENDCHAR
STARTCHAR uni1D32
ENCODING 7474
SWIDTH 602 0
DWIDTH 8 0
BBX 4 5 2 5
BITMAP
70
10
F0
10
70
ENDCHAR
STARTCHAR uni1D33
ENCODING 7475
SWIDTH 602 0
DWIDTH 8 0
BBX 4 6 2 4
BITMAP
70
80
90
90
50
20
ENDCHAR
STARTCHAR uni1D34
ENCODING 7476
SWIDTH 602 0
DWIDTH 8 0
BBX 4 5 2 5
BITMAP
90
90
F0
90
90
ENDCHAR
STARTCHAR uni1D35
ENCODING 7477
SWIDTH 602 0
DWIDTH 8 0
BBX 3 5 3 5
BITMAP
E0
40
40
40
E0
ENDCHAR
STARTCHAR uni1D36
ENCODING 7478
SWIDTH 602 0
DWIDTH 8 0
BBX 4 6 2 4
BITMAP
30
10
10
10
90
60
ENDCHAR
STARTCHAR uni1D37
ENCODING 7479
SWIDTH 602 0
DWIDTH 8 0
BBX 4 5 2 5
BITMAP
90
A0
C0
A0
90
ENDCHAR
STARTCHAR uni1D38
ENCODING 7480
SWIDTH 602 0
DWIDTH 8 0
BBX 4 5 2 5
BITMAP
80
80
80
80
F0
ENDCHAR
STARTCHAR uni1D39
ENCODING 7481
SWIDTH 602 0
DWIDTH 8 0
BBX 5 5 2 5
BITMAP
98
E8
A8
88
88
ENDCHAR
STARTCHAR uni1D3A
ENCODING 7482
SWIDTH 602 0
DWIDTH 8 0
BBX 4 5 2 5
BITMAP
D0
D0
B0
B0
90
ENDCHAR
STARTCHAR uni1D3B
ENCODING 7483
SWIDTH 602 0
DWIDTH 8 0
BBX 4 5 2 5
BITMAP
90
B0
B0
D0
D0
ENDCHAR
STARTCHAR uni1D3C
ENCODING 7484
SWIDTH 602 0
DWIDTH 8 0
BBX 4 6 2 4
BITMAP
F0
90
90
90
90
60
ENDCHAR
STARTCHAR uni1D3E
ENCODING 7486
SWIDTH 602 0
DWIDTH 8 0
BBX 4 5 2 5
BITMAP
F0
90
F0
80
80
ENDCHAR
STARTCHAR uni1D3F
ENCODING 7487
SWIDTH 602 0
DWIDTH 8 0
BBX 4 5 2 5
BITMAP
F0
90
E0
A0
90
ENDCHAR
STARTCHAR uni1D40
ENCODING 7488
SWIDTH 602 0
DWIDTH 8 0
BBX 4 5 2 5
BITMAP
F0
20
20
20
20
ENDCHAR
STARTCHAR uni1D41
ENCODING 7489
SWIDTH 602 0
DWIDTH 8 0
BBX 4 6 2 4
BITMAP
90
90
90
90
90
60
ENDCHAR
STARTCHAR uni1D42
ENCODING 7490
SWIDTH 602 0
DWIDTH 8 0
BBX 5 5 2 5
BITMAP
88
A8
F0
F0
D0
ENDCHAR
STARTCHAR uni1D43
ENCODING 7491
SWIDTH 602 0
DWIDTH 8 0
BBX 4 5 2 4
BITMAP
70
10
F0
90
60
ENDCHAR
STARTCHAR uni1D44
ENCODING 7492
SWIDTH 602 0
DWIDTH 8 0
BBX 4 5 2 4
BITMAP
F0
90
F0
80
60
ENDCHAR
STARTCHAR uni1D45
ENCODING 7493
SWIDTH 602 0
DWIDTH 8 0
BBX 4 5 2 4
BITMAP
70
90
90
90
60
ENDCHAR
STARTCHAR uni1D46
ENCODING 7494
SWIDTH 602 0
DWIDTH 8 0
BBX 5 5 2 4
BITMAP
F0
28
F0
A0
50
ENDCHAR
STARTCHAR uni1D47
ENCODING 7495
SWIDTH 602 0
DWIDTH 8 0
BBX 4 7 2 4
BITMAP
80
80
F0
90
90
90
60
ENDCHAR
STARTCHAR uni1D48
ENCODING 7496
SWIDTH 602 0
DWIDTH 8 0
BBX 4 7 2 4
BITMAP
10
10
70
90
90
90
60
ENDCHAR
STARTCHAR uni1D49
ENCODING 7497
SWIDTH 602 0
DWIDTH 8 0
BBX 4 5 2 4
BITMAP
70
90
E0
80
70
ENDCHAR
STARTCHAR uni1D4A
ENCODING 7498
SWIDTH 602 0
DWIDTH 8 0
BBX 4 5 2 4
BITMAP
F0
10
F0
90
60
ENDCHAR
STARTCHAR uni1D4B
ENCODING 7499
SWIDTH 602 0
DWIDTH 8 0
BBX 4 5 2 4
BITMAP
70
80
60
80
70
ENDCHAR
STARTCHAR uni1D4C
ENCODING 7500
SWIDTH 602 0
DWIDTH 8 0
BBX 4 5 2 4
BITMAP
F0
10
60
10
60
ENDCHAR
STARTCHAR uni1D4D
ENCODING 7501
SWIDTH 602 0
DWIDTH 8 0
BBX 4 6 2 3
BITMAP
70
90
90
90
70
70
ENDCHAR
STARTCHAR uni1D4E
ENCODING 7502
SWIDTH 602 0
DWIDTH 8 0
BBX 4 6 2 3
BITMAP
F0
20
20
20
00
20
ENDCHAR
STARTCHAR uni1D4F
ENCODING 7503
SWIDTH 602 0
DWIDTH 8 0
BBX 4 6 2 5
BITMAP
80
80
90
E0
A0
90
ENDCHAR
STARTCHAR uni1D50
ENCODING 7504
SWIDTH 602 0
DWIDTH 8 0
BBX 4 4 2 5
BITMAP
F0
B0
B0
B0
ENDCHAR
STARTCHAR uni1D51
ENCODING 7505
SWIDTH 602 0
DWIDTH 8 0
BBX 4 6 2 3
BITMAP
F0
90
90
90
10
30
ENDCHAR
STARTCHAR uni1D52
ENCODING 7506
SWIDTH 602 0
DWIDTH 8 0
BBX 4 5 2 4
BITMAP
70
90
90
90
60
ENDCHAR
STARTCHAR uni1D53
ENCODING 7507
SWIDTH 602 0
DWIDTH 8 0
BBX 4 5 2 4
BITMAP
E0
10
10
10
60
ENDCHAR
STARTCHAR uni1D54
ENCODING 7508
SWIDTH 602 0
DWIDTH 8 0
BBX 4 2 2 7
BITMAP
70
90
ENDCHAR
STARTCHAR uni1D55
ENCODING 7509
SWIDTH 602 0
DWIDTH 8 0
BBX 4 3 2 4
BITMAP
90
90
60
ENDCHAR
STARTCHAR uni1D56
ENCODING 7510
SWIDTH 602 0
DWIDTH 8 0
BBX 4 6 2 3
BITMAP
F0
90
90
90
E0
80
ENDCHAR
STARTCHAR uni1D57
ENCODING 7511
SWIDTH 602 0
DWIDTH 8 0
BBX 4 5 2 5
BITMAP
40
F0
40
40
70
ENDCHAR
STARTCHAR uni1D58
ENCODING 7512
SWIDTH 602 0
DWIDTH 8 0
BBX 4 5 2 4
BITMAP
90
90
90
90
60
ENDCHAR
STARTCHAR uni1D59
ENCODING 7513
SWIDTH 602 0
DWIDTH 8 0
BBX 5 3 2 5
BITMAP
F8
08
F8
ENDCHAR
STARTCHAR uni1D5A
ENCODING 7514
SWIDTH 602 0
DWIDTH 8 0
BBX 4 4 2 5
BITMAP
A0
B0
B0
F0
ENDCHAR
STARTCHAR uni1D5B
ENCODING 7515
SWIDTH 602 0
DWIDTH 8 0
BBX 4 4 2 5
BITMAP
90
90
60
60
ENDCHAR
STARTCHAR uni1D62
ENCODING 7522
SWIDTH 602 0
DWIDTH 8 0
BBX 3 6 3 0
BITMAP
40
00
C0
40
40
E0
ENDCHAR
STARTCHAR uni1D63
ENCODING 7523
SWIDTH 602 0
DWIDTH 8 0
BBX 3 4 3 0
BITMAP
E0
80
80
80
ENDCHAR
STARTCHAR uni1D64
ENCODING 7524
SWIDTH 602 0
DWIDTH 8 0
BBX 4 5 2 -1
BITMAP
90
90
90
90
60
ENDCHAR
STARTCHAR uni1D65
ENCODING 7525
SWIDTH 602 0
DWIDTH 8 0
BBX 4 4 2 0
BITMAP
90
90
60
60
ENDCHAR
STARTCHAR uni1D77
ENCODING 7543
SWIDTH 602 0
DWIDTH 8 0
BBX 6 11 1 -3
BITMAP
78
C0
80
B8
CC
84
84
84
84
CC
B8
ENDCHAR
STARTCHAR uni1D78
ENCODING 7544
SWIDTH 602 0
DWIDTH 8 0
BBX 4 5 2 5
BITMAP
90
90
F0
90
90
ENDCHAR
STARTCHAR uni1D7B
ENCODING 7547
SWIDTH 602 0
DWIDTH 8 0
BBX 6 8 1 0
BITMAP
FC
10
10
10
FC
10
10
FC
ENDCHAR
STARTCHAR uni1D85
ENCODING 7557
SWIDTH 602 0
DWIDTH 8 0
BBX 6 14 1 -3
BITMAP
E0
20
20
20
20
20
20
20
20
30
1C
04
0C
38
ENDCHAR
STARTCHAR uni1D9B
ENCODING 7579
SWIDTH 602 0
DWIDTH 8 0
BBX 4 5 2 4
BITMAP
F0
90
90
90
60
ENDCHAR
STARTCHAR uni1D9C
ENCODING 7580
SWIDTH 602 0
DWIDTH 8 0
BBX 4 5 2 4
BITMAP
70
80
80
40
30
ENDCHAR
STARTCHAR uni1D9D
ENCODING 7581
SWIDTH 602 0
DWIDTH 8 0
BBX 4 5 2 4
BITMAP
70
80
80
70
60
ENDCHAR
STARTCHAR uni1D9E
ENCODING 7582
SWIDTH 602 0
DWIDTH 8 0
BBX 4 7 2 4
BITMAP
40
60
70
90
90
90
60
ENDCHAR
STARTCHAR uni1D9F
ENCODING 7583
SWIDTH 602 0
DWIDTH 8 0
BBX 4 5 2 4
BITMAP
F0
10
30
10
60
ENDCHAR
STARTCHAR uni1DA0
ENCODING 7584
SWIDTH 602 0
DWIDTH 8 0
BBX 4 6 2 5
BITMAP
10
60
F0
40
40
40
ENDCHAR
STARTCHAR uni1DA1
ENCODING 7585
SWIDTH 602 0
DWIDTH 8 0
BBX 4 6 2 3
BITMAP
60
20
20
20
30
E0
ENDCHAR
STARTCHAR uni1DA2
ENCODING 7586
SWIDTH 602 0
DWIDTH 8 0
BBX 4 6 2 3
BITMAP
70
90
90
90
70
70
ENDCHAR
STARTCHAR uni1DA3
ENCODING 7587
SWIDTH 602 0
DWIDTH 8 0
BBX 4 6 2 3
BITMAP
90
90
90
90
70
10
ENDCHAR
STARTCHAR uni1DA4
ENCODING 7588
SWIDTH 602 0
DWIDTH 8 0
BBX 4 6 2 5
BITMAP
20
00
60
20
F0
70
ENDCHAR
STARTCHAR uni1DA5
ENCODING 7589
SWIDTH 602 0
DWIDTH 8 0
BBX 4 4 2 5
BITMAP
C0
40
40
30
ENDCHAR
STARTCHAR uni1DA6
ENCODING 7590
SWIDTH 602 0
DWIDTH 8 0
BBX 4 4 2 5
BITMAP
F0
20
20
70
ENDCHAR
STARTCHAR uni1DA7
ENCODING 7591
SWIDTH 602 0
DWIDTH 8 0
BBX 4 4 2 5
BITMAP
F0
20
F0
70
ENDCHAR
STARTCHAR uni1DA8
ENCODING 7592
SWIDTH 602 0
DWIDTH 8 0
BBX 4 8 2 3
BITMAP
20
00
20
20
20
20
70
E0
ENDCHAR
STARTCHAR uni1DA9
ENCODING 7593
SWIDTH 602 0
DWIDTH 8 0
BBX 4 8 2 3
BITMAP
C0
40
40
40
40
40
40
30
ENDCHAR
STARTCHAR uni1DAA
ENCODING 7594
SWIDTH 602 0
DWIDTH 8 0
BBX 4 8 2 3
BITMAP
C0
40
40
40
40
20
10
30
ENDCHAR
STARTCHAR uni1DAB
ENCODING 7595
SWIDTH 602 0
DWIDTH 8 0
BBX 2 3 3 5
BITMAP
80
80
C0
ENDCHAR
STARTCHAR uni1DAC
ENCODING 7596
SWIDTH 602 0
DWIDTH 8 0
BBX 4 6 2 3
BITMAP
F0
B0
B0
B0
10
30
ENDCHAR
STARTCHAR uni1DAD
ENCODING 7597
SWIDTH 602 0
DWIDTH 8 0
BBX 4 6 2 3
BITMAP
A0
B0
B0
B0
50
10
ENDCHAR
STARTCHAR uni1DAE
ENCODING 7598
SWIDTH 602 0
DWIDTH 8 0
BBX 4 6 2 3
BITMAP
70
50
50
50
40
C0
ENDCHAR
STARTCHAR uni1DAF
ENCODING 7599
SWIDTH 602 0
DWIDTH 8 0
BBX 4 6 2 3
BITMAP
E0
A0
A0
A0
20
10
ENDCHAR
STARTCHAR uni1DB0
ENCODING 7600
SWIDTH 602 0
DWIDTH 8 0
BBX 4 4 2 5
BITMAP
D0
D0
B0
90
ENDCHAR
STARTCHAR uni1DB1
ENCODING 7601
SWIDTH 602 0
DWIDTH 8 0
BBX 4 5 2 4
BITMAP
70
90
F0
90
60
ENDCHAR
STARTCHAR uni1DB2
ENCODING 7602
SWIDTH 602 0
DWIDTH 8 0
BBX 4 8 2 3
BITMAP
70
20
70
B0
B0
B0
60
70
ENDCHAR
STARTCHAR uni1DB3
ENCODING 7603
SWIDTH 602 0
DWIDTH 8 0
BBX 4 6 2 3
BITMAP
70
80
70
10
E0
60
ENDCHAR
STARTCHAR uni1DB4
ENCODING 7604
SWIDTH 602 0
DWIDTH 8 0
BBX 3 8 3 3
BITMAP
20
C0
80
80
80
80
80
80
ENDCHAR
STARTCHAR uni1DB5
ENCODING 7605
SWIDTH 602 0
DWIDTH 8 0
BBX 4 7 2 3
BITMAP
40
F0
40
40
40
30
30
ENDCHAR
STARTCHAR uni1DB6
ENCODING 7606
SWIDTH 602 0
DWIDTH 8 0
BBX 6 5 1 4
BITMAP
48
48
FC
48
30
ENDCHAR
STARTCHAR uni1DB7
ENCODING 7607
SWIDTH 602 0
DWIDTH 8 0
BBX 4 5 2 4
BITMAP
D0
90
90
90
60
ENDCHAR
STARTCHAR uni1DB9
ENCODING 7609
SWIDTH 602 0
DWIDTH 8 0
BBX 4 4 2 5
BITMAP
80
90
90
F0
ENDCHAR
STARTCHAR uni1DBA
ENCODING 7610
SWIDTH 602 0
DWIDTH 8 0
BBX 4 4 2 5
BITMAP
20
60
50
90
ENDCHAR
STARTCHAR uni1DBB
ENCODING 7611
SWIDTH 602 0
DWIDTH 8 0
BBX 3 4 3 5
BITMAP
E0
40
80
E0
ENDCHAR
STARTCHAR uni1DBC
ENCODING 7612
SWIDTH 602 0
DWIDTH 8 0
BBX 4 6 2 3
BITMAP
E0
20
40
80
60
10
ENDCHAR
STARTCHAR uni1DBD
ENCODING 7613
SWIDTH 602 0
DWIDTH 8 0
BBX 4 4 2 5
BITMAP
F0
20
20
70
ENDCHAR
STARTCHAR uni1DBE
ENCODING 7614
SWIDTH 602 0
DWIDTH 8 0
BBX 4 6 2 3
BITMAP
F0
20
40
30
10
F0
ENDCHAR
STARTCHAR uni1DBF
ENCODING 7615
SWIDTH 602 0
DWIDTH 8 0
BBX 4 6 2 4
BITMAP
70
90
F0
90
90
60
ENDCHAR
STARTCHAR uni1E00
ENCODING 7680
SWIDTH 602 0
DWIDTH 8 0
BBX 7 13 1 -3
BITMAP
10
28
28
28
28
44
7C
44
82
82
38
28
38
ENDCHAR
STARTCHAR uni1E01
ENCODING 7681
SWIDTH 602 0
DWIDTH 8 0
BBX 6 11 1 -3
BITMAP
38
44
04
7C
84
84
8C
74
38
28
38
ENDCHAR
STARTCHAR uni1E02
ENCODING 7682
SWIDTH 602 0
DWIDTH 8 0
BBX 7 12 1 0
BITMAP
10
00
FC
82
82
82
FC
86
82
82
86
FC
ENDCHAR
STARTCHAR uni1E03
ENCODING 7683
SWIDTH 602 0
DWIDTH 8 0
BBX 6 11 1 0
BITMAP
90
80
80
F8
C8
84
84
84
84
C8
B8
ENDCHAR
STARTCHAR uni1E04
ENCODING 7684
SWIDTH 602 0
DWIDTH 8 0
BBX 7 12 1 -2
BITMAP
FC
82
82
82
FC
86
82
82
86
FC
00
10
ENDCHAR
STARTCHAR uni1E05
ENCODING 7685
SWIDTH 602 0
DWIDTH 8 0
BBX 6 13 1 -2
BITMAP
80
80
80
F8
C8
84
84
84
84
C8
B8
00
10
ENDCHAR
STARTCHAR uni1E06
ENCODING 7686
SWIDTH 602 0
DWIDTH 8 0
BBX 7 12 1 -2
BITMAP
FC
82
82
82
FC
86
82
82
86
FC
00
78
ENDCHAR
STARTCHAR uni1E07
ENCODING 7687
SWIDTH 602 0
DWIDTH 8 0
BBX 6 13 1 -2
BITMAP
80
80
80
F8
C8
84
84
84
84
C8
B8
00
78
ENDCHAR
STARTCHAR uni1E08
ENCODING 7688
SWIDTH 602 0
DWIDTH 8 0
BBX 7 16 1 -3
BITMAP
0C
18
00
3C
42
80
80
80
80
80
80
42
3C
04
04
1C
ENDCHAR
STARTCHAR uni1E09
ENCODING 7689
SWIDTH 602 0
DWIDTH 8 0
BBX 6 15 1 -3
BITMAP
0C
08
10
00
38
44
80
80
80
80
44
38
04
04
1C
ENDCHAR
STARTCHAR uni1E0A
ENCODING 7690
SWIDTH 602 0
DWIDTH 8 0
BBX 7 12 1 0
BITMAP
10
00
F8
84
82
82
82
82
82
82
84
F8
ENDCHAR
STARTCHAR uni1E0B
ENCODING 7691
SWIDTH 602 0
DWIDTH 8 0
BBX 6 11 1 0
BITMAP
14
04
04
7C
4C
84
84
84
84
4C
74
ENDCHAR
STARTCHAR uni1E0C
ENCODING 7692
SWIDTH 602 0
DWIDTH 8 0
BBX 7 12 1 -2
BITMAP
F8
84
82
82
82
82
82
82
84
F8
00
10
ENDCHAR
STARTCHAR uni1E0D
ENCODING 7693
SWIDTH 602 0
DWIDTH 8 0
BBX 6 13 1 -2
BITMAP
04
04
04
7C
4C
84
84
84
84
4C
74
00
10
ENDCHAR
STARTCHAR uni1E0E
ENCODING 7694
SWIDTH 602 0
DWIDTH 8 0
BBX 7 12 1 -2
BITMAP
F8
84
82
82
82
82
82
82
84
F8
00
78
ENDCHAR
STARTCHAR uni1E0F
ENCODING 7695
SWIDTH 602 0
DWIDTH 8 0
BBX 6 13 1 -2
BITMAP
04
04
04
7C
4C
84
84
84
84
4C
74
00
78
ENDCHAR
STARTCHAR uni1E10
ENCODING 7696
SWIDTH 602 0
DWIDTH 8 0
BBX 7 13 1 -3
BITMAP
F8
84
82
82
82
82
82
82
84
F8
20
20
E0
ENDCHAR
STARTCHAR uni1E11
ENCODING 7697
SWIDTH 602 0
DWIDTH 8 0
BBX 6 14 1 -3
BITMAP
04
04
04
7C
4C
84
84
84
84
4C
74
08
08
38
ENDCHAR
STARTCHAR uni1E12
ENCODING 7698
SWIDTH 602 0
DWIDTH 8 0
BBX 7 14 1 -4
BITMAP
F8
84
82
82
82
82
82
82
84
F8
00
30
30
48
ENDCHAR
STARTCHAR uni1E13
ENCODING 7699
SWIDTH 602 0
DWIDTH 8 0
BBX 6 15 1 -4
BITMAP
04
04
04
7C
4C
84
84
84
84
4C
74
00
30
30
48
ENDCHAR
STARTCHAR uni1E18
ENCODING 7704
SWIDTH 602 0
DWIDTH 8 0
BBX 7 14 1 -4
BITMAP
FE
80
80
80
FE
80
80
80
80
FE
00
30
30
48
ENDCHAR
STARTCHAR uni1E19
ENCODING 7705
SWIDTH 602 0
DWIDTH 8 0
BBX 6 12 1 -4
BITMAP
78
4C
84
FC
80
80
44
38
00
30
30
48
ENDCHAR
STARTCHAR uni1E1A
ENCODING 7706
SWIDTH 602 0
DWIDTH 8 0
BBX 7 13 1 -3
BITMAP
FE
80
80
80
FE
80
80
80
80
FE
00
74
5C
ENDCHAR
STARTCHAR uni1E1B
ENCODING 7707
SWIDTH 602 0
DWIDTH 8 0
BBX 6 11 1 -3
BITMAP
78
4C
84
FC
80
80
44
38
00
74
5C
ENDCHAR
STARTCHAR uni1E1C
ENCODING 7708
SWIDTH 602 0
DWIDTH 8 0
BBX 7 16 1 -3
BITMAP
48
30
00
FE
80
80
80
FE
80
80
80
80
FE
08
08
38
ENDCHAR
STARTCHAR uni1E1D
ENCODING 7709
SWIDTH 602 0
DWIDTH 8 0
BBX 6 14 1 -3
BITMAP
48
30
00
78
4C
84
FC
80
80
44
38
08
08
38
ENDCHAR
STARTCHAR uni1E1E
ENCODING 7710
SWIDTH 602 0
DWIDTH 8 0
BBX 7 12 1 0
BITMAP
10
00
FE
80
80
80
FE
80
80
80
80
80
ENDCHAR
STARTCHAR uni1E1F
ENCODING 7711
SWIDTH 602 0
DWIDTH 8 0
BBX 6 12 1 0
BITMAP
10
1C
20
20
FC
20
20
20
20
20
20
20
ENDCHAR
STARTCHAR uni1E20
ENCODING 7712
SWIDTH 602 0
DWIDTH 8 0
BBX 7 13 1 0
BITMAP
78
00
00
3C
42
80
80
80
86
82
82
42
3C
ENDCHAR
STARTCHAR uni1E21
ENCODING 7713
SWIDTH 602 0
DWIDTH 8 0
BBX 6 13 1 -3
BITMAP
78
00
74
4C
84
84
84
84
4C
74
04
44
38
ENDCHAR
STARTCHAR uni1E22
ENCODING 7714
SWIDTH 602 0
DWIDTH 8 0
BBX 7 12 1 0
BITMAP
10
00
82
82
82
82
FE
82
82
82
82
82
ENDCHAR
STARTCHAR uni1E23
ENCODING 7715
SWIDTH 602 0
DWIDTH 8 0
BBX 6 12 1 0
BITMAP
10
80
80
80
B8
C4
84
84
84
84
84
84
ENDCHAR
STARTCHAR uni1E24
ENCODING 7716
SWIDTH 602 0
DWIDTH 8 0
BBX 7 12 1 -2
BITMAP
82
82
82
82
FE
82
82
82
82
82
00
10
ENDCHAR
STARTCHAR uni1E25
ENCODING 7717
SWIDTH 602 0
DWIDTH 8 0
BBX 6 13 1 -2
BITMAP
80
80
80
B8
C4
84
84
84
84
84
84
00
10
ENDCHAR
STARTCHAR uni1E26
ENCODING 7718
SWIDTH 602 0
DWIDTH 8 0
BBX 7 11 1 0
BITMAP
28
82
82
82
82
FE
82
82
82
82
82
ENDCHAR
STARTCHAR uni1E27
ENCODING 7719
SWIDTH 602 0
DWIDTH 8 0
BBX 6 13 1 0
BITMAP
50
00
80
80
80
B8
C4
84
84
84
84
84
84
ENDCHAR
STARTCHAR uni1E28
ENCODING 7720
SWIDTH 602 0
DWIDTH 8 0
BBX 8 13 0 -3
BITMAP
41
41
41
41
7F
41
41
41
41
41
20
20
E0
ENDCHAR
STARTCHAR uni1E29
ENCODING 7721
SWIDTH 602 0
DWIDTH 8 0
BBX 6 14 1 -3
BITMAP
80
80
80
B8
C4
84
84
84
84
84
84
20
20
E0
ENDCHAR
STARTCHAR uni1E2A
ENCODING 7722
SWIDTH 602 0
DWIDTH 8 0
BBX 7 23 1 -13
BITMAP
82
82
82
82
FE
82
82
82
82
82
00
00
00
00
00
00
00
00
00
00
00
48
30
ENDCHAR
STARTCHAR uni1E2B
ENCODING 7723
SWIDTH 602 0
DWIDTH 8 0
BBX 6 24 1 -13
BITMAP
80
80
80
B8
C4
84
84
84
84
84
84
00
00
00
00
00
00
00
00
00
00
00
48
30
ENDCHAR
STARTCHAR uni1E2C
ENCODING 7724
SWIDTH 602 0
DWIDTH 8 0
BBX 5 13 2 -3
BITMAP
F8
20
20
20
20
20
20
20
20
F8
00
E8
B8
ENDCHAR
STARTCHAR uni1E2D
ENCODING 7725
SWIDTH 602 0
DWIDTH 8 0
BBX 7 14 1 -3
BITMAP
10
10
00
70
10
10
10
10
10
10
FE
00
74
5C
ENDCHAR
STARTCHAR uni1E30
ENCODING 7728
SWIDTH 602 0
DWIDTH 8 0
BBX 7 13 1 0
BITMAP
18
30
00
84
88
90
A0
E0
90
98
88
84
82
ENDCHAR
STARTCHAR uni1E31
ENCODING 7729
SWIDTH 602 0
DWIDTH 8 0
BBX 6 13 1 0
BITMAP
30
60
80
80
80
88
90
A0
E0
90
90
88
84
ENDCHAR
STARTCHAR uni1E32
ENCODING 7730
SWIDTH 602 0
DWIDTH 8 0
BBX 7 12 1 -2
BITMAP
84
88
90
A0
E0
90
98
88
84
82
00
10
ENDCHAR
STARTCHAR uni1E33
ENCODING 7731
SWIDTH 602 0
DWIDTH 8 0
BBX 6 13 1 -2
BITMAP
80
80
80
88
90
A0
E0
90
90
88
84
00
10
ENDCHAR
STARTCHAR uni1E34
ENCODING 7732
SWIDTH 602 0
DWIDTH 8 0
BBX 7 12 1 -2
BITMAP
84
88
90
A0
E0
90
98
88
84
82
00
78
ENDCHAR
STARTCHAR uni1E35
ENCODING 7733
SWIDTH 602 0
DWIDTH 8 0
BBX 6 13 1 -2
BITMAP
80
80
80
88
90
A0
E0
90
90
88
84
00
78
ENDCHAR
STARTCHAR uni1E36
ENCODING 7734
SWIDTH 602 0
DWIDTH 8 0
BBX 7 12 1 -2
BITMAP
80
80
80
80
80
80
80
80
80
FE
00
10
ENDCHAR
STARTCHAR uni1E37
ENCODING 7735
SWIDTH 602 0
DWIDTH 8 0
BBX 7 13 0 -2
BITMAP
F0
10
10
10
10
10
10
10
10
10
0E
00
08
ENDCHAR
STARTCHAR uni1E38
ENCODING 7736
SWIDTH 602 0
DWIDTH 8 0
BBX 7 15 1 -2
BITMAP
78
00
00
80
80
80
80
80
80
80
80
80
FE
00
10
ENDCHAR
STARTCHAR uni1E39
ENCODING 7737
SWIDTH 602 0
DWIDTH 8 0
BBX 7 15 0 -2
BITMAP
3C
00
F0
10
10
10
10
10
10
10
10
10
0E
00
08
ENDCHAR
STARTCHAR uni1E3A
ENCODING 7738
SWIDTH 602 0
DWIDTH 8 0
BBX 7 12 1 -2
BITMAP
80
80
80
80
80
80
80
80
80
FE
00
78
ENDCHAR
STARTCHAR uni1E3B
ENCODING 7739
SWIDTH 602 0
DWIDTH 8 0
BBX 7 13 0 -2
BITMAP
F0
10
10
10
10
10
10
10
10
10
0E
00
3C
ENDCHAR
STARTCHAR uni1E3C
ENCODING 7740
SWIDTH 602 0
DWIDTH 8 0
BBX 7 14 1 -4
BITMAP
80
80
80
80
80
80
80
80
80
FE
00
30
30
48
ENDCHAR
STARTCHAR uni1E3D
ENCODING 7741
SWIDTH 602 0
DWIDTH 8 0
BBX 7 15 0 -4
BITMAP
F0
10
10
10
10
10
10
10
10
10
0E
00
18
18
24
ENDCHAR
STARTCHAR uni1E3E
ENCODING 7742
SWIDTH 602 0
DWIDTH 8 0
BBX 7 13 1 0
BITMAP
18
30
00
C6
C6
AA
AA
AA
92
82
82
82
82
ENDCHAR
STARTCHAR uni1E3F
ENCODING 7743
SWIDTH 602 0
DWIDTH 8 0
BBX 7 12 1 0
BITMAP
18
10
20
00
FC
92
92
92
92
92
92
92
ENDCHAR
STARTCHAR uni1E40
ENCODING 7744
SWIDTH 602 0
DWIDTH 8 0
BBX 7 12 1 0
BITMAP
10
00
C6
C6
AA
AA
AA
92
82
82
82
82
ENDCHAR
STARTCHAR uni1E41
ENCODING 7745
SWIDTH 602 0
DWIDTH 8 0
BBX 7 11 1 0
BITMAP
10
00
00
FC
92
92
92
92
92
92
92
ENDCHAR
STARTCHAR uni1E42
ENCODING 7746
SWIDTH 602 0
DWIDTH 8 0
BBX 7 12 1 -2
BITMAP
C6
C6
AA
AA
AA
92
82
82
82
82
00
10
ENDCHAR
STARTCHAR uni1E43
ENCODING 7747
SWIDTH 602 0
DWIDTH 8 0
BBX 7 10 1 -2
BITMAP
FC
92
92
92
92
92
92
92
00
10
ENDCHAR
STARTCHAR uni1E44
ENCODING 7748
SWIDTH 602 0
DWIDTH 8 0
BBX 7 12 1 0
BITMAP
10
00
C2
C2
A2
A2
92
92
8A
8A
86
86
ENDCHAR
STARTCHAR uni1E45
ENCODING 7749
SWIDTH 602 0
DWIDTH 8 0
BBX 6 11 1 0
BITMAP
10
00
00
B8
C4
84
84
84
84
84
84
ENDCHAR
STARTCHAR uni1E46
ENCODING 7750
SWIDTH 602 0
DWIDTH 8 0
BBX 7 12 1 -2
BITMAP
C2
C2
A2
A2
92
92
8A
8A
86
86
00
10
ENDCHAR
STARTCHAR uni1E47
ENCODING 7751
SWIDTH 602 0
DWIDTH 8 0
BBX 6 10 1 -2
BITMAP
B8
C4
84
84
84
84
84
84
00
10
ENDCHAR
STARTCHAR uni1E48
ENCODING 7752
SWIDTH 602 0
DWIDTH 8 0
BBX 7 12 1 -2
BITMAP
C2
C2
A2
A2
92
92
8A
8A
86
86
00
78
ENDCHAR
STARTCHAR uni1E49
ENCODING 7753
SWIDTH 602 0
DWIDTH 8 0
BBX 6 10 1 -2
BITMAP
B8
C4
84
84
84
84
84
84
00
78
ENDCHAR
STARTCHAR uni1E4A
ENCODING 7754
SWIDTH 602 0
DWIDTH 8 0
BBX 7 14 1 -4
BITMAP
C2
C2
A2
A2
92
92
8A
8A
86
86
00
30
30
48
ENDCHAR
STARTCHAR uni1E4B
ENCODING 7755
SWIDTH 602 0
DWIDTH 8 0
BBX 6 12 1 -4
BITMAP
B8
C4
84
84
84
84
84
84
00
30
30
48
ENDCHAR
STARTCHAR uni1E4C
ENCODING 7756
SWIDTH 602 0
DWIDTH 8 0
BBX 7 14 1 0
BITMAP
18
30
74
5C
38
44
82
82
82
82
82
82
44
38
ENDCHAR
STARTCHAR uni1E4D
ENCODING 7757
SWIDTH 602 0
DWIDTH 8 0
BBX 6 15 1 0
BITMAP
18
10
20
00
74
5C
00
78
CC
84
84
84
84
CC
78
ENDCHAR
STARTCHAR uni1E54
ENCODING 7764
SWIDTH 602 0
DWIDTH 8 0
BBX 7 13 1 0
BITMAP
30
60
00
FC
86
82
82
86
FC
80
80
80
80
ENDCHAR
STARTCHAR uni1E55
ENCODING 7765
SWIDTH 602 0
DWIDTH 8 0
BBX 6 15 1 -3
BITMAP
18
10
20
00
B8
C8
84
84
84
84
C8
F8
80
80
80
ENDCHAR
STARTCHAR uni1E56
ENCODING 7766
SWIDTH 602 0
DWIDTH 8 0
BBX 7 12 1 0
BITMAP
10
00
FC
86
82
82
86
FC
80
80
80
80
ENDCHAR
STARTCHAR uni1E57
ENCODING 7767
SWIDTH 602 0
DWIDTH 8 0
BBX 6 14 1 -3
BITMAP
10
00
00
B8
C8
84
84
84
84
C8
F8
80
80
80
ENDCHAR
STARTCHAR uni1E58
ENCODING 7768
SWIDTH 602 0
DWIDTH 8 0
BBX 8 12 1 0
BITMAP
10
00
FC
86
82
82
86
F8
84
82
82
81
ENDCHAR
STARTCHAR uni1E59
ENCODING 7769
SWIDTH 602 0
DWIDTH 8 0
BBX 5 11 2 0
BITMAP
20
00
00
F0
C8
80
80
80
80
80
80
ENDCHAR
STARTCHAR uni1E5A
ENCODING 7770
SWIDTH 602 0
DWIDTH 8 0
BBX 8 12 1 -2
BITMAP
FC
86
82
82
86
F8
84
82
82
81
00
10
ENDCHAR
STARTCHAR uni1E5B
ENCODING 7771
SWIDTH 602 0
DWIDTH 8 0
BBX 5 10 2 -2
BITMAP
F0
C8
80
80
80
80
80
80
00
20
ENDCHAR
STARTCHAR uni1E5C
ENCODING 7772
SWIDTH 602 0
DWIDTH 8 0
BBX 8 15 1 -2
BITMAP
78
00
00
FC
86
82
82
86
F8
84
82
82
81
00
10
ENDCHAR
STARTCHAR uni1E5D
ENCODING 7773
SWIDTH 602 0
DWIDTH 8 0
BBX 5 12 2 -2
BITMAP
F0
00
F0
C8
80
80
80
80
80
80
00
20
ENDCHAR
STARTCHAR uni1E5E
ENCODING 7774
SWIDTH 602 0
DWIDTH 8 0
BBX 8 12 1 -2
BITMAP
FC
86
82
82
86
F8
84
82
82
81
00
78
ENDCHAR
STARTCHAR uni1E5F
ENCODING 7775
SWIDTH 602 0
DWIDTH 8 0
BBX 5 10 2 -2
BITMAP
F0
C8
80
80
80
80
80
80
00
F0
ENDCHAR
STARTCHAR uni1E60
ENCODING 7776
SWIDTH 602 0
DWIDTH 8 0
BBX 7 12 1 0
BITMAP
10
00
3C
C2
80
80
60
1C
02
02
86
7C
ENDCHAR
STARTCHAR uni1E61
ENCODING 7777
SWIDTH 602 0
DWIDTH 8 0
BBX 6 11 1 0
BITMAP
10
00
00
78
84
80
E0
1C
04
84
78
ENDCHAR
STARTCHAR uni1E62
ENCODING 7778
SWIDTH 602 0
DWIDTH 8 0
BBX 7 12 1 -2
BITMAP
3C
C2
80
80
60
1C
02
02
86
7C
00
10
ENDCHAR
STARTCHAR uni1E63
ENCODING 7779
SWIDTH 602 0
DWIDTH 8 0
BBX 6 10 1 -2
BITMAP
78
84
80
E0
1C
04
84
78
00
10
ENDCHAR
STARTCHAR uni1E68
ENCODING 7784
SWIDTH 602 0
DWIDTH 8 0
BBX 7 14 1 -2
BITMAP
10
00
3C
C2
80
80
60
1C
02
02
86
7C
00
10
ENDCHAR
STARTCHAR uni1E69
ENCODING 7785
SWIDTH 602 0
DWIDTH 8 0
BBX 6 13 1 -2
BITMAP
10
00
00
78
84
80
E0
1C
04
84
78
00
10
ENDCHAR
STARTCHAR uni1E6A
ENCODING 7786
SWIDTH 602 0
DWIDTH 8 0
BBX 7 12 1 0
BITMAP
10
00
FE
10
10
10
10
10
10
10
10
10
ENDCHAR
STARTCHAR uni1E6B
ENCODING 7787
SWIDTH 602 0
DWIDTH 8 0
BBX 6 12 1 0
BITMAP
10
00
20
20
FC
20
20
20
20
20
20
1C
ENDCHAR
STARTCHAR uni1E6C
ENCODING 7788
SWIDTH 602 0
DWIDTH 8 0
BBX 7 12 1 -2
BITMAP
FE
10
10
10
10
10
10
10
10
10
00
10
ENDCHAR
STARTCHAR uni1E6D
ENCODING 7789
SWIDTH 602 0
DWIDTH 8 0
BBX 6 12 1 -2
BITMAP
20
20
FC
20
20
20
20
20
20
1C
00
10
ENDCHAR
STARTCHAR uni1E6E
ENCODING 7790
SWIDTH 602 0
DWIDTH 8 0
BBX 7 12 1 -2
BITMAP
FE
10
10
10
10
10
10
10
10
10
00
78
ENDCHAR
STARTCHAR uni1E6F
ENCODING 7791
SWIDTH 602 0
DWIDTH 8 0
BBX 6 12 1 -2
BITMAP
20
20
FC
20
20
20
20
20
20
1C
00
78
ENDCHAR
STARTCHAR uni1E70
ENCODING 7792
SWIDTH 602 0
DWIDTH 8 0
BBX 7 14 1 -4
BITMAP
FE
10
10
10
10
10
10
10
10
10
00
30
30
48
ENDCHAR
STARTCHAR uni1E71
ENCODING 7793
SWIDTH 602 0
DWIDTH 8 0
BBX 6 14 1 -4
BITMAP
20
20
FC
20
20
20
20
20
20
1C
00
30
30
48
ENDCHAR
STARTCHAR uni1E72
ENCODING 7794
SWIDTH 602 0
DWIDTH 8 0
BBX 7 12 1 -2
BITMAP
82
82
82
82
82
82
82
82
C6
7C
00
50
ENDCHAR
STARTCHAR uni1E73
ENCODING 7795
SWIDTH 602 0
DWIDTH 8 0
BBX 6 10 1 -2
BITMAP
84
84
84
84
84
84
8C
74
00
50
ENDCHAR
STARTCHAR uni1E74
ENCODING 7796
SWIDTH 602 0
DWIDTH 8 0
BBX 7 13 1 -3
BITMAP
82
82
82
82
82
82
82
82
C6
7C
00
74
5C
ENDCHAR
STARTCHAR uni1E75
ENCODING 7797
SWIDTH 602 0
DWIDTH 8 0
BBX 6 11 1 -3
BITMAP
84
84
84
84
84
84
8C
74
00
74
5C
ENDCHAR
STARTCHAR uni1E76
ENCODING 7798
SWIDTH 602 0
DWIDTH 8 0
BBX 7 14 1 -4
BITMAP
82
82
82
82
82
82
82
82
C6
7C
00
30
30
48
ENDCHAR
STARTCHAR uni1E77
ENCODING 7799
SWIDTH 602 0
DWIDTH 8 0
BBX 6 12 1 -4
BITMAP
84
84
84
84
84
84
8C
74
00
30
30
48
ENDCHAR
STARTCHAR uni1E78
ENCODING 7800
SWIDTH 602 0
DWIDTH 8 0
BBX 7 14 1 0
BITMAP
18
30
74
5C
82
82
82
82
82
82
82
82
C6
7C
ENDCHAR
STARTCHAR uni1E79
ENCODING 7801
SWIDTH 602 0
DWIDTH 8 0
BBX 6 15 1 0
BITMAP
18
10
20
00
74
5C
00
84
84
84
84
84
84
8C
74
ENDCHAR
STARTCHAR uni1E7C
ENCODING 7804
SWIDTH 602 0
DWIDTH 8 0
BBX 7 12 1 0
BITMAP
74
5C
82
82
44
44
44
28
28
28
28
10
ENDCHAR
STARTCHAR uni1E7D
ENCODING 7805
SWIDTH 602 0
DWIDTH 8 0
BBX 6 11 1 0
BITMAP
74
5C
00
84
84
48
48
48
30
30
30
ENDCHAR
STARTCHAR uni1E7E
ENCODING 7806
SWIDTH 602 0
DWIDTH 8 0
BBX 7 12 1 -2
BITMAP
82
82
44
44
44
28
28
28
28
10
00
10
ENDCHAR
STARTCHAR uni1E7F
ENCODING 7807
SWIDTH 602 0
DWIDTH 8 0
BBX 6 10 1 -2
BITMAP
84
84
48
48
48
30
30
30
00
10
ENDCHAR
STARTCHAR Wgrave
ENCODING 7808
SWIDTH 602 0
DWIDTH 8 0
BBX 8 13 0 0
BITMAP
30
18
00
81
81
81
99
5A
5A
5A
24
24
24
ENDCHAR
STARTCHAR wgrave
ENCODING 7809
SWIDTH 602 0
DWIDTH 8 0
BBX 8 12 0 0
BITMAP
30
10
08
00
81
81
5A
5A
5A
5A
24
24
ENDCHAR
STARTCHAR Wacute
ENCODING 7810
SWIDTH 602 0
DWIDTH 8 0
BBX 8 13 0 0
BITMAP
0C
18
00
81
81
81
99
5A
5A
5A
24
24
24
ENDCHAR
STARTCHAR wacute
ENCODING 7811
SWIDTH 602 0
DWIDTH 8 0
BBX 8 12 0 0
BITMAP
0C
08
10
00
81
81
5A
5A
5A
5A
24
24
ENDCHAR
STARTCHAR Wdieresis
ENCODING 7812
SWIDTH 602 0
DWIDTH 8 0
BBX 8 13 0 0
BITMAP
28
00
00
81
81
81
99
5A
5A
5A
24
24
24
ENDCHAR
STARTCHAR wdieresis
ENCODING 7813
SWIDTH 602 0
DWIDTH 8 0
BBX 8 10 0 0
BITMAP
28
00
81
81
5A
5A
5A
5A
24
24
ENDCHAR
STARTCHAR uni1E86
ENCODING 7814
SWIDTH 602 0
DWIDTH 8 0
BBX 8 12 0 0
BITMAP
08
00
81
81
81
99
5A
5A
5A
24
24
24
ENDCHAR
STARTCHAR uni1E87
ENCODING 7815
SWIDTH 602 0
DWIDTH 8 0
BBX 8 11 0 0
BITMAP
08
00
00
81
81
5A
5A
5A
5A
24
24
ENDCHAR
STARTCHAR uni1E88
ENCODING 7816
SWIDTH 602 0
DWIDTH 8 0
BBX 8 12 0 -2
BITMAP
81
81
81
99
5A
5A
5A
24
24
24
00
08
ENDCHAR
STARTCHAR uni1E89
ENCODING 7817
SWIDTH 602 0
DWIDTH 8 0
BBX 8 10 0 -2
BITMAP
81
81
5A
5A
5A
5A
24
24
00
08
ENDCHAR
STARTCHAR uni1E8A
ENCODING 7818
SWIDTH 602 0
DWIDTH 8 0
BBX 7 12 1 0
BITMAP
10
00
82
44
28
28
10
28
28
44
44
82
ENDCHAR
STARTCHAR uni1E8B
ENCODING 7819
SWIDTH 602 0
DWIDTH 8 0
BBX 6 11 1 0
BITMAP
10
00
00
84
48
30
30
30
48
48
84
ENDCHAR
STARTCHAR uni1E8C
ENCODING 7820
SWIDTH 602 0
DWIDTH 8 0
BBX 7 11 1 0
BITMAP
28
82
44
28
28
10
28
28
44
44
82
ENDCHAR
STARTCHAR uni1E8D
ENCODING 7821
SWIDTH 602 0
DWIDTH 8 0
BBX 6 10 1 0
BITMAP
50
00
84
48
30
30
30
48
48
84
ENDCHAR
STARTCHAR uni1E8E
ENCODING 7822
SWIDTH 602 0
DWIDTH 8 0
BBX 7 12 1 0
BITMAP
10
00
82
44
44
28
38
10
10
10
10
10
ENDCHAR
STARTCHAR uni1E8F
ENCODING 7823
SWIDTH 602 0
DWIDTH 8 0
BBX 6 14 1 -3
BITMAP
10
00
00
84
44
48
48
28
30
10
10
10
20
60
ENDCHAR
STARTCHAR uni1E90
ENCODING 7824
SWIDTH 602 0
DWIDTH 8 0
BBX 7 13 1 0
BITMAP
30
48
00
FE
06
04
08
10
10
20
40
C0
FE
ENDCHAR
STARTCHAR uni1E91
ENCODING 7825
SWIDTH 602 0
DWIDTH 8 0
BBX 6 12 1 0
BITMAP
30
30
48
00
FC
04
08
10
20
40
80
FC
ENDCHAR
STARTCHAR uni1E92
ENCODING 7826
SWIDTH 602 0
DWIDTH 8 0
BBX 7 12 1 -2
BITMAP
FE
06
04
08
10
10
20
40
C0
FE
00
10
ENDCHAR
STARTCHAR uni1E93
ENCODING 7827
SWIDTH 602 0
DWIDTH 8 0
BBX 6 10 1 -2
BITMAP
FC
04
08
10
20
40
80
FC
00
10
ENDCHAR
STARTCHAR uni1E94
ENCODING 7828
SWIDTH 602 0
DWIDTH 8 0
BBX 7 12 1 -2
BITMAP
FE
06
04
08
10
10
20
40
C0
FE
00
78
ENDCHAR
STARTCHAR uni1E95
ENCODING 7829
SWIDTH 602 0
DWIDTH 8 0
BBX 6 10 1 -2
BITMAP
FC
04
08
10
20
40
80
FC
00
78
ENDCHAR
STARTCHAR uni1E96
ENCODING 7830
SWIDTH 602 0
DWIDTH 8 0
BBX 6 13 1 -2
BITMAP
80
80
80
B8
C4
84
84
84
84
84
84
00
78
ENDCHAR
STARTCHAR uni1E97
ENCODING 7831
SWIDTH 602 0
DWIDTH 8 0
BBX 6 12 1 0
BITMAP
A0
00
20
20
FC
20
20
20
20
20
20
1C
ENDCHAR
STARTCHAR uni1E98
ENCODING 7832
SWIDTH 602 0
DWIDTH 8 0
BBX 8 13 0 0
BITMAP
18
24
24
18
00
81
81
5A
5A
5A
5A
24
24
ENDCHAR
STARTCHAR uni1E99
ENCODING 7833
SWIDTH 602 0
DWIDTH 8 0
BBX 6 16 1 -3
BITMAP
30
48
48
30
00
84
44
48
48
28
30
10
10
10
20
60
ENDCHAR
STARTCHAR uni1E9B
ENCODING 7835
SWIDTH 602 0
DWIDTH 8 0
BBX 6 12 1 0
BITMAP
10
1C
20
20
E0
20
20
20
20
20
20
20
ENDCHAR
STARTCHAR uni1E9F
ENCODING 7839
SWIDTH 602 0
DWIDTH 8 0
BBX 6 11 1 0
BITMAP
38
6C
C0
78
4C
C4
84
84
84
C4
78
ENDCHAR
STARTCHAR uni1EA0
ENCODING 7840
SWIDTH 602 0
DWIDTH 8 0
BBX 7 12 1 -2
BITMAP
10
28
28
28
28
44
7C
44
82
82
00
10
ENDCHAR
STARTCHAR uni1EA1
ENCODING 7841
SWIDTH 602 0
DWIDTH 8 0
BBX 6 10 1 -2
BITMAP
38
44
04
7C
84
84
8C
74
00
10
ENDCHAR
STARTCHAR uni1EAC
ENCODING 7852
SWIDTH 602 0
DWIDTH 8 0
BBX 7 15 1 -2
BITMAP
30
48
00
10
28
28
28
28
44
7C
44
82
82
00
10
ENDCHAR
STARTCHAR uni1EAD
ENCODING 7853
SWIDTH 602 0
DWIDTH 8 0
BBX 6 14 1 -2
BITMAP
30
30
48
00
38
44
04
7C
84
84
8C
74
00
10
ENDCHAR
STARTCHAR uni1EB0
ENCODING 7856
SWIDTH 602 0
DWIDTH 8 0
BBX 7 14 1 0
BITMAP
60
30
48
30
10
28
28
28
28
44
7C
44
82
82
ENDCHAR
STARTCHAR uni1EB1
ENCODING 7857
SWIDTH 602 0
DWIDTH 8 0
BBX 6 14 1 0
BITMAP
60
20
10
48
30
00
38
44
04
7C
84
84
8C
74
ENDCHAR
STARTCHAR uni1EB6
ENCODING 7862
SWIDTH 602 0
DWIDTH 8 0
BBX 7 15 1 -2
BITMAP
48
30
00
10
28
28
28
28
44
7C
44
82
82
00
10
ENDCHAR
STARTCHAR uni1EB7
ENCODING 7863
SWIDTH 602 0
DWIDTH 8 0
BBX 6 13 1 -2
BITMAP
48
30
00
38
44
04
7C
84
84
8C
74
00
10
ENDCHAR
STARTCHAR uni1EB8
ENCODING 7864
SWIDTH 602 0
DWIDTH 8 0
BBX 7 12 1 -2
BITMAP
FE
80
80
80
FE
80
80
80
80
FE
00
10
ENDCHAR
STARTCHAR uni1EB9
ENCODING 7865
SWIDTH 602 0
DWIDTH 8 0
BBX 6 10 1 -2
BITMAP
78
4C
84
FC
80
80
44
38
00
10
ENDCHAR
STARTCHAR uni1EBC
ENCODING 7868
SWIDTH 602 0
DWIDTH 8 0
BBX 7 13 1 0
BITMAP
74
5C
00
FE
80
80
80
FE
80
80
80
80
FE
ENDCHAR
STARTCHAR uni1EBD
ENCODING 7869
SWIDTH 602 0
DWIDTH 8 0
BBX 6 11 1 0
BITMAP
74
5C
00
78
4C
84
FC
80
80
44
38
ENDCHAR
STARTCHAR uni1EC6
ENCODING 7878
SWIDTH 602 0
DWIDTH 8 0
BBX 7 15 1 -2
BITMAP
30
48
00
FE
80
80
80
FE
80
80
80
80
FE
00
10
ENDCHAR
STARTCHAR uni1EC7
ENCODING 7879
SWIDTH 602 0
DWIDTH 8 0
BBX 6 14 1 -2
BITMAP
30
30
48
00
78
4C
84
FC
80
80
44
38
00
10
ENDCHAR
STARTCHAR uni1ECA
ENCODING 7882
SWIDTH 602 0
DWIDTH 8 0
BBX 5 12 2 -2
BITMAP
F8
20
20
20
20
20
20
20
20
F8
00
20
ENDCHAR
STARTCHAR uni1ECB
ENCODING 7883
SWIDTH 602 0
DWIDTH 8 0
BBX 7 13 1 -2
BITMAP
10
10
00
70
10
10
10
10
10
10
FE
00
10
ENDCHAR
STARTCHAR uni1ECC
ENCODING 7884
SWIDTH 602 0
DWIDTH 8 0
BBX 7 12 1 -2
BITMAP
38
44
82
82
82
82
82
82
44
38
00
10
ENDCHAR
STARTCHAR uni1ECD
ENCODING 7885
SWIDTH 602 0
DWIDTH 8 0
BBX 6 10 1 -2
BITMAP
78
CC
84
84
84
84
CC
78
00
10
ENDCHAR
STARTCHAR uni1ED8
ENCODING 7896
SWIDTH 602 0
DWIDTH 8 0
BBX 7 15 1 -2
BITMAP
30
48
00
38
44
82
82
82
82
82
82
44
38
00
10
ENDCHAR
STARTCHAR uni1ED9
ENCODING 7897
SWIDTH 602 0
DWIDTH 8 0
BBX 6 14 1 -2
BITMAP
30
30
48
00
78
CC
84
84
84
84
CC
78
00
10
ENDCHAR
STARTCHAR uni1EDA
ENCODING 7898
SWIDTH 602 0
DWIDTH 8 0
BBX 9 13 0 0
BITMAP
1800
3000
0000
3880
4700
8200
8200
8200
8200
8200
8200
4400
3800
ENDCHAR
STARTCHAR uni1EDB
ENCODING 7899
SWIDTH 602 0
DWIDTH 8 0
BBX 9 12 0 0
BITMAP
1800
1000
2000
0000
7800
CC80
8700
8400
8400
8400
CC00
7800
ENDCHAR
STARTCHAR uni1EDC
ENCODING 7900
SWIDTH 602 0
DWIDTH 8 0
BBX 9 13 0 0
BITMAP
6000
3000
0000
3880
4700
8200
8200
8200
8200
8200
8200
4400
3800
ENDCHAR
STARTCHAR uni1EDD
ENCODING 7901
SWIDTH 602 0
DWIDTH 8 0
BBX 9 12 0 0
BITMAP
6000
2000
1000
0000
7800
CC80
8700
8400
8400
8400
CC00
7800
ENDCHAR
STARTCHAR uni1EE0
ENCODING 7904
SWIDTH 602 0
DWIDTH 8 0
BBX 9 13 0 0
BITMAP
7400
5C00
0000
3880
4700
8200
8200
8200
8200
8200
8200
4400
3800
ENDCHAR
STARTCHAR uni1EE1
ENCODING 7905
SWIDTH 602 0
DWIDTH 8 0
BBX 9 11 0 0
BITMAP
7400
5C00
0000
7800
CC80
8700
8400
8400
8400
CC00
7800
ENDCHAR
STARTCHAR uni1EE2
ENCODING 7906
SWIDTH 602 0
DWIDTH 8 0
BBX 9 12 0 -2
BITMAP
3880
4700
8200
8200
8200
8200
8200
8200
4400
3800
0000
1000
ENDCHAR
STARTCHAR uni1EE3
ENCODING 7907
SWIDTH 602 0
DWIDTH 8 0
BBX 9 10 0 -2
BITMAP
7800
CC80
8700
8400
8400
8400
CC00
7800
0000
1000
ENDCHAR
STARTCHAR uni1EE4
ENCODING 7908
SWIDTH 602 0
DWIDTH 8 0
BBX 7 12 1 -2
BITMAP
82
82
82
82
82
82
82
82
C6
7C
00
10
ENDCHAR
STARTCHAR uni1EE5
ENCODING 7909
SWIDTH 602 0
DWIDTH 8 0
BBX 6 10 1 -2
BITMAP
84
84
84
84
84
84
8C
74
00
10
ENDCHAR
STARTCHAR uni1EE8
ENCODING 7912
SWIDTH 602 0
DWIDTH 8 0
BBX 9 13 0 0
BITMAP
1800
3000
0000
8280
8300
8200
8200
8200
8200
8200
8200
C600
7C00
ENDCHAR
STARTCHAR uni1EE9
ENCODING 7913
SWIDTH 602 0
DWIDTH 8 0
BBX 9 12 0 0
BITMAP
1800
1000
2000
0000
8400
8480
8700
8400
8400
8400
8C00
7400
ENDCHAR
STARTCHAR uni1EEA
ENCODING 7914
SWIDTH 602 0
DWIDTH 8 0
BBX 9 13 0 0
BITMAP
6000
3000
0000
8280
8300
8200
8200
8200
8200
8200
8200
C600
7C00
ENDCHAR
STARTCHAR uni1EEB
ENCODING 7915
SWIDTH 602 0
DWIDTH 8 0
BBX 9 12 0 0
BITMAP
6000
2000
1000
0000
8400
8480
8700
8400
8400
8400
8C00
7400
ENDCHAR
STARTCHAR uni1EEE
ENCODING 7918
SWIDTH 602 0
DWIDTH 8 0
BBX 9 13 0 0
BITMAP
7400
5C00
0000
8280
8300
8200
8200
8200
8200
8200
8200
C600
7C00
ENDCHAR
STARTCHAR uni1EEF
ENCODING 7919
SWIDTH 602 0
DWIDTH 8 0
BBX 9 11 0 0
BITMAP
7400
5C00
0000
8400
8480
8700
8400
8400
8400
8C00
7400
ENDCHAR
STARTCHAR uni1EF0
ENCODING 7920
SWIDTH 602 0
DWIDTH 8 0
BBX 9 12 0 -2
BITMAP
8280
8300
8200
8200
8200
8200
8200
8200
C600
7C00
0000
1000
ENDCHAR
STARTCHAR uni1EF1
ENCODING 7921
SWIDTH 602 0
DWIDTH 8 0
BBX 9 10 0 -2
BITMAP
8400
8480
8700
8400
8400
8400
8C00
7400
0000
1000
ENDCHAR
STARTCHAR Ygrave
ENCODING 7922
SWIDTH 602 0
DWIDTH 8 0
BBX 7 13 1 0
BITMAP
60
30
00
82
44
44
28
38
10
10
10
10
10
ENDCHAR
STARTCHAR ygrave
ENCODING 7923
SWIDTH 602 0
DWIDTH 8 0
BBX 6 15 1 -3
BITMAP
60
20
10
00
84
44
48
48
28
30
10
10
10
20
60
ENDCHAR
STARTCHAR uni1EF4
ENCODING 7924
SWIDTH 602 0
DWIDTH 8 0
BBX 7 12 1 -2
BITMAP
82
44
44
28
38
10
10
10
10
10
00
10
ENDCHAR
STARTCHAR uni1EF5
ENCODING 7925
SWIDTH 602 0
DWIDTH 8 0
BBX 6 11 1 -3
BITMAP
84
44
48
48
28
30
10
10
10
24
60
ENDCHAR
STARTCHAR uni1EF8
ENCODING 7928
SWIDTH 602 0
DWIDTH 8 0
BBX 7 13 1 0
BITMAP
74
5C
00
82
44
44
28
38
10
10
10
10
10
ENDCHAR
STARTCHAR uni1EF9
ENCODING 7929
SWIDTH 602 0
DWIDTH 8 0
BBX 6 14 1 -3
BITMAP
74
5C
00
84
44
48
48
28
30
10
10
10
20
60
ENDCHAR
STARTCHAR uni1F00
ENCODING 7936
SWIDTH 602 0
DWIDTH 8 0
BBX 8 11 0 0
BITMAP
18
08
10
39
6E
46
46
C4
46
4E
3B
ENDCHAR
STARTCHAR uni1F01
ENCODING 7937
SWIDTH 602 0
DWIDTH 8 0
BBX 8 11 0 0
BITMAP
18
10
08
39
6E
46
46
C4
46
4E
3B
ENDCHAR
STARTCHAR uni1F02
ENCODING 7938
SWIDTH 602 0
DWIDTH 8 0
BBX 8 12 0 0
BITMAP
0C
64
22
40
39
6E
46
46
C4
46
4E
3B
ENDCHAR
STARTCHAR uni1F03
ENCODING 7939
SWIDTH 602 0
DWIDTH 8 0
BBX 8 12 0 0
BITMAP
0C
64
42
20
39
6E
46
46
C4
46
4E
3B
ENDCHAR
STARTCHAR uni1F04
ENCODING 7940
SWIDTH 602 0
DWIDTH 8 0
BBX 8 12 0 0
BITMAP
06
34
18
20
39
6E
46
46
C4
46
4E
3B
ENDCHAR
STARTCHAR uni1F05
ENCODING 7941
SWIDTH 602 0
DWIDTH 8 0
BBX 8 12 0 0
BITMAP
06
34
28
10
39
6E
46
46
C4
46
4E
3B
ENDCHAR
STARTCHAR uni1F06
ENCODING 7942
SWIDTH 602 0
DWIDTH 8 0
BBX 8 14 0 0
BITMAP
3A
2E
00
18
08
10
39
6E
46
46
C4
46
4E
3B
ENDCHAR
STARTCHAR uni1F07
ENCODING 7943
SWIDTH 602 0
DWIDTH 8 0
BBX 8 14 0 0
BITMAP
3A
2E
00
18
10
08
39
6E
46
46
C4
46
4E
3B
ENDCHAR
STARTCHAR uni1F08
ENCODING 7944
SWIDTH 602 0
DWIDTH 8 0
BBX 7 11 1 0
BITMAP
C0
50
A8
28
28
28
44
7C
44
82
82
ENDCHAR
STARTCHAR uni1F09
ENCODING 7945
SWIDTH 602 0
DWIDTH 8 0
BBX 8 11 0 0
BITMAP
C0
88
54
14
14
14
22
3E
22
41
41
ENDCHAR
STARTCHAR uni1F0A
ENCODING 7946
SWIDTH 602 0
DWIDTH 8 0
BBX 11 12 -3 0
BITMAP
1800
C800
4500
8280
0280
0280
0280
0440
07C0
0440
0820
0820
ENDCHAR
STARTCHAR uni1F0B
ENCODING 7947
SWIDTH 602 0
DWIDTH 8 0
BBX 11 12 -3 0
BITMAP
1800
C800
8500
4280
0280
0280
0280
0440
07C0
0440
0820
0820
ENDCHAR
STARTCHAR uni1F0C
ENCODING 7948
SWIDTH 602 0
DWIDTH 8 0
BBX 10 12 -2 0
BITMAP
1800
D000
6200
8500
0500
0500
0500
0880
0F80
0880
1040
1040
ENDCHAR
STARTCHAR uni1F0D
ENCODING 7949
SWIDTH 602 0
DWIDTH 8 0
BBX 10 12 -2 0
BITMAP
1800
D000
A200
4500
0500
0500
0500
0880
0F80
0880
1040
1040
ENDCHAR
STARTCHAR uni1F0E
ENCODING 7950
SWIDTH 602 0
DWIDTH 8 0
BBX 8 14 0 0
BITMAP
E8
B8
00
60
28
54
14
14
14
22
3E
22
41
41
ENDCHAR
STARTCHAR uni1F0F
ENCODING 7951
SWIDTH 602 0
DWIDTH 8 0
BBX 9 14 -1 0
BITMAP
E800
B800
0000
6000
4400
2A00
0A00
0A00
0A00
1100
1F00
1100
2080
2080
ENDCHAR
STARTCHAR uni1F10
ENCODING 7952
SWIDTH 602 0
DWIDTH 8 0
BBX 6 11 1 0
BITMAP
30
10
20
7C
80
80
70
80
80
84
78
ENDCHAR
STARTCHAR uni1F11
ENCODING 7953
SWIDTH 602 0
DWIDTH 8 0
BBX 6 11 1 0
BITMAP
30
20
10
7C
80
80
70
80
80
84
78
ENDCHAR
STARTCHAR uni1F12
ENCODING 7954
SWIDTH 602 0
DWIDTH 8 0
BBX 6 12 1 0
BITMAP
18
C8
44
80
7C
80
80
70
80
80
84
78
ENDCHAR
STARTCHAR uni1F13
ENCODING 7955
SWIDTH 602 0
DWIDTH 8 0
BBX 6 12 1 0
BITMAP
18
C8
84
40
7C
80
80
70
80
80
84
78
ENDCHAR
STARTCHAR uni1F14
ENCODING 7956
SWIDTH 602 0
DWIDTH 8 0
BBX 6 12 1 0
BITMAP
0C
68
30
40
7C
80
80
70
80
80
84
78
ENDCHAR
STARTCHAR uni1F15
ENCODING 7957
SWIDTH 602 0
DWIDTH 8 0
BBX 6 12 1 0
BITMAP
0C
68
50
20
7C
80
80
70
80
80
84
78
ENDCHAR
STARTCHAR uni1F18
ENCODING 7960
SWIDTH 602 0
DWIDTH 8 0
BBX 9 11 -1 0
BITMAP
C000
7F80
A000
2000
2000
3F80
2000
2000
2000
2000
3F80
ENDCHAR
STARTCHAR uni1F19
ENCODING 7961
SWIDTH 602 0
DWIDTH 8 0
BBX 9 11 -1 0
BITMAP
C000
BF80
6000
2000
2000
3F80
2000
2000
2000
2000
3F80
ENDCHAR
STARTCHAR uni1F1A
ENCODING 7962
SWIDTH 602 0
DWIDTH 8 0
BBX 13 12 -5 0
BITMAP
1800
C800
47F8
8200
0200
0200
03F8
0200
0200
0200
0200
03F8
ENDCHAR
STARTCHAR uni1F1B
ENCODING 7963
SWIDTH 602 0
DWIDTH 8 0
BBX 13 12 -5 0
BITMAP
1800
C800
87F8
4200
0200
0200
03F8
0200
0200
0200
0200
03F8
ENDCHAR
STARTCHAR uni1F1C
ENCODING 7964
SWIDTH 602 0
DWIDTH 8 0
BBX 11 12 -3 0
BITMAP
1800
D000
6FE0
8800
0800
0800
0FE0
0800
0800
0800
0800
0FE0
ENDCHAR
STARTCHAR uni1F1D
ENCODING 7965
SWIDTH 602 0
DWIDTH 8 0
BBX 11 12 -3 0
BITMAP
1800
D000
AFE0
4800
0800
0800
0FE0
0800
0800
0800
0800
0FE0
ENDCHAR
STARTCHAR uni1F20
ENCODING 7968
SWIDTH 602 0
DWIDTH 8 0
BBX 6 14 1 -3
BITMAP
30
10
20
B8
C4
84
84
84
84
84
84
04
04
04
ENDCHAR
STARTCHAR uni1F21
ENCODING 7969
SWIDTH 602 0
DWIDTH 8 0
BBX 6 14 1 -3
BITMAP
30
20
10
B8
C4
84
84
84
84
84
84
04
04
04
ENDCHAR
STARTCHAR uni1F22
ENCODING 7970
SWIDTH 602 0
DWIDTH 8 0
BBX 6 15 1 -3
BITMAP
18
C8
44
80
B8
C4
84
84
84
84
84
84
04
04
04
ENDCHAR
STARTCHAR uni1F23
ENCODING 7971
SWIDTH 602 0
DWIDTH 8 0
BBX 6 15 1 -3
BITMAP
18
C8
84
40
B8
C4
84
84
84
84
84
84
04
04
04
ENDCHAR
STARTCHAR uni1F24
ENCODING 7972
SWIDTH 602 0
DWIDTH 8 0
BBX 6 15 1 -3
BITMAP
0C
68
30
40
B8
C4
84
84
84
84
84
84
04
04
04
ENDCHAR
STARTCHAR uni1F25
ENCODING 7973
SWIDTH 602 0
DWIDTH 8 0
BBX 6 15 1 -3
BITMAP
0C
68
50
20
B8
C4
84
84
84
84
84
84
04
04
04
ENDCHAR
STARTCHAR uni1F26
ENCODING 7974
SWIDTH 602 0
DWIDTH 8 0
BBX 6 17 1 -3
BITMAP
74
5C
00
30
10
20
B8
C4
84
84
84
84
84
84
04
04
04
ENDCHAR
STARTCHAR uni1F27
ENCODING 7975
SWIDTH 602 0
DWIDTH 8 0
BBX 6 17 1 -3
BITMAP
74
5C
00
30
20
10
B8
C4
84
84
84
84
84
84
04
04
04
ENDCHAR
STARTCHAR uni1F28
ENCODING 7976
SWIDTH 602 0
DWIDTH 8 0
BBX 10 11 -2 0
BITMAP
C000
5040
9040
1040
1040
1FC0
1040
1040
1040
1040
1040
ENDCHAR
STARTCHAR uni1F29
ENCODING 7977
SWIDTH 602 0
DWIDTH 8 0
BBX 10 11 -2 0
BITMAP
C000
9040
5040
1040
1040
1FC0
1040
1040
1040
1040
1040
ENDCHAR
STARTCHAR uni1F2A
ENCODING 7978
SWIDTH 602 0
DWIDTH 8 0
BBX 13 12 -5 0
BITMAP
1800
C800
4608
8208
0208
0208
03F8
0208
0208
0208
0208
0208
ENDCHAR
STARTCHAR uni1F2B
ENCODING 7979
SWIDTH 602 0
DWIDTH 8 0
BBX 13 12 -5 0
BITMAP
1800
C800
8608
4208
0208
0208
03F8
0208
0208
0208
0208
0208
ENDCHAR
STARTCHAR uni1F2C
ENCODING 7980
SWIDTH 602 0
DWIDTH 8 0
BBX 12 12 -4 0
BITMAP
1800
D000
6410
8410
0410
0410
07F0
0410
0410
0410
0410
0410
ENDCHAR
STARTCHAR uni1F2D
ENCODING 7981
SWIDTH 602 0
DWIDTH 8 0
BBX 12 12 -4 0
BITMAP
1800
D000
A410
4410
0410
0410
07F0
0410
0410
0410
0410
0410
ENDCHAR
STARTCHAR uni1F2E
ENCODING 7982
SWIDTH 602 0
DWIDTH 8 0
BBX 11 14 -3 0
BITMAP
E800
B800
0000
6000
2820
4820
0820
0820
0FE0
0820
0820
0820
0820
0820
ENDCHAR
STARTCHAR uni1F2F
ENCODING 7983
SWIDTH 602 0
DWIDTH 8 0
BBX 11 14 -3 0
BITMAP
E800
B800
0000
6000
4820
2820
0820
0820
0FE0
0820
0820
0820
0820
0820
ENDCHAR
STARTCHAR uni1F30
ENCODING 7984
SWIDTH 602 0
DWIDTH 8 0
BBX 4 11 3 0
BITMAP
C0
40
80
C0
40
40
40
40
40
40
30
ENDCHAR
STARTCHAR uni1F31
ENCODING 7985
SWIDTH 602 0
DWIDTH 8 0
BBX 4 11 3 0
BITMAP
C0
80
40
C0
40
40
40
40
40
40
30
ENDCHAR
STARTCHAR uni1F32
ENCODING 7986
SWIDTH 602 0
DWIDTH 8 0
BBX 6 12 1 0
BITMAP
18
C8
44
80
30
10
10
10
10
10
10
0C
ENDCHAR
STARTCHAR uni1F33
ENCODING 7987
SWIDTH 602 0
DWIDTH 8 0
BBX 6 12 1 0
BITMAP
18
C8
84
40
30
10
10
10
10
10
10
0C
ENDCHAR
STARTCHAR uni1F34
ENCODING 7988
SWIDTH 602 0
DWIDTH 8 0
BBX 5 12 2 0
BITMAP
18
D0
60
80
60
20
20
20
20
20
20
18
ENDCHAR
STARTCHAR uni1F35
ENCODING 7989
SWIDTH 602 0
DWIDTH 8 0
BBX 5 12 2 0
BITMAP
18
D0
A0
40
60
20
20
20
20
20
20
18
ENDCHAR
STARTCHAR uni1F36
ENCODING 7990
SWIDTH 602 0
DWIDTH 8 0
BBX 5 14 2 0
BITMAP
E8
B8
00
60
20
40
60
20
20
20
20
20
20
18
ENDCHAR
STARTCHAR uni1F37
ENCODING 7991
SWIDTH 602 0
DWIDTH 8 0
BBX 5 14 2 0
BITMAP
E8
B8
00
60
40
20
60
20
20
20
20
20
20
18
ENDCHAR
STARTCHAR uni1F38
ENCODING 7992
SWIDTH 602 0
DWIDTH 8 0
BBX 8 11 -1 0
BITMAP
C0
5F
84
04
04
04
04
04
04
04
1F
ENDCHAR
STARTCHAR uni1F39
ENCODING 7993
SWIDTH 602 0
DWIDTH 8 0
BBX 8 11 -1 0
BITMAP
C0
9F
44
04
04
04
04
04
04
04
1F
ENDCHAR
STARTCHAR uni1F3A
ENCODING 7994
SWIDTH 602 0
DWIDTH 8 0
BBX 12 12 -5 0
BITMAP
1800
C800
45F0
8040
0040
0040
0040
0040
0040
0040
0040
01F0
ENDCHAR
STARTCHAR uni1F3B
ENCODING 7995
SWIDTH 602 0
DWIDTH 8 0
BBX 12 12 -5 0
BITMAP
1800
C800
85F0
4040
0040
0040
0040
0040
0040
0040
0040
01F0
ENDCHAR
STARTCHAR uni1F3C
ENCODING 7996
SWIDTH 602 0
DWIDTH 8 0
BBX 10 12 -3 0
BITMAP
1800
D000
67C0
8100
0100
0100
0100
0100
0100
0100
0100
07C0
ENDCHAR
STARTCHAR uni1F3D
ENCODING 7997
SWIDTH 602 0
DWIDTH 8 0
BBX 10 12 -3 0
BITMAP
1800
D000
A7C0
4100
0100
0100
0100
0100
0100
0100
0100
07C0
ENDCHAR
STARTCHAR uni1F3E
ENCODING 7998
SWIDTH 602 0
DWIDTH 8 0
BBX 9 14 -2 0
BITMAP
E800
B800
0000
6000
2F80
4200
0200
0200
0200
0200
0200
0200
0200
0F80
ENDCHAR
STARTCHAR uni1F3F
ENCODING 7999
SWIDTH 602 0
DWIDTH 8 0
BBX 9 14 -2 0
BITMAP
E800
B800
0000
6000
4F80
2200
0200
0200
0200
0200
0200
0200
0200
0F80
ENDCHAR
STARTCHAR uni1F40
ENCODING 8000
SWIDTH 602 0
DWIDTH 8 0
BBX 6 11 1 0
BITMAP
30
10
20
78
CC
84
84
84
84
CC
78
ENDCHAR
STARTCHAR uni1F41
ENCODING 8001
SWIDTH 602 0
DWIDTH 8 0
BBX 6 11 1 0
BITMAP
30
20
10
78
CC
84
84
84
84
CC
78
ENDCHAR
STARTCHAR uni1F42
ENCODING 8002
SWIDTH 602 0
DWIDTH 8 0
BBX 6 12 1 0
BITMAP
18
C8
44
80
78
CC
84
84
84
84
CC
78
ENDCHAR
STARTCHAR uni1F43
ENCODING 8003
SWIDTH 602 0
DWIDTH 8 0
BBX 6 12 1 0
BITMAP
18
C8
84
40
78
CC
84
84
84
84
CC
78
ENDCHAR
STARTCHAR uni1F44
ENCODING 8004
SWIDTH 602 0
DWIDTH 8 0
BBX 6 12 1 0
BITMAP
0C
68
30
40
78
CC
84
84
84
84
CC
78
ENDCHAR
STARTCHAR uni1F45
ENCODING 8005
SWIDTH 602 0
DWIDTH 8 0
BBX 6 12 1 0
BITMAP
0C
68
50
20
78
CC
84
84
84
84
CC
78
ENDCHAR
STARTCHAR uni1F48
ENCODING 8008
SWIDTH 602 0
DWIDTH 8 0
BBX 9 11 -1 0
BITMAP
C000
4E00
9100
2080
2080
2080
2080
2080
2080
1100
0E00
ENDCHAR
STARTCHAR uni1F49
ENCODING 8009
SWIDTH 602 0
DWIDTH 8 0
BBX 9 11 -1 0
BITMAP
C000
8E00
5100
2080
2080
2080
2080
2080
2080
1100
0E00
ENDCHAR
STARTCHAR uni1F4A
ENCODING 8010
SWIDTH 602 0
DWIDTH 8 0
BBX 13 12 -5 0
BITMAP
1800
C800
44E0
8110
0208
0208
0208
0208
0208
0208
0110
00E0
ENDCHAR
STARTCHAR uni1F4B
ENCODING 8011
SWIDTH 602 0
DWIDTH 8 0
BBX 13 12 -5 0
BITMAP
1800
C800
84E0
4110
0208
0208
0208
0208
0208
0208
0110
00E0
ENDCHAR
STARTCHAR uni1F4C
ENCODING 8012
SWIDTH 602 0
DWIDTH 8 0
BBX 10 12 -2 0
BITMAP
1800
D000
6700
8880
1040
1040
1040
1040
1040
1040
0880
0700
ENDCHAR
STARTCHAR uni1F4D
ENCODING 8013
SWIDTH 602 0
DWIDTH 8 0
BBX 10 12 -2 0
BITMAP
1800
D000
A700
4880
1040
1040
1040
1040
1040
1040
0880
0700
ENDCHAR
STARTCHAR uni1F50
ENCODING 8016
SWIDTH 602 0
DWIDTH 8 0
BBX 8 11 0 0
BITMAP
18
08
10
E6
22
23
23
23
22
26
1C
ENDCHAR
STARTCHAR uni1F51
ENCODING 8017
SWIDTH 602 0
DWIDTH 8 0
BBX 8 11 0 0
BITMAP
18
10
08
E6
22
23
23
23
22
26
1C
ENDCHAR
STARTCHAR uni1F52
ENCODING 8018
SWIDTH 602 0
DWIDTH 8 0
BBX 8 12 0 0
BITMAP
0C
64
22
40
E6
22
23
23
23
22
26
1C
ENDCHAR
STARTCHAR uni1F53
ENCODING 8019
SWIDTH 602 0
DWIDTH 8 0
BBX 8 12 0 0
BITMAP
0C
64
42
20
E6
22
23
23
23
22
26
1C
ENDCHAR
STARTCHAR uni1F54
ENCODING 8020
SWIDTH 602 0
DWIDTH 8 0
BBX 8 12 0 0
BITMAP
06
34
18
20
E6
22
23
23
23
22
26
1C
ENDCHAR
STARTCHAR uni1F55
ENCODING 8021
SWIDTH 602 0
DWIDTH 8 0
BBX 8 12 0 0
BITMAP
06
34
28
10
E6
22
23
23
23
22
26
1C
ENDCHAR
STARTCHAR uni1F56
ENCODING 8022
SWIDTH 602 0
DWIDTH 8 0
BBX 8 14 0 0
BITMAP
3A
2E
00
18
08
10
E6
22
23
23
23
22
26
1C
ENDCHAR
STARTCHAR uni1F57
ENCODING 8023
SWIDTH 602 0
DWIDTH 8 0
BBX 8 14 0 0
BITMAP
3A
2E
00
18
10
08
E6
22
23
23
23
22
26
1C
ENDCHAR
STARTCHAR uni1F59
ENCODING 8025
SWIDTH 602 0
DWIDTH 8 0
BBX 10 11 -2 0
BITMAP
C000
9040
4880
0880
0500
0700
0200
0200
0200
0200
0200
ENDCHAR
STARTCHAR uni1F5B
ENCODING 8027
SWIDTH 602 0
DWIDTH 8 0
BBX 13 12 -5 0
BITMAP
1800
C800
8608
4110
0110
00A0
00E0
0040
0040
0040
0040
0040
ENDCHAR
STARTCHAR uni1F5D
ENCODING 8029
SWIDTH 602 0
DWIDTH 8 0
BBX 13 12 -5 0
BITMAP
1800
D000
A208
4110
0110
00A0
00E0
0040
0040
0040
0040
0040
ENDCHAR
STARTCHAR uni1F5F
ENCODING 8031
SWIDTH 602 0
DWIDTH 8 0
BBX 11 14 -3 0
BITMAP
E800
B800
0000
6000
4820
2440
0440
0280
0380
0100
0100
0100
0100
0100
ENDCHAR
STARTCHAR uni1F60
ENCODING 8032
SWIDTH 602 0
DWIDTH 8 0
BBX 8 11 0 0
BITMAP
18
08
10
62
43
43
49
C9
49
5B
7E
ENDCHAR
STARTCHAR uni1F61
ENCODING 8033
SWIDTH 602 0
DWIDTH 8 0
BBX 8 11 0 0
BITMAP
18
10
08
62
43
43
49
C9
49
5B
7E
ENDCHAR
STARTCHAR uni1F62
ENCODING 8034
SWIDTH 602 0
DWIDTH 8 0
BBX 8 12 0 0
BITMAP
0C
64
22
40
62
43
43
49
C9
49
5B
7E
ENDCHAR
STARTCHAR uni1F63
ENCODING 8035
SWIDTH 602 0
DWIDTH 8 0
BBX 8 12 0 0
BITMAP
0C
64
42
20
62
43
43
49
C9
49
5B
7E
ENDCHAR
STARTCHAR uni1F64
ENCODING 8036
SWIDTH 602 0
DWIDTH 8 0
BBX 8 12 0 0
BITMAP
06
34
18
20
62
43
43
49
C9
49
5B
7E
ENDCHAR
STARTCHAR uni1F65
ENCODING 8037
SWIDTH 602 0
DWIDTH 8 0
BBX 8 12 0 0
BITMAP
06
34
28
10
62
43
43
49
C9
49
5B
7E
ENDCHAR
STARTCHAR uni1F66
ENCODING 8038
SWIDTH 602 0
DWIDTH 8 0
BBX 8 14 0 0
BITMAP
3A
2E
00
18
08
10
62
43
43
49
C9
49
5B
7E
ENDCHAR
STARTCHAR uni1F67
ENCODING 8039
SWIDTH 602 0
DWIDTH 8 0
BBX 8 14 0 0
BITMAP
3A
2E
00
18
10
08
62
43
43
49
C9
49
5B
7E
ENDCHAR
STARTCHAR uni1F68
ENCODING 8040
SWIDTH 602 0
DWIDTH 8 0
BBX 9 11 -1 0
BITMAP
C000
4E00
9100
2080
2080
2080
2080
2080
3180
1100
3B80
ENDCHAR
STARTCHAR uni1F69
ENCODING 8041
SWIDTH 602 0
DWIDTH 8 0
BBX 9 11 -1 0
BITMAP
C000
8E00
5100
2080
2080
2080
2080
2080
3180
1100
3B80
ENDCHAR
STARTCHAR uni1F6A
ENCODING 8042
SWIDTH 602 0
DWIDTH 8 0
BBX 13 12 -5 0
BITMAP
1800
C800
44E0
8110
0208
0208
0208
0208
0208
0318
0110
03B8
ENDCHAR
STARTCHAR uni1F6B
ENCODING 8043
SWIDTH 602 0
DWIDTH 8 0
BBX 13 12 -5 0
BITMAP
1800
C800
84E0
4110
0208
0208
0208
0208
0208
0318
0110
03B8
ENDCHAR
STARTCHAR uni1F6C
ENCODING 8044
SWIDTH 602 0
DWIDTH 8 0
BBX 10 12 -2 0
BITMAP
1800
D000
6700
8880
1040
1040
1040
1040
1040
18C0
0880
1DC0
ENDCHAR
STARTCHAR uni1F6D
ENCODING 8045
SWIDTH 602 0
DWIDTH 8 0
BBX 10 12 -2 0
BITMAP
1800
D000
A700
4880
1040
1040
1040
1040
1040
18C0
0880
1DC0
ENDCHAR
STARTCHAR uni1F6E
ENCODING 8046
SWIDTH 602 0
DWIDTH 8 0
BBX 10 14 -2 0
BITMAP
E800
B800
0000
6000
2700
4880
1040
1040
1040
1040
1040
18C0
0880
1DC0
ENDCHAR
STARTCHAR uni1F6F
ENCODING 8047
SWIDTH 602 0
DWIDTH 8 0
BBX 10 14 -2 0
BITMAP
E800
B800
0000
6000
4700
2880
1040
1040
1040
1040
1040
18C0
0880
1DC0
ENDCHAR
STARTCHAR uni1F70
ENCODING 8048
SWIDTH 602 0
DWIDTH 8 0
BBX 8 12 0 0
BITMAP
30
10
08
00
39
6E
46
46
C4
46
4E
3B
ENDCHAR
STARTCHAR uni1F71
ENCODING 8049
SWIDTH 602 0
DWIDTH 8 0
BBX 8 12 0 0
BITMAP
0C
08
10
00
39
6E
46
46
C4
46
4E
3B
ENDCHAR
STARTCHAR uni1F72
ENCODING 8050
SWIDTH 602 0
DWIDTH 8 0
BBX 6 12 1 0
BITMAP
60
20
10
00
7C
80
80
70
80
80
84
78
ENDCHAR
STARTCHAR uni1F73
ENCODING 8051
SWIDTH 602 0
DWIDTH 8 0
BBX 6 12 1 0
BITMAP
18
10
20
00
7C
80
80
70
80
80
84
78
ENDCHAR
STARTCHAR uni1F74
ENCODING 8052
SWIDTH 602 0
DWIDTH 8 0
BBX 6 15 1 -3
BITMAP
60
20
10
00
B8
C4
84
84
84
84
84
84
04
04
04
ENDCHAR
STARTCHAR uni1F75
ENCODING 8053
SWIDTH 602 0
DWIDTH 8 0
BBX 6 15 1 -3
BITMAP
18
10
20
00
B8
C4
84
84
84
84
84
84
04
04
04
ENDCHAR
STARTCHAR uni1F76
ENCODING 8054
SWIDTH 602 0
DWIDTH 8 0
BBX 5 12 2 0
BITMAP
C0
40
20
00
60
20
20
20
20
20
20
18
ENDCHAR
STARTCHAR uni1F77
ENCODING 8055
SWIDTH 602 0
DWIDTH 8 0
BBX 4 12 3 0
BITMAP
60
40
80
00
C0
40
40
40
40
40
40
30
ENDCHAR
STARTCHAR uni1F78
ENCODING 8056
SWIDTH 602 0
DWIDTH 8 0
BBX 6 12 1 0
BITMAP
60
20
10
00
78
CC
84
84
84
84
CC
78
ENDCHAR
STARTCHAR uni1F79
ENCODING 8057
SWIDTH 602 0
DWIDTH 8 0
BBX 6 12 1 0
BITMAP
18
10
20
00
78
CC
84
84
84
84
CC
78
ENDCHAR
STARTCHAR uni1F7A
ENCODING 8058
SWIDTH 602 0
DWIDTH 8 0
BBX 8 12 0 0
BITMAP
30
10
08
00
E6
22
23
23
23
22
26
1C
ENDCHAR
STARTCHAR uni1F7B
ENCODING 8059
SWIDTH 602 0
DWIDTH 8 0
BBX 8 12 0 0
BITMAP
0C
08
10
00
E6
22
23
23
23
22
26
1C
ENDCHAR
STARTCHAR uni1F7C
ENCODING 8060
SWIDTH 602 0
DWIDTH 8 0
BBX 8 12 0 0
BITMAP
30
10
08
00
62
43
43
49
C9
49
5B
7E
ENDCHAR
STARTCHAR uni1F7D
ENCODING 8061
SWIDTH 602 0
DWIDTH 8 0
BBX 8 12 0 0
BITMAP
0C
08
10
00
62
43
43
49
C9
49
5B
7E
ENDCHAR
STARTCHAR uni1F80
ENCODING 8064
SWIDTH 602 0
DWIDTH 8 0
BBX 8 14 0 -3
BITMAP
18
08
10
39
6E
46
46
C4
46
4E
3B
00
10
10
ENDCHAR
STARTCHAR uni1F81
ENCODING 8065
SWIDTH 602 0
DWIDTH 8 0
BBX 8 14 0 -3
BITMAP
18
10
08
39
6E
46
46
C4
46
4E
3B
00
10
10
ENDCHAR
STARTCHAR uni1F82
ENCODING 8066
SWIDTH 602 0
DWIDTH 8 0
BBX 8 15 0 -3
BITMAP
0C
64
22
40
39
6E
46
46
C4
46
4E
3B
00
10
10
ENDCHAR
STARTCHAR uni1F83
ENCODING 8067
SWIDTH 602 0
DWIDTH 8 0
BBX 8 15 0 -3
BITMAP
0C
64
42
20
39
6E
46
46
C4
46
4E
3B
00
10
10
ENDCHAR
STARTCHAR uni1F84
ENCODING 8068
SWIDTH 602 0
DWIDTH 8 0
BBX 8 15 0 -3
BITMAP
06
34
18
20
39
6E
46
46
C4
46
4E
3B
00
10
10
ENDCHAR
STARTCHAR uni1F85
ENCODING 8069
SWIDTH 602 0
DWIDTH 8 0
BBX 8 15 0 -3
BITMAP
06
34
28
10
39
6E
46
46
C4
46
4E
3B
00
10
10
ENDCHAR
STARTCHAR uni1F86
ENCODING 8070
SWIDTH 602 0
DWIDTH 8 0
BBX 8 17 0 -3
BITMAP
3A
2E
00
18
08
10
39
6E
46
46
C4
46
4E
3B
00
10
10
ENDCHAR
STARTCHAR uni1F87
ENCODING 8071
SWIDTH 602 0
DWIDTH 8 0
BBX 8 17 0 -3
BITMAP
3A
2E
00
18
10
08
39
6E
46
46
C4
46
4E
3B
00
10
10
ENDCHAR
STARTCHAR uni1F88
ENCODING 8072
SWIDTH 602 0
DWIDTH 8 0
BBX 7 14 1 -3
BITMAP
C0
50
A8
28
28
28
44
7C
44
82
82
00
10
10
ENDCHAR
STARTCHAR uni1F89
ENCODING 8073
SWIDTH 602 0
DWIDTH 8 0
BBX 8 14 0 -3
BITMAP
C0
88
54
14
14
14
22
3E
22
41
41
00
08
08
ENDCHAR
STARTCHAR uni1F8A
ENCODING 8074
SWIDTH 602 0
DWIDTH 8 0
BBX 11 15 -3 -3
BITMAP
1800
C800
4500
8280
0280
0280
0280
0440
07C0
0440
0820
0820
0000
0100
0100
ENDCHAR
STARTCHAR uni1F8B
ENCODING 8075
SWIDTH 602 0
DWIDTH 8 0
BBX 11 15 -3 -3
BITMAP
1800
C800
8500
4280
0280
0280
0280
0440
07C0
0440
0820
0820
0000
0100
0100
ENDCHAR
STARTCHAR uni1F8C
ENCODING 8076
SWIDTH 602 0
DWIDTH 8 0
BBX 10 15 -2 -3
BITMAP
1800
D000
6200
8500
0500
0500
0500
0880
0F80
0880
1040
1040
0000
0200
0200
ENDCHAR
STARTCHAR uni1F8D
ENCODING 8077
SWIDTH 602 0
DWIDTH 8 0
BBX 10 15 -2 -3
BITMAP
1800
D000
A200
4500
0500
0500
0500
0880
0F80
0880
1040
1040
0000
0200
0200
ENDCHAR
STARTCHAR uni1F8E
ENCODING 8078
SWIDTH 602 0
DWIDTH 8 0
BBX 8 17 0 -3
BITMAP
E8
B8
00
60
28
54
14
14
14
22
3E
22
41
41
00
08
08
ENDCHAR
STARTCHAR uni1F8F
ENCODING 8079
SWIDTH 602 0
DWIDTH 8 0
BBX 9 17 -1 -3
BITMAP
E800
B800
0000
6000
4400
2A00
0A00
0A00
0A00
1100
1F00
1100
2080
2080
0000
0400
0400
ENDCHAR
STARTCHAR uni1F90
ENCODING 8080
SWIDTH 602 0
DWIDTH 8 0
BBX 6 14 1 -3
BITMAP
30
10
20
B8
C4
84
84
84
84
84
84
04
44
44
ENDCHAR
STARTCHAR uni1F91
ENCODING 8081
SWIDTH 602 0
DWIDTH 8 0
BBX 6 14 1 -3
BITMAP
30
20
10
B8
C4
84
84
84
84
84
84
04
44
44
ENDCHAR
STARTCHAR uni1F92
ENCODING 8082
SWIDTH 602 0
DWIDTH 8 0
BBX 6 15 1 -3
BITMAP
18
C8
44
80
B8
C4
84
84
84
84
84
84
04
44
44
ENDCHAR
STARTCHAR uni1F93
ENCODING 8083
SWIDTH 602 0
DWIDTH 8 0
BBX 6 15 1 -3
BITMAP
18
C8
84
40
B8
C4
84
84
84
84
84
84
04
44
44
ENDCHAR
STARTCHAR uni1F94
ENCODING 8084
SWIDTH 602 0
DWIDTH 8 0
BBX 6 15 1 -3
BITMAP
0C
68
30
40
B8
C4
84
84
84
84
84
84
04
44
44
ENDCHAR
STARTCHAR uni1F95
ENCODING 8085
SWIDTH 602 0
DWIDTH 8 0
BBX 6 15 1 -3
BITMAP
0C
68
50
20
B8
C4
84
84
84
84
84
84
04
44
44
ENDCHAR
STARTCHAR uni1F96
ENCODING 8086
SWIDTH 602 0
DWIDTH 8 0
BBX 6 17 1 -3
BITMAP
74
5C
00
30
10
20
B8
C4
84
84
84
84
84
84
04
44
44
ENDCHAR
STARTCHAR uni1F97
ENCODING 8087
SWIDTH 602 0
DWIDTH 8 0
BBX 6 17 1 -3
BITMAP
74
5C
00
30
20
10
B8
C4
84
84
84
84
84
84
04
44
44
ENDCHAR
STARTCHAR uni1F98
ENCODING 8088
SWIDTH 602 0
DWIDTH 8 0
BBX 10 14 -2 -3
BITMAP
C000
5040
9040
1040
1040
1FC0
1040
1040
1040
1040
1040
0000
0200
0200
ENDCHAR
STARTCHAR uni1F99
ENCODING 8089
SWIDTH 602 0
DWIDTH 8 0
BBX 10 14 -2 -3
BITMAP
C000
9040
5040
1040
1040
1FC0
1040
1040
1040
1040
1040
0000
0200
0200
ENDCHAR
STARTCHAR uni1F9A
ENCODING 8090
SWIDTH 602 0
DWIDTH 8 0
BBX 13 15 -5 -3
BITMAP
1800
C800
4608
8208
0208
0208
03F8
0208
0208
0208
0208
0208
0000
0040
0040
ENDCHAR
STARTCHAR uni1F9B
ENCODING 8091
SWIDTH 602 0
DWIDTH 8 0
BBX 13 15 -5 -3
BITMAP
1800
C800
8608
4208
0208
0208
03F8
0208
0208
0208
0208
0208
0000
0040
0040
ENDCHAR
STARTCHAR uni1F9C
ENCODING 8092
SWIDTH 602 0
DWIDTH 8 0
BBX 12 15 -4 -3
BITMAP
1800
D000
6410
8410
0410
0410
07F0
0410
0410
0410
0410
0410
0000
0080
0080
ENDCHAR
STARTCHAR uni1F9D
ENCODING 8093
SWIDTH 602 0
DWIDTH 8 0
BBX 12 15 -4 -3
BITMAP
1800
D000
A410
4410
0410
0410
07F0
0410
0410
0410
0410
0410
0000
0080
0080
ENDCHAR
STARTCHAR uni1F9E
ENCODING 8094
SWIDTH 602 0
DWIDTH 8 0
BBX 11 17 -3 -3
BITMAP
E800
B800
0000
6000
2820
4820
0820
0820
0FE0
0820
0820
0820
0820
0820
0000
0100
0100
ENDCHAR
STARTCHAR uni1F9F
ENCODING 8095
SWIDTH 602 0
DWIDTH 8 0
BBX 11 17 -3 -3
BITMAP
E800
B800
0000
6000
4820
2820
0820
0820
0FE0
0820
0820
0820
0820
0820
0000
0100
0100
ENDCHAR
STARTCHAR uni1FA0
ENCODING 8096
SWIDTH 602 0
DWIDTH 8 0
BBX 8 14 0 -3
BITMAP
18
08
10
62
43
43
49
C9
49
5B
7E
00
08
08
ENDCHAR
STARTCHAR uni1FA1
ENCODING 8097
SWIDTH 602 0
DWIDTH 8 0
BBX 8 14 0 -3
BITMAP
18
10
08
62
43
43
49
C9
49
5B
7E
00
08
08
ENDCHAR
STARTCHAR uni1FA2
ENCODING 8098
SWIDTH 602 0
DWIDTH 8 0
BBX 8 15 0 -3
BITMAP
0C
64
22
40
62
43
43
49
C9
49
5B
7E
00
08
08
ENDCHAR
STARTCHAR uni1FA3
ENCODING 8099
SWIDTH 602 0
DWIDTH 8 0
BBX 8 15 0 -3
BITMAP
0C
64
42
20
62
43
43
49
C9
49
5B
7E
00
08
08
ENDCHAR
STARTCHAR uni1FA4
ENCODING 8100
SWIDTH 602 0
DWIDTH 8 0
BBX 8 15 0 -3
BITMAP
06
34
18
20
62
43
43
49
C9
49
5B
7E
00
08
08
ENDCHAR
STARTCHAR uni1FA5
ENCODING 8101
SWIDTH 602 0
DWIDTH 8 0
BBX 8 15 0 -3
BITMAP
06
34
28
10
62
43
43
49
C9
49
5B
7E
00
08
08
ENDCHAR
STARTCHAR uni1FA6
ENCODING 8102
SWIDTH 602 0
DWIDTH 8 0
BBX 8 17 0 -3
BITMAP
3A
2E
00
18
08
10
62
43
43
49
C9
49
5B
7E
00
08
08
ENDCHAR
STARTCHAR uni1FA7
ENCODING 8103
SWIDTH 602 0
DWIDTH 8 0
BBX 8 17 0 -3
BITMAP
3A
2E
00
18
10
08
62
43
43
49
C9
49
5B
7E
00
08
08
ENDCHAR
STARTCHAR uni1FA8
ENCODING 8104
SWIDTH 602 0
DWIDTH 8 0
BBX 9 14 -1 -3
BITMAP
C000
4E00
9100
2080
2080
2080
2080
2080
3180
1100
3B80
0000
0400
0400
ENDCHAR
STARTCHAR uni1FA9
ENCODING 8105
SWIDTH 602 0
DWIDTH 8 0
BBX 9 14 -1 -3
BITMAP
C000
8E00
5100
2080
2080
2080
2080
2080
3180
1100
3B80
0000
0400
0400
ENDCHAR
STARTCHAR uni1FAA
ENCODING 8106
SWIDTH 602 0
DWIDTH 8 0
BBX 13 15 -5 -3
BITMAP
1800
C800
44E0
8110
0208
0208
0208
0208
0208
0318
0110
03B8
0000
0040
0040
ENDCHAR
STARTCHAR uni1FAB
ENCODING 8107
SWIDTH 602 0
DWIDTH 8 0
BBX 13 15 -5 -3
BITMAP
1800
C800
84E0
4110
0208
0208
0208
0208
0208
0318
0110
03B8
0000
0040
0040
ENDCHAR
STARTCHAR uni1FAC
ENCODING 8108
SWIDTH 602 0
DWIDTH 8 0
BBX 10 15 -2 -3
BITMAP
1800
D000
6700
8880
1040
1040
1040
1040
1040
18C0
0880
1DC0
0000
0200
0200
ENDCHAR
STARTCHAR uni1FAD
ENCODING 8109
SWIDTH 602 0
DWIDTH 8 0
BBX 10 15 -2 -3
BITMAP
1800
D000
A700
4880
1040
1040
1040
1040
1040
18C0
0880
1DC0
0000
0200
0200
ENDCHAR
STARTCHAR uni1FAE
ENCODING 8110
SWIDTH 602 0
DWIDTH 8 0
BBX 10 17 -2 -3
BITMAP
E800
B800
0000
6000
2700
4880
1040
1040
1040
1040
1040
18C0
0880
1DC0
0000
0200
0200
ENDCHAR
ENDFONT
